<?xml version="1.0" encoding="UTF-8" standalone="yes"?><svg xmlns="http://www.w3.org/2000/svg" xmlns:xlink="http://www.w3.org/1999/xlink" height="783px" style="width:1127px;height:783px;" version="1.1" viewBox="0 0 1127 783" width="1127px"><defs><filter height="300%" id="f1" width="300%" x="-1" y="-1"><feGaussianBlur result="blurOut" stdDeviation="2.0"/><feColorMatrix in="blurOut" result="blurOut2" type="matrix" values="0 0 0 0 0 0 0 0 0 0 0 0 0 0 0 0 0 0 .4 0"/><feOffset dx="4.0" dy="4.0" in="blurOut2" result="blurOut3"/><feBlend in="SourceGraphic" in2="blurOut3" mode="normal"/></filter></defs><g><polygon fill="#FFFFFF" filter="url(#f1)" points="22,24,59,24,66,46.2969,1120,46.2969,1120,776,22,776,22,24" style="stroke: #000000; stroke-width: 2.0;"/><line style="stroke: #000000; stroke-width: 2.0;" x1="22" x2="66" y1="46.2969" y2="46.2969"/><text fill="#000000" font-family="sans-serif" font-size="14" font-weight="bold" lengthAdjust="spacingAndGlyphs" textLength="31" x="26" y="38.9951">slim</text><polygon fill="#FFFFFF" filter="url(#f1)" points="46,68,133,68,140,90.2969,1096,90.2969,1096,618,46,618,46,68" style="stroke: #000000; stroke-width: 2.0;"/><line style="stroke: #000000; stroke-width: 2.0;" x1="46" x2="140" y1="90.2969" y2="90.2969"/><text fill="#000000" font-family="sans-serif" font-size="14" font-weight="bold" lengthAdjust="spacingAndGlyphs" textLength="81" x="50" y="82.9951">resources</text><polygon fill="#FFFFFF" filter="url(#f1)" points="270,652,326,652,333,674.2969,600,674.2969,600,752,270,752,270,652" style="stroke: #000000; stroke-width: 2.0;"/><line style="stroke: #000000; stroke-width: 2.0;" x1="270" x2="333" y1="674.2969" y2="674.2969"/><text fill="#000000" font-family="sans-serif" font-size="14" font-weight="bold" lengthAdjust="spacingAndGlyphs" textLength="50" x="274" y="666.9951">debug</text><rect fill="#FEFECE" filter="url(#f1)" height="94.4141" style="stroke: #A80036; stroke-width: 1.5;" width="258" x="142" y="368"/><ellipse cx="256.25" cy="384" fill="#A9DCDF" rx="11" ry="11" style="stroke: #A80036; stroke-width: 1.0;"/><path d="M256.3594,379.3438 L255.2031,384.4219 L257.5313,384.4219 L256.3594,379.3438 Z M254.875,377.1094 L257.8594,377.1094 L261.2188,389.5 L258.7656,389.5 L258,386.4375 L254.7188,386.4375 L253.9688,389.5 L251.5313,389.5 L254.875,377.1094 Z "/><text fill="#000000" font-family="sans-serif" font-size="12" font-style="italic" lengthAdjust="spacingAndGlyphs" textLength="21" x="276.75" y="388.1543">File</text><line style="stroke: #A80036; stroke-width: 1.5;" x1="143" x2="399" y1="400" y2="400"/><text fill="#000000" font-family="sans-serif" font-size="11" lengthAdjust="spacingAndGlyphs" textLength="102" x="148" y="414.2104">const char* name</text><line style="stroke: #A80036; stroke-width: 1.0;" x1="143" x2="399" y1="420.8047" y2="420.8047"/><text fill="#000000" font-family="sans-serif" font-size="11" lengthAdjust="spacingAndGlyphs" textLength="246" x="148" y="435.0151">void onError(const char* description) const</text><line style="stroke: #A80036; stroke-width: 1.0;" x1="143" x2="399" y1="441.6094" y2="441.6094"/><text fill="#000000" font-family="sans-serif" font-size="11" lengthAdjust="spacingAndGlyphs" textLength="164" x="148" y="455.8198">const char* getName() const</text><rect fill="#FEFECE" filter="url(#f1)" height="60.8047" style="stroke: #A80036; stroke-width: 1.5;" width="106" x="814.5" y="228.5"/><ellipse cx="829.5" cy="244.5" fill="#A9DCDF" rx="11" ry="11" style="stroke: #A80036; stroke-width: 1.0;"/><path d="M829.6094,239.8438 L828.4531,244.9219 L830.7813,244.9219 L829.6094,239.8438 Z M828.125,237.6094 L831.1094,237.6094 L834.4688,250 L832.0156,250 L831.25,246.9375 L827.9688,246.9375 L827.2188,250 L824.7813,250 L828.125,237.6094 Z "/><text fill="#000000" font-family="sans-serif" font-size="12" font-style="italic" lengthAdjust="spacingAndGlyphs" textLength="74" x="843.5" y="248.6543">BufferedFile</text><line style="stroke: #A80036; stroke-width: 1.5;" x1="815.5" x2="919.5" y1="260.5" y2="260.5"/><text fill="#000000" font-family="sans-serif" font-size="11" lengthAdjust="spacingAndGlyphs" textLength="49" x="820.5" y="274.7104">FILE* file</text><line style="stroke: #A80036; stroke-width: 1.5;" x1="815.5" x2="919.5" y1="281.3047" y2="281.3047"/><rect fill="#FEFECE" filter="url(#f1)" height="60.8047" style="stroke: #A80036; stroke-width: 1.5;" width="123" x="127.75" y="228.5"/><ellipse cx="142.75" cy="244.5" fill="#A9DCDF" rx="11" ry="11" style="stroke: #A80036; stroke-width: 1.0;"/><path d="M142.8594,239.8438 L141.7031,244.9219 L144.0313,244.9219 L142.8594,239.8438 Z M141.375,237.6094 L144.3594,237.6094 L147.7188,250 L145.2656,250 L144.5,246.9375 L141.2188,246.9375 L140.4688,250 L138.0313,250 L141.375,237.6094 Z "/><text fill="#000000" font-family="sans-serif" font-size="12" font-style="italic" lengthAdjust="spacingAndGlyphs" textLength="91" x="156.75" y="248.6543">UnbufferedFile</text><line style="stroke: #A80036; stroke-width: 1.5;" x1="128.75" x2="249.75" y1="260.5" y2="260.5"/><text fill="#000000" font-family="sans-serif" font-size="11" lengthAdjust="spacingAndGlyphs" textLength="29" x="133.75" y="274.7104">int fd</text><line style="stroke: #A80036; stroke-width: 1.5;" x1="128.75" x2="249.75" y1="281.3047" y2="281.3047"/><rect fill="#FEFECE" filter="url(#f1)" height="60.8047" style="stroke: #A80036; stroke-width: 1.5;" width="243" x="285.75" y="228.5"/><ellipse cx="369.5" cy="244.5" fill="#B4A7E5" rx="11" ry="11" style="stroke: #A80036; stroke-width: 1.0;"/><path d="M365.4219,240.2656 L365.4219,238.1094 L372.8125,238.1094 L372.8125,240.2656 L370.3438,240.2656 L370.3438,248.3438 L372.8125,248.3438 L372.8125,250.5 L365.4219,250.5 L365.4219,248.3438 L367.8906,248.3438 L367.8906,240.2656 L365.4219,240.2656 Z "/><text fill="#000000" font-family="sans-serif" font-size="12" font-style="italic" lengthAdjust="spacingAndGlyphs" textLength="67" x="390" y="248.6543">IWritingFile</text><line style="stroke: #A80036; stroke-width: 1.5;" x1="286.75" x2="527.75" y1="260.5" y2="260.5"/><line style="stroke: #A80036; stroke-width: 1.5;" x1="286.75" x2="527.75" y1="268.5" y2="268.5"/><text fill="#000000" font-family="sans-serif" font-size="11" font-style="italic" lengthAdjust="spacingAndGlyphs" textLength="231" x="291.75" y="282.7104">size_t write(const void* data, size_t size)</text><rect fill="#FEFECE" filter="url(#f1)" height="60.8047" style="stroke: #A80036; stroke-width: 1.5;" width="215" x="563.75" y="228.5"/><ellipse cx="629.5" cy="244.5" fill="#B4A7E5" rx="11" ry="11" style="stroke: #A80036; stroke-width: 1.0;"/><path d="M625.4219,240.2656 L625.4219,238.1094 L632.8125,238.1094 L632.8125,240.2656 L630.3438,240.2656 L630.3438,248.3438 L632.8125,248.3438 L632.8125,250.5 L625.4219,250.5 L625.4219,248.3438 L627.8906,248.3438 L627.8906,240.2656 L625.4219,240.2656 Z "/><text fill="#000000" font-family="sans-serif" font-size="12" font-style="italic" lengthAdjust="spacingAndGlyphs" textLength="75" x="650" y="248.6543">IReadingFile</text><line style="stroke: #A80036; stroke-width: 1.5;" x1="564.75" x2="777.75" y1="260.5" y2="260.5"/><line style="stroke: #A80036; stroke-width: 1.5;" x1="564.75" x2="777.75" y1="268.5" y2="268.5"/><text fill="#000000" font-family="sans-serif" font-size="11" font-style="italic" lengthAdjust="spacingAndGlyphs" textLength="203" x="569.75" y="282.7104">size_t read(void* buffer, size_t size)</text><rect fill="#FEFECE" filter="url(#f1)" height="60.8047" style="stroke: #A80036; stroke-width: 1.5;" width="215" x="864.75" y="104.5"/><ellipse cx="905.85" cy="120.5" fill="#ADD1B2" rx="11" ry="11" style="stroke: #A80036; stroke-width: 1.0;"/><path d="M908.8188,126.1406 Q908.2406,126.4375 907.6,126.5859 Q906.9594,126.7344 906.2563,126.7344 Q903.7563,126.7344 902.4359,125.0859 Q901.1156,123.4375 901.1156,120.3125 Q901.1156,117.1875 902.4359,115.5313 Q903.7563,113.875 906.2563,113.875 Q906.9594,113.875 907.6078,114.0313 Q908.2563,114.1875 908.8188,114.4844 L908.8188,117.2031 Q908.1938,116.625 907.6,116.3516 Q907.0063,116.0781 906.3813,116.0781 Q905.0375,116.0781 904.35,117.1484 Q903.6625,118.2188 903.6625,120.3125 Q903.6625,122.4063 904.35,123.4766 Q905.0375,124.5469 906.3813,124.5469 Q907.0063,124.5469 907.6,124.2734 Q908.1938,124 908.8188,123.4219 L908.8188,126.1406 Z "/><text fill="#000000" font-family="sans-serif" font-size="12" lengthAdjust="spacingAndGlyphs" textLength="125" x="925.65" y="124.6543">BufferedReadingFile</text><line style="stroke: #A80036; stroke-width: 1.5;" x1="865.75" x2="1078.75" y1="136.5" y2="136.5"/><line style="stroke: #A80036; stroke-width: 1.5;" x1="865.75" x2="1078.75" y1="144.5" y2="144.5"/><text fill="#000000" font-family="sans-serif" font-size="11" lengthAdjust="spacingAndGlyphs" textLength="203" x="870.75" y="158.7104">size_t read(void* buffer, size_t size)</text><rect fill="#FEFECE" filter="url(#f1)" height="60.8047" style="stroke: #A80036; stroke-width: 1.5;" width="241" x="588.75" y="104.5"/><ellipse cx="646.5" cy="120.5" fill="#ADD1B2" rx="11" ry="11" style="stroke: #A80036; stroke-width: 1.0;"/><path d="M649.4688,126.1406 Q648.8906,126.4375 648.25,126.5859 Q647.6094,126.7344 646.9063,126.7344 Q644.4063,126.7344 643.0859,125.0859 Q641.7656,123.4375 641.7656,120.3125 Q641.7656,117.1875 643.0859,115.5313 Q644.4063,113.875 646.9063,113.875 Q647.6094,113.875 648.2578,114.0313 Q648.9063,114.1875 649.4688,114.4844 L649.4688,117.2031 Q648.8438,116.625 648.25,116.3516 Q647.6563,116.0781 647.0313,116.0781 Q645.6875,116.0781 645,117.1484 Q644.3125,118.2188 644.3125,120.3125 Q644.3125,122.4063 645,123.4766 Q645.6875,124.5469 647.0313,124.5469 Q647.6563,124.5469 648.25,124.2734 Q648.8438,124 649.4688,123.4219 L649.4688,126.1406 Z "/><text fill="#000000" font-family="sans-serif" font-size="12" lengthAdjust="spacingAndGlyphs" textLength="117" x="667" y="124.6543">BufferedWritingFile</text><line style="stroke: #A80036; stroke-width: 1.5;" x1="589.75" x2="828.75" y1="136.5" y2="136.5"/><line style="stroke: #A80036; stroke-width: 1.5;" x1="589.75" x2="828.75" y1="144.5" y2="144.5"/><text fill="#000000" font-family="sans-serif" font-size="11" lengthAdjust="spacingAndGlyphs" textLength="229" x="594.75" y="158.7104">size_t read(const void* data, size_t size)</text><rect fill="#FEFECE" filter="url(#f1)" height="60.8047" style="stroke: #A80036; stroke-width: 1.5;" width="215" x="338.75" y="104.5"/><ellipse cx="372.2" cy="120.5" fill="#ADD1B2" rx="11" ry="11" style="stroke: #A80036; stroke-width: 1.0;"/><path d="M375.1688,126.1406 Q374.5906,126.4375 373.95,126.5859 Q373.3094,126.7344 372.6063,126.7344 Q370.1063,126.7344 368.7859,125.0859 Q367.4656,123.4375 367.4656,120.3125 Q367.4656,117.1875 368.7859,115.5313 Q370.1063,113.875 372.6063,113.875 Q373.3094,113.875 373.9578,114.0313 Q374.6063,114.1875 375.1688,114.4844 L375.1688,117.2031 Q374.5438,116.625 373.95,116.3516 Q373.3563,116.0781 372.7313,116.0781 Q371.3875,116.0781 370.7,117.1484 Q370.0125,118.2188 370.0125,120.3125 Q370.0125,122.4063 370.7,123.4766 Q371.3875,124.5469 372.7313,124.5469 Q373.3563,124.5469 373.95,124.2734 Q374.5438,124 375.1688,123.4219 L375.1688,126.1406 Z "/><text fill="#000000" font-family="sans-serif" font-size="12" lengthAdjust="spacingAndGlyphs" textLength="142" x="390.3" y="124.6543">UnbufferedReadingFile</text><line style="stroke: #A80036; stroke-width: 1.5;" x1="339.75" x2="552.75" y1="136.5" y2="136.5"/><line style="stroke: #A80036; stroke-width: 1.5;" x1="339.75" x2="552.75" y1="144.5" y2="144.5"/><text fill="#000000" font-family="sans-serif" font-size="11" lengthAdjust="spacingAndGlyphs" textLength="203" x="344.75" y="158.7104">size_t read(void* buffer, size_t size)</text><rect fill="#FEFECE" filter="url(#f1)" height="60.8047" style="stroke: #A80036; stroke-width: 1.5;" width="241" x="62.75" y="104.5"/><ellipse cx="112" cy="120.5" fill="#ADD1B2" rx="11" ry="11" style="stroke: #A80036; stroke-width: 1.0;"/><path d="M114.9688,126.1406 Q114.3906,126.4375 113.75,126.5859 Q113.1094,126.7344 112.4063,126.7344 Q109.9063,126.7344 108.5859,125.0859 Q107.2656,123.4375 107.2656,120.3125 Q107.2656,117.1875 108.5859,115.5313 Q109.9063,113.875 112.4063,113.875 Q113.1094,113.875 113.7578,114.0313 Q114.4063,114.1875 114.9688,114.4844 L114.9688,117.2031 Q114.3438,116.625 113.75,116.3516 Q113.1563,116.0781 112.5313,116.0781 Q111.1875,116.0781 110.5,117.1484 Q109.8125,118.2188 109.8125,120.3125 Q109.8125,122.4063 110.5,123.4766 Q111.1875,124.5469 112.5313,124.5469 Q113.1563,124.5469 113.75,124.2734 Q114.3438,124 114.9688,123.4219 L114.9688,126.1406 Z "/><text fill="#000000" font-family="sans-serif" font-size="12" lengthAdjust="spacingAndGlyphs" textLength="134" x="132.5" y="124.6543">UnbufferedWritingFile</text><line style="stroke: #A80036; stroke-width: 1.5;" x1="63.75" x2="302.75" y1="136.5" y2="136.5"/><line style="stroke: #A80036; stroke-width: 1.5;" x1="63.75" x2="302.75" y1="144.5" y2="144.5"/><text fill="#000000" font-family="sans-serif" font-size="11" lengthAdjust="spacingAndGlyphs" textLength="229" x="68.75" y="158.7104">size_t read(const void* data, size_t size)</text><rect fill="#FEFECE" filter="url(#f1)" height="86.4141" style="stroke: #A80036; stroke-width: 1.5;" width="168" x="435.5" y="372"/><ellipse cx="487.25" cy="388" fill="#ADD1B2" rx="11" ry="11" style="stroke: #A80036; stroke-width: 1.0;"/><path d="M490.2188,393.6406 Q489.6406,393.9375 489,394.0859 Q488.3594,394.2344 487.6563,394.2344 Q485.1563,394.2344 483.8359,392.5859 Q482.5156,390.9375 482.5156,387.8125 Q482.5156,384.6875 483.8359,383.0313 Q485.1563,381.375 487.6563,381.375 Q488.3594,381.375 489.0078,381.5313 Q489.6563,381.6875 490.2188,381.9844 L490.2188,384.7031 Q489.5938,384.125 489,383.8516 Q488.4063,383.5781 487.7813,383.5781 Q486.4375,383.5781 485.75,384.6484 Q485.0625,385.7188 485.0625,387.8125 Q485.0625,389.9063 485.75,390.9766 Q486.4375,392.0469 487.7813,392.0469 Q488.4063,392.0469 489,391.7734 Q489.5938,391.5 490.2188,390.9219 L490.2188,393.6406 Z "/><text fill="#000000" font-family="sans-serif" font-size="12" lengthAdjust="spacingAndGlyphs" textLength="56" x="507.75" y="392.1543">Directory</text><line style="stroke: #A80036; stroke-width: 1.5;" x1="436.5" x2="602.5" y1="404" y2="404"/><text fill="#000000" font-family="sans-serif" font-size="11" lengthAdjust="spacingAndGlyphs" textLength="62" x="441.5" y="418.2104">char path[]</text><line style="stroke: #A80036; stroke-width: 1.5;" x1="436.5" x2="602.5" y1="424.8047" y2="424.8047"/><text fill="#000000" font-family="sans-serif" font-size="11" lengthAdjust="spacingAndGlyphs" textLength="156" x="441.5" y="439.0151">const char* getPath() const</text><text fill="#000000" font-family="sans-serif" font-size="11" lengthAdjust="spacingAndGlyphs" textLength="116" x="441.5" y="451.8198">File* createNewFile()</text><rect fill="#FEFECE" filter="url(#f1)" height="60.8047" style="stroke: #A80036; stroke-width: 1.5;" width="132" x="288" y="540.5"/><ellipse cx="311.1" cy="556.5" fill="#ADD1B2" rx="11" ry="11" style="stroke: #A80036; stroke-width: 1.0;"/><path d="M314.0688,562.1406 Q313.4906,562.4375 312.85,562.5859 Q312.2094,562.7344 311.5063,562.7344 Q309.0063,562.7344 307.6859,561.0859 Q306.3656,559.4375 306.3656,556.3125 Q306.3656,553.1875 307.6859,551.5313 Q309.0063,549.875 311.5063,549.875 Q312.2094,549.875 312.8578,550.0313 Q313.5063,550.1875 314.0688,550.4844 L314.0688,553.2031 Q313.4438,552.625 312.85,552.3516 Q312.2563,552.0781 311.6313,552.0781 Q310.2875,552.0781 309.6,553.1484 Q308.9125,554.2188 308.9125,556.3125 Q308.9125,558.4063 309.6,559.4766 Q310.2875,560.5469 311.6313,560.5469 Q312.2563,560.5469 312.85,560.2734 Q313.4438,560 314.0688,559.4219 L314.0688,562.1406 Z "/><text fill="#000000" font-family="sans-serif" font-size="12" lengthAdjust="spacingAndGlyphs" textLength="82" x="326.9" y="560.6543">FileException</text><line style="stroke: #A80036; stroke-width: 1.5;" x1="289" x2="419" y1="572.5" y2="572.5"/><text fill="#000000" font-family="sans-serif" font-size="11" lengthAdjust="spacingAndGlyphs" textLength="120" x="294" y="586.7104">const char* fileName</text><line style="stroke: #A80036; stroke-width: 1.5;" x1="289" x2="419" y1="593.3047" y2="593.3047"/><rect fill="#FEFECE" filter="url(#f1)" height="48" style="stroke: #A80036; stroke-width: 1.5;" width="93" x="491.75" y="688"/><ellipse cx="506.75" cy="704" fill="#ADD1B2" rx="11" ry="11" style="stroke: #A80036; stroke-width: 1.0;"/><path d="M509.7188,709.6406 Q509.1406,709.9375 508.5,710.0859 Q507.8594,710.2344 507.1563,710.2344 Q504.6563,710.2344 503.3359,708.5859 Q502.0156,706.9375 502.0156,703.8125 Q502.0156,700.6875 503.3359,699.0313 Q504.6563,697.375 507.1563,697.375 Q507.8594,697.375 508.5078,697.5313 Q509.1563,697.6875 509.7188,697.9844 L509.7188,700.7031 Q509.0938,700.125 508.5,699.8516 Q507.9063,699.5781 507.2813,699.5781 Q505.9375,699.5781 505.25,700.6484 Q504.5625,701.7188 504.5625,703.8125 Q504.5625,705.9063 505.25,706.9766 Q505.9375,708.0469 507.2813,708.0469 Q507.9063,708.0469 508.5,707.7734 Q509.0938,707.5 509.7188,706.9219 L509.7188,709.6406 Z "/><text fill="#000000" font-family="sans-serif" font-size="12" lengthAdjust="spacingAndGlyphs" textLength="61" x="520.75" y="708.1543">Exception</text><line style="stroke: #A80036; stroke-width: 1.5;" x1="492.75" x2="583.75" y1="720" y2="720"/><line style="stroke: #A80036; stroke-width: 1.5;" x1="492.75" x2="583.75" y1="728" y2="728"/><rect fill="#FEFECE" filter="url(#f1)" height="48" style="stroke: #A80036; stroke-width: 1.5;" width="135" x="286.75" y="688"/><ellipse cx="301.75" cy="704" fill="#ADD1B2" rx="11" ry="11" style="stroke: #A80036; stroke-width: 1.0;"/><path d="M304.7188,709.6406 Q304.1406,709.9375 303.5,710.0859 Q302.8594,710.2344 302.1563,710.2344 Q299.6563,710.2344 298.3359,708.5859 Q297.0156,706.9375 297.0156,703.8125 Q297.0156,700.6875 298.3359,699.0313 Q299.6563,697.375 302.1563,697.375 Q302.8594,697.375 303.5078,697.5313 Q304.1563,697.6875 304.7188,697.9844 L304.7188,700.7031 Q304.0938,700.125 303.5,699.8516 Q302.9063,699.5781 302.2813,699.5781 Q300.9375,699.5781 300.25,700.6484 Q299.5625,701.7188 299.5625,703.8125 Q299.5625,705.9063 300.25,706.9766 Q300.9375,708.0469 302.2813,708.0469 Q302.9063,708.0469 303.5,707.7734 Q304.0938,707.5 304.7188,706.9219 L304.7188,709.6406 Z "/><text fill="#000000" font-family="sans-serif" font-size="12" lengthAdjust="spacingAndGlyphs" textLength="103" x="315.75" y="708.1543">SyscallException</text><line style="stroke: #A80036; stroke-width: 1.5;" x1="287.75" x2="420.75" y1="720" y2="720"/><line style="stroke: #A80036; stroke-width: 1.5;" x1="287.75" x2="420.75" y1="728" y2="728"/><path d="M814.375,282.537 C808.197,285.093 801.97,287.629 796,290 C739.145,312.577 726.448,323.574 667,338 C564.495,362.874 530.607,346.574 419.757,368.11 " fill="none" style="stroke: #A80036; stroke-width: 1.0;"/><polygon fill="none" points="421.112,374.978,400.111,372.157,418.287,361.266,421.112,374.978" style="stroke: #A80036; stroke-width: 1.0;"/><path d="M204.81,289.693 C213.917,306.796 225.731,328.983 236.853,349.87 " fill="none" style="stroke: #A80036; stroke-width: 1.0;"/><polygon fill="none" points="243.141,346.786,246.363,367.73,230.784,353.366,243.141,346.786" style="stroke: #A80036; stroke-width: 1.0;"/><path d="M946.582,165.533 C934.292,179.813 919.275,197.262 905.61,213.139 " fill="none" style="stroke: #A80036; stroke-width: 1.0;"/><polygon fill="none" points="910.9,217.724,892.547,228.316,900.288,208.591,910.9,217.724" style="stroke: #A80036; stroke-width: 1.0;"/><path d="M899.136,165.533 C858.047,182.187 806.327,203.15 762.524,220.904 " fill="none" style="stroke: #A80036; stroke-width: 1.0;"/><polygon fill="none" points="765.14,227.397,743.975,228.422,759.881,214.422,765.14,227.397" style="stroke: #A80036; stroke-width: 1.0;"/><path d="M747.247,165.533 C766.801,180.631 790.942,199.271 812.414,215.851 " fill="none" style="stroke: #A80036; stroke-width: 1.0;"/><polygon fill="none" points="817.005,210.552,828.557,228.316,808.449,221.634,817.005,210.552" style="stroke: #A80036; stroke-width: 1.0;"/><path d="M635.894,165.533 C594.669,182.187 542.777,203.15 498.828,220.904 " fill="none" style="stroke: #A80036; stroke-width: 1.0;"/><polygon fill="none" points="501.383,227.421,480.217,228.422,496.139,214.44,501.383,227.421" style="stroke: #A80036; stroke-width: 1.0;"/><path d="M500.466,165.533 C529.958,181.524 566.776,201.488 598.647,218.769 " fill="none" style="stroke: #A80036; stroke-width: 1.0;"/><polygon fill="none" points="602.01,212.629,616.256,228.316,595.337,224.937,602.01,212.629" style="stroke: #A80036; stroke-width: 1.0;"/><path d="M383.787,165.533 C349.221,181.942 305.841,202.534 268.799,220.119 " fill="none" style="stroke: #A80036; stroke-width: 1.0;"/><polygon fill="none" points="271.709,226.486,250.64,228.739,265.705,213.839,271.709,226.486" style="stroke: #A80036; stroke-width: 1.0;"/><path d="M237.224,165.533 C266.448,181.449 302.899,201.302 334.526,218.527 " fill="none" style="stroke: #A80036; stroke-width: 1.0;"/><polygon fill="none" points="338.283,212.603,352.499,228.316,331.587,224.898,338.283,212.603" style="stroke: #A80036; stroke-width: 1.0;"/><path d="M184.452,165.533 C185.082,178.326 185.836,193.661 186.547,208.131 " fill="none" style="stroke: #A80036; stroke-width: 1.0;"/><polygon fill="none" points="193.549,207.997,187.54,228.316,179.566,208.684,193.549,207.997" style="stroke: #A80036; stroke-width: 1.0;"/><path d="M638.114,293.319 C615.388,316.344 584.977,347.154 560.572,371.881 " fill="none" style="stroke: #A80036; stroke-width: 1.0;"/><polygon fill="#A80036" points="641.693,289.693,632.5237,293.2879,638.1804,293.2513,638.217,298.9081,641.693,289.693" style="stroke: #A80036; stroke-width: 1.0;"/><text fill="#000000" font-family="sans-serif" font-size="13" lengthAdjust="spacingAndGlyphs" textLength="48" x="609" y="333.0669">creates</text><path d="M431.647,293.889 C448.346,316.85 470.533,347.358 488.368,371.881 " fill="none" style="stroke: #A80036; stroke-width: 1.0;"/><polygon fill="#A80036" points="428.595,289.693,430.6538,299.3243,431.5359,293.7366,437.1236,294.6188,428.595,289.693" style="stroke: #A80036; stroke-width: 1.0;"/><text fill="#000000" font-family="sans-serif" font-size="13" lengthAdjust="spacingAndGlyphs" textLength="48" x="464" y="333.0669">creates</text><path d="M473.913,458.081 C447.376,482.849 414.286,513.733 389.593,536.78 " fill="none" style="stroke: #A80036; stroke-width: 1.0;"/><polygon fill="#A80036" points="385.704,540.41,395.013,537.1941,389.3596,536.9987,389.555,531.3452,385.704,540.41" style="stroke: #A80036; stroke-width: 1.0;"/><text fill="#000000" font-family="sans-serif" font-size="13" lengthAdjust="spacingAndGlyphs" textLength="42" x="437" y="505.0669">throws</text><path d="M421.562,712 C438.162,712 454.761,712 471.36,712 " fill="none" style="stroke: #A80036; stroke-width: 1.0;"/><polygon fill="none" points="471.607,704.9999,491.607,712,471.607,718.9999,471.607,704.9999" style="stroke: #A80036; stroke-width: 1.0;"/><path d="M354,601.819 C354,620.983 354,646.201 354,667.573 " fill="none" style="stroke: #A80036; stroke-width: 1.0;"/><polygon fill="none" points="361,667.665,354,687.665,347,667.665,361,667.665" style="stroke: #A80036; stroke-width: 1.0;"/><path d="M295.903,462.205 C308.652,485.861 323.904,514.16 335.581,535.826 " fill="none" style="stroke: #A80036; stroke-width: 1.0;"/><polygon fill="#A80036" points="338.017,540.344,337.2695,530.5235,335.6454,535.9422,330.2267,534.3181,338.017,540.344" style="stroke: #A80036; stroke-width: 1.0;"/><text fill="#000000" font-family="sans-serif" font-size="13" lengthAdjust="spacingAndGlyphs" textLength="42" x="320" y="505.0669">throws</text></g></svg>