<?xml version="1.0" encoding="UTF-8" standalone="yes"?><svg xmlns="http://www.w3.org/2000/svg" xmlns:xlink="http://www.w3.org/1999/xlink" height="689px" style="width:556px;height:689px;" version="1.1" viewBox="0 0 556 689" width="556px"><defs><filter height="300%" id="f1" width="300%" x="-1" y="-1"><feGaussianBlur result="blurOut" stdDeviation="2.0"/><feColorMatrix in="blurOut" result="blurOut2" type="matrix" values="0 0 0 0 0 0 0 0 0 0 0 0 0 0 0 0 0 0 .4 0"/><feOffset dx="4.0" dy="4.0" in="blurOut2" result="blurOut3"/><feBlend in="SourceGraphic" in2="blurOut3" mode="normal"/></filter></defs><g><polygon fill="#FFFFFF" filter="url(#f1)" points="22,24,59,24,66,46.2969,549,46.2969,549,682,22,682,22,24" style="stroke: #000000; stroke-width: 2.0;"/><line style="stroke: #000000; stroke-width: 2.0;" x1="22" x2="66" y1="46.2969" y2="46.2969"/><text fill="#000000" font-family="sans-serif" font-size="14" font-weight="bold" lengthAdjust="spacingAndGlyphs" textLength="31" x="26" y="38.9951">slim</text><polygon fill="#FFFFFF" filter="url(#f1)" points="46,218,102,218,109,240.2969,525,240.2969,525,658,46,658,46,218" style="stroke: #000000; stroke-width: 2.0;"/><line style="stroke: #000000; stroke-width: 2.0;" x1="46" x2="109" y1="240.2969" y2="240.2969"/><text fill="#000000" font-family="sans-serif" font-size="14" font-weight="bold" lengthAdjust="spacingAndGlyphs" textLength="50" x="50" y="232.9951">debug</text><polygon fill="#FFFFFF" filter="url(#f1)" points="206,68,387,68,394,90.2969,525,90.2969,525,168,206,168,206,68" style="stroke: #000000; stroke-width: 2.0;"/><line style="stroke: #000000; stroke-width: 2.0;" x1="206" x2="394" y1="90.2969" y2="90.2969"/><text fill="#000000" font-family="sans-serif" font-size="14" font-weight="bold" lengthAdjust="spacingAndGlyphs" textLength="175" x="210" y="82.9951">any_other_namespace</text><rect fill="#FEFECE" filter="url(#f1)" height="196.8516" style="stroke: #A80036; stroke-width: 1.5;" width="187" x="61.75" y="254.5"/><ellipse cx="140" cy="270.5" fill="#ADD1B2" rx="11" ry="11" style="stroke: #A80036; stroke-width: 1.0;"/><path d="M142.9688,276.1406 Q142.3906,276.4375 141.75,276.5859 Q141.1094,276.7344 140.4063,276.7344 Q137.9063,276.7344 136.5859,275.0859 Q135.2656,273.4375 135.2656,270.3125 Q135.2656,267.1875 136.5859,265.5313 Q137.9063,263.875 140.4063,263.875 Q141.1094,263.875 141.7578,264.0313 Q142.4063,264.1875 142.9688,264.4844 L142.9688,267.2031 Q142.3438,266.625 141.75,266.3516 Q141.1563,266.0781 140.5313,266.0781 Q139.1875,266.0781 138.5,267.1484 Q137.8125,268.2188 137.8125,270.3125 Q137.8125,272.4063 138.5,273.4766 Q139.1875,274.5469 140.5313,274.5469 Q141.1563,274.5469 141.75,274.2734 Q142.3438,274 142.9688,273.4219 L142.9688,276.1406 Z "/><text fill="#000000" font-family="sans-serif" font-size="12" lengthAdjust="spacingAndGlyphs" textLength="22" x="160.5" y="274.6543">Log</text><line style="stroke: #A80036; stroke-width: 1.5;" x1="62.75" x2="247.75" y1="286.5" y2="286.5"/><text fill="#000000" font-family="sans-serif" font-size="11" lengthAdjust="spacingAndGlyphs" textLength="67" x="67.75" y="300.7104">char* name</text><text fill="#000000" font-family="sans-serif" font-size="11" lengthAdjust="spacingAndGlyphs" textLength="144" x="67.75" y="313.5151">char  consoleOutputLevel</text><text fill="#000000" font-family="sans-serif" font-size="11" lengthAdjust="spacingAndGlyphs" textLength="117" x="67.75" y="326.3198">char  fileOutputLevel</text><line style="stroke: #A80036; stroke-width: 1.0;" x1="62.75" x2="247.75" y1="332.9141" y2="332.9141"/><text fill="#000000" font-family="sans-serif" font-size="11" lengthAdjust="spacingAndGlyphs" textLength="52" x="67.75" y="347.1245">void init()</text><text fill="#000000" font-family="sans-serif" font-size="11" lengthAdjust="spacingAndGlyphs" textLength="78" x="67.75" y="359.9292">void destroy()</text><line style="stroke: #A80036; stroke-width: 1.0;" x1="62.75" x2="247.75" y1="366.5234" y2="366.5234"/><text fill="#000000" font-family="sans-serif" font-size="11" lengthAdjust="spacingAndGlyphs" textLength="175" x="67.75" y="380.7339">void setOutputLevel(char level)</text><text fill="#000000" font-family="sans-serif" font-size="11" lengthAdjust="spacingAndGlyphs" textLength="156" x="67.75" y="393.5386">void setFileLevel(char level)</text><text fill="#000000" font-family="sans-serif" font-size="11" lengthAdjust="spacingAndGlyphs" textLength="133" x="67.75" y="406.3433">void writeLog(template)</text><text fill="#000000" font-family="sans-serif" font-size="11" lengthAdjust="spacingAndGlyphs" textLength="134" x="67.75" y="419.1479">void writeInfo(template)</text><text fill="#000000" font-family="sans-serif" font-size="11" lengthAdjust="spacingAndGlyphs" textLength="158" x="67.75" y="431.9526">void writeWarning(template)</text><text fill="#000000" font-family="sans-serif" font-size="11" lengthAdjust="spacingAndGlyphs" textLength="142" x="67.75" y="444.7573">void writeError(template)</text><rect fill="#FEFECE" filter="url(#f1)" height="92.3516" style="stroke: #A80036; stroke-width: 1.5;" width="109" x="62.75" y="540"/><ellipse cx="77.75" cy="558.9688" fill="#ADD1B2" rx="11" ry="11" style="stroke: #A80036; stroke-width: 1.0;"/><path d="M80.7188,564.6094 Q80.1406,564.9063 79.5,565.0547 Q78.8594,565.2031 78.1563,565.2031 Q75.6563,565.2031 74.3359,563.5547 Q73.0156,561.9063 73.0156,558.7813 Q73.0156,555.6563 74.3359,554 Q75.6563,552.3438 78.1563,552.3438 Q78.8594,552.3438 79.5078,552.5 Q80.1563,552.6563 80.7188,552.9531 L80.7188,555.6719 Q80.0938,555.0938 79.5,554.8203 Q78.9063,554.5469 78.2813,554.5469 Q76.9375,554.5469 76.25,555.6172 Q75.5625,556.6875 75.5625,558.7813 Q75.5625,560.875 76.25,561.9453 Q76.9375,563.0156 78.2813,563.0156 Q78.9063,563.0156 79.5,562.7422 Q80.0938,562.4688 80.7188,561.8906 L80.7188,564.6094 Z "/><text fill="#000000" font-family="sans-serif" font-size="12" font-style="italic" lengthAdjust="spacingAndGlyphs" textLength="73" x="93.75" y="556.1387">«Singleton»</text><text fill="#000000" font-family="sans-serif" font-size="12" lengthAdjust="spacingAndGlyphs" textLength="77" x="91.75" y="570.1074">LogManager</text><line style="stroke: #A80036; stroke-width: 1.5;" x1="63.75" x2="170.75" y1="577.9375" y2="577.9375"/><text fill="#000000" font-family="sans-serif" font-size="11" lengthAdjust="spacingAndGlyphs" textLength="56" x="68.75" y="592.1479">Log[] logs</text><line style="stroke: #A80036; stroke-width: 1.5;" x1="63.75" x2="170.75" y1="598.7422" y2="598.7422"/><text fill="#000000" font-family="sans-serif" font-size="11" lengthAdjust="spacingAndGlyphs" textLength="52" x="68.75" y="612.9526">void init()</text><text fill="#000000" font-family="sans-serif" font-size="11" lengthAdjust="spacingAndGlyphs" textLength="78" x="68.75" y="625.7573">void destroy()</text><rect fill="#FEFECE" filter="url(#f1)" height="112.0234" style="stroke: #A80036; stroke-width: 1.5;" width="100" x="409" y="530"/><ellipse cx="427.15" cy="546" fill="#ADD1B2" rx="11" ry="11" style="stroke: #A80036; stroke-width: 1.0;"/><path d="M430.1188,551.6406 Q429.5406,551.9375 428.9,552.0859 Q428.2594,552.2344 427.5563,552.2344 Q425.0563,552.2344 423.7359,550.5859 Q422.4156,548.9375 422.4156,545.8125 Q422.4156,542.6875 423.7359,541.0313 Q425.0563,539.375 427.5563,539.375 Q428.2594,539.375 428.9078,539.5313 Q429.5563,539.6875 430.1188,539.9844 L430.1188,542.7031 Q429.4938,542.125 428.9,541.8516 Q428.3063,541.5781 427.6813,541.5781 Q426.3375,541.5781 425.65,542.6484 Q424.9625,543.7188 424.9625,545.8125 Q424.9625,547.9063 425.65,548.9766 Q426.3375,550.0469 427.6813,550.0469 Q428.3063,550.0469 428.9,549.7734 Q429.4938,549.5 430.1188,548.9219 L430.1188,551.6406 Z "/><text fill="#000000" font-family="sans-serif" font-size="12" lengthAdjust="spacingAndGlyphs" textLength="61" x="441.85" y="550.1543">Exception</text><line style="stroke: #A80036; stroke-width: 1.5;" x1="410" x2="508" y1="562" y2="562"/><text fill="#000000" font-family="sans-serif" font-size="11" lengthAdjust="spacingAndGlyphs" textLength="88" x="415" y="576.2104">char* message</text><text fill="#000000" font-family="sans-serif" font-size="11" lengthAdjust="spacingAndGlyphs" textLength="52" x="415" y="589.0151">char* file</text><text fill="#000000" font-family="sans-serif" font-size="11" lengthAdjust="spacingAndGlyphs" textLength="80" x="415" y="601.8198">char* function</text><text fill="#000000" font-family="sans-serif" font-size="11" lengthAdjust="spacingAndGlyphs" textLength="46" x="415" y="614.6245">int   line</text><line style="stroke: #A80036; stroke-width: 1.5;" x1="410" x2="508" y1="621.2188" y2="621.2188"/><text fill="#000000" font-family="sans-serif" font-size="11" lengthAdjust="spacingAndGlyphs" textLength="70" x="415" y="635.4292">char* what()</text><rect fill="#FEFECE" filter="url(#f1)" height="48" style="stroke: #A80036; stroke-width: 1.5;" width="133" x="206.75" y="562"/><ellipse cx="221.75" cy="578" fill="#ADD1B2" rx="11" ry="11" style="stroke: #A80036; stroke-width: 1.0;"/><path d="M224.7188,583.6406 Q224.1406,583.9375 223.5,584.0859 Q222.8594,584.2344 222.1563,584.2344 Q219.6563,584.2344 218.3359,582.5859 Q217.0156,580.9375 217.0156,577.8125 Q217.0156,574.6875 218.3359,573.0313 Q219.6563,571.375 222.1563,571.375 Q222.8594,571.375 223.5078,571.5313 Q224.1563,571.6875 224.7188,571.9844 L224.7188,574.7031 Q224.0938,574.125 223.5,573.8516 Q222.9063,573.5781 222.2813,573.5781 Q220.9375,573.5781 220.25,574.6484 Q219.5625,575.7188 219.5625,577.8125 Q219.5625,579.9063 220.25,580.9766 Q220.9375,582.0469 222.2813,582.0469 Q222.9063,582.0469 223.5,581.7734 Q224.0938,581.5 224.7188,580.9219 L224.7188,583.6406 Z "/><text fill="#000000" font-family="sans-serif" font-size="12" lengthAdjust="spacingAndGlyphs" textLength="101" x="235.75" y="582.1543">AssertException</text><line style="stroke: #A80036; stroke-width: 1.5;" x1="207.75" x2="338.75" y1="594" y2="594"/><line style="stroke: #A80036; stroke-width: 1.5;" x1="207.75" x2="338.75" y1="602" y2="602"/><rect fill="#FEFECE" filter="url(#f1)" height="32" style="stroke: #A80036; stroke-width: 1.5;" width="136" x="284" y="337"/><ellipse cx="299" cy="353" fill="#FF7700" rx="11" ry="11" style="stroke: #A80036; stroke-width: 1.0;"/><path d="M294.7188,346.6094 L297.6406,346.6094 L299.1094,352.0469 L300.5781,346.6094 L303.5156,346.6094 L303.5156,359 L301.4063,359 L301.4063,349.0781 L300.0938,354.5 L298.1563,354.5 L296.8281,349.0781 L296.8281,359 L294.7188,359 L294.7188,346.6094 Z "/><text fill="#000000" font-family="sans-serif" font-size="12" lengthAdjust="spacingAndGlyphs" textLength="104" x="313" y="357.1543">AssertionMaccro</text><rect fill="#FEFECE" filter="url(#f1)" height="48" style="stroke: #A80036; stroke-width: 1.5;" width="114" x="222" y="104"/><ellipse cx="237" cy="120" fill="#ADD1B2" rx="11" ry="11" style="stroke: #A80036; stroke-width: 1.0;"/><path d="M239.9688,125.6406 Q239.3906,125.9375 238.75,126.0859 Q238.1094,126.2344 237.4063,126.2344 Q234.9063,126.2344 233.5859,124.5859 Q232.2656,122.9375 232.2656,119.8125 Q232.2656,116.6875 233.5859,115.0313 Q234.9063,113.375 237.4063,113.375 Q238.1094,113.375 238.7578,113.5313 Q239.4063,113.6875 239.9688,113.9844 L239.9688,116.7031 Q239.3438,116.125 238.75,115.8516 Q238.1563,115.5781 237.5313,115.5781 Q236.1875,115.5781 235.5,116.6484 Q234.8125,117.7188 234.8125,119.8125 Q234.8125,121.9063 235.5,122.9766 Q236.1875,124.0469 237.5313,124.0469 Q238.1563,124.0469 238.75,123.7734 Q239.3438,123.5 239.9688,122.9219 L239.9688,125.6406 Z "/><text fill="#000000" font-family="sans-serif" font-size="12" lengthAdjust="spacingAndGlyphs" textLength="82" x="251" y="124.1543">LambdaClass</text><line style="stroke: #A80036; stroke-width: 1.5;" x1="223" x2="335" y1="136" y2="136"/><line style="stroke: #A80036; stroke-width: 1.5;" x1="223" x2="335" y1="144" y2="144"/><rect fill="#FEFECE" filter="url(#f1)" height="48" style="stroke: #A80036; stroke-width: 1.5;" width="100" x="409" y="104"/><ellipse cx="424" cy="120" fill="#ADD1B2" rx="11" ry="11" style="stroke: #A80036; stroke-width: 1.0;"/><path d="M426.9688,125.6406 Q426.3906,125.9375 425.75,126.0859 Q425.1094,126.2344 424.4063,126.2344 Q421.9063,126.2344 420.5859,124.5859 Q419.2656,122.9375 419.2656,119.8125 Q419.2656,116.6875 420.5859,115.0313 Q421.9063,113.375 424.4063,113.375 Q425.1094,113.375 425.7578,113.5313 Q426.4063,113.6875 426.9688,113.9844 L426.9688,116.7031 Q426.3438,116.125 425.75,115.8516 Q425.1563,115.5781 424.5313,115.5781 Q423.1875,115.5781 422.5,116.6484 Q421.8125,117.7188 421.8125,119.8125 Q421.8125,121.9063 422.5,122.9766 Q423.1875,124.0469 424.5313,124.0469 Q425.1563,124.0469 425.75,123.7734 Q426.3438,123.5 426.9688,122.9219 L426.9688,125.6406 Z "/><text fill="#000000" font-family="sans-serif" font-size="12" lengthAdjust="spacingAndGlyphs" textLength="68" x="438" y="124.1543">XException</text><line style="stroke: #A80036; stroke-width: 1.5;" x1="410" x2="508" y1="136" y2="136"/><line style="stroke: #A80036; stroke-width: 1.5;" x1="410" x2="508" y1="144" y2="144"/><path d="M138.94,451.63 C134.723,477.26 130.309,504.094 126.555,526.916 " fill="none" style="stroke: #A80036; stroke-width: 1.0;"/><polygon fill="#A80036" points="124.427,539.851,129.3478,534.5798,126.3748,528.0101,121.4539,533.2813,124.427,539.851" style="stroke: #A80036; stroke-width: 1.0;"/><path d="M346.817,369.157 C333.774,407.294 299.438,507.693 282.595,556.944 " fill="none" style="stroke: #A80036; stroke-width: 1.0;"/><polygon fill="#A80036" points="280.923,561.833,287.6207,554.6122,282.5414,557.1022,280.0514,552.0228,280.923,561.833" style="stroke: #A80036; stroke-width: 1.0;"/><text fill="#000000" font-family="sans-serif" font-size="13" lengthAdjust="spacingAndGlyphs" textLength="42" x="308" y="495.0669">throws</text><path d="M339.48,586 C355.765,586 372.05,586 388.334,586 " fill="none" style="stroke: #A80036; stroke-width: 1.0;"/><polygon fill="none" points="388.578,579,408.578,586,388.578,593,388.578,579" style="stroke: #A80036; stroke-width: 1.0;"/><path d="M336.448,128 C357.975,128 382.373,128 403.701,128 " fill="none" style="stroke: #A80036; stroke-width: 1.0;"/><polygon fill="#A80036" points="408.768,128,399.768,124,403.768,128,399.768,132,408.768,128" style="stroke: #A80036; stroke-width: 1.0;"/><text fill="#000000" font-family="sans-serif" font-size="13" lengthAdjust="spacingAndGlyphs" textLength="35" x="354.5" y="120.0669">throw</text><path d="M266.197,152.025 C253.175,175.444 232.072,213.395 211.731,249.976 " fill="none" style="stroke: #A80036; stroke-width: 1.0;"/><polygon fill="#A80036" points="209.254,254.43,217.1237,248.5082,211.6839,250.0602,210.132,244.6204,209.254,254.43" style="stroke: #A80036; stroke-width: 1.0;"/><text fill="#000000" font-family="sans-serif" font-size="13" lengthAdjust="spacingAndGlyphs" textLength="30" x="247" y="197.0669">uses</text><path d="M286.537,152.025 C300.89,195.868 331.916,290.648 345.457,332.012 " fill="none" style="stroke: #A80036; stroke-width: 1.0;"/><polygon fill="#A80036" points="347.019,336.785,348.0208,326.9872,345.4636,332.0331,340.4177,329.4759,347.019,336.785" style="stroke: #A80036; stroke-width: 1.0;"/><text fill="#000000" font-family="sans-serif" font-size="13" lengthAdjust="spacingAndGlyphs" textLength="135" x="303" y="197.0669">uses on debug mode</text><path d="M459,152.24 C459,217.339 459,403.62 459,509.342 " fill="none" style="stroke: #A80036; stroke-width: 1.0;"/><polygon fill="none" points="466,509.666,459,529.666,452,509.666,466,509.666" style="stroke: #A80036; stroke-width: 1.0;"/></g></svg>