<?xml version="1.0" encoding="UTF-8" standalone="yes"?><svg xmlns="http://www.w3.org/2000/svg" xmlns:xlink="http://www.w3.org/1999/xlink" height="619px" style="width:602px;height:619px;" version="1.1" viewBox="0 0 602 619" width="602px"><defs><filter height="300%" id="f1" width="300%" x="-1" y="-1"><feGaussianBlur result="blurOut" stdDeviation="2.0"/><feColorMatrix in="blurOut" result="blurOut2" type="matrix" values="0 0 0 0 0 0 0 0 0 0 0 0 0 0 0 0 0 0 .4 0"/><feOffset dx="4.0" dy="4.0" in="blurOut2" result="blurOut3"/><feBlend in="SourceGraphic" in2="blurOut3" mode="normal"/></filter></defs><g><polygon fill="#FFFFFF" filter="url(#f1)" points="22,24,59,24,66,46.2969,595,46.2969,595,612,22,612,22,24" style="stroke: #000000; stroke-width: 2.0;"/><line style="stroke: #000000; stroke-width: 2.0;" x1="22" x2="66" y1="46.2969" y2="46.2969"/><text fill="#000000" font-family="sans-serif" font-size="14" font-weight="bold" lengthAdjust="spacingAndGlyphs" textLength="31" x="26" y="38.9951">slim</text><polygon fill="#FFFFFF" filter="url(#f1)" points="46,218,102,218,109,240.2969,571,240.2969,571,588,46,588,46,218" style="stroke: #000000; stroke-width: 2.0;"/><line style="stroke: #000000; stroke-width: 2.0;" x1="46" x2="109" y1="240.2969" y2="240.2969"/><text fill="#000000" font-family="sans-serif" font-size="14" font-weight="bold" lengthAdjust="spacingAndGlyphs" textLength="50" x="50" y="232.9951">debug</text><polygon fill="#FFFFFF" filter="url(#f1)" points="239,68,420,68,427,90.2969,571,90.2969,571,168,239,168,239,68" style="stroke: #000000; stroke-width: 2.0;"/><line style="stroke: #000000; stroke-width: 2.0;" x1="239" x2="427" y1="90.2969" y2="90.2969"/><text fill="#000000" font-family="sans-serif" font-size="14" font-weight="bold" lengthAdjust="spacingAndGlyphs" textLength="175" x="243" y="82.9951">any_other_namespace</text><rect fill="#FEFECE" filter="url(#f1)" height="163.2422" style="stroke: #A80036; stroke-width: 1.5;" width="187" x="61.75" y="254.5"/><ellipse cx="140" cy="270.5" fill="#ADD1B2" rx="11" ry="11" style="stroke: #A80036; stroke-width: 1.0;"/><path d="M142.9688,276.1406 Q142.3906,276.4375 141.75,276.5859 Q141.1094,276.7344 140.4063,276.7344 Q137.9063,276.7344 136.5859,275.0859 Q135.2656,273.4375 135.2656,270.3125 Q135.2656,267.1875 136.5859,265.5313 Q137.9063,263.875 140.4063,263.875 Q141.1094,263.875 141.7578,264.0313 Q142.4063,264.1875 142.9688,264.4844 L142.9688,267.2031 Q142.3438,266.625 141.75,266.3516 Q141.1563,266.0781 140.5313,266.0781 Q139.1875,266.0781 138.5,267.1484 Q137.8125,268.2188 137.8125,270.3125 Q137.8125,272.4063 138.5,273.4766 Q139.1875,274.5469 140.5313,274.5469 Q141.1563,274.5469 141.75,274.2734 Q142.3438,274 142.9688,273.4219 L142.9688,276.1406 Z "/><text fill="#000000" font-family="sans-serif" font-size="12" lengthAdjust="spacingAndGlyphs" textLength="22" x="160.5" y="274.6543">Log</text><line style="stroke: #A80036; stroke-width: 1.5;" x1="62.75" x2="247.75" y1="286.5" y2="286.5"/><text fill="#000000" font-family="sans-serif" font-size="11" lengthAdjust="spacingAndGlyphs" textLength="67" x="67.75" y="300.7104">char* name</text><text fill="#000000" font-family="sans-serif" font-size="11" lengthAdjust="spacingAndGlyphs" textLength="144" x="67.75" y="313.5151">char  consoleOutputLevel</text><text fill="#000000" font-family="sans-serif" font-size="11" lengthAdjust="spacingAndGlyphs" textLength="117" x="67.75" y="326.3198">char  fileOutputLevel</text><line style="stroke: #A80036; stroke-width: 1.5;" x1="62.75" x2="247.75" y1="332.9141" y2="332.9141"/><text fill="#000000" font-family="sans-serif" font-size="11" lengthAdjust="spacingAndGlyphs" textLength="175" x="67.75" y="347.1245">void setOutputLevel(char level)</text><text fill="#000000" font-family="sans-serif" font-size="11" lengthAdjust="spacingAndGlyphs" textLength="156" x="67.75" y="359.9292">void setFileLevel(char level)</text><text fill="#000000" font-family="sans-serif" font-size="11" lengthAdjust="spacingAndGlyphs" textLength="133" x="67.75" y="372.7339">void writeLog(template)</text><text fill="#000000" font-family="sans-serif" font-size="11" lengthAdjust="spacingAndGlyphs" textLength="134" x="67.75" y="385.5386">void writeInfo(template)</text><text fill="#000000" font-family="sans-serif" font-size="11" lengthAdjust="spacingAndGlyphs" textLength="158" x="67.75" y="398.3433">void writeWarning(template)</text><text fill="#000000" font-family="sans-serif" font-size="11" lengthAdjust="spacingAndGlyphs" textLength="142" x="67.75" y="411.1479">void writeError(template)</text><rect fill="#FEFECE" filter="url(#f1)" height="92.3516" style="stroke: #A80036; stroke-width: 1.5;" width="109" x="100.75" y="480"/><ellipse cx="115.75" cy="498.9688" fill="#ADD1B2" rx="11" ry="11" style="stroke: #A80036; stroke-width: 1.0;"/><path d="M118.7188,504.6094 Q118.1406,504.9063 117.5,505.0547 Q116.8594,505.2031 116.1563,505.2031 Q113.6563,505.2031 112.3359,503.5547 Q111.0156,501.9063 111.0156,498.7813 Q111.0156,495.6563 112.3359,494 Q113.6563,492.3438 116.1563,492.3438 Q116.8594,492.3438 117.5078,492.5 Q118.1563,492.6563 118.7188,492.9531 L118.7188,495.6719 Q118.0938,495.0938 117.5,494.8203 Q116.9063,494.5469 116.2813,494.5469 Q114.9375,494.5469 114.25,495.6172 Q113.5625,496.6875 113.5625,498.7813 Q113.5625,500.875 114.25,501.9453 Q114.9375,503.0156 116.2813,503.0156 Q116.9063,503.0156 117.5,502.7422 Q118.0938,502.4688 118.7188,501.8906 L118.7188,504.6094 Z "/><text fill="#000000" font-family="sans-serif" font-size="12" font-style="italic" lengthAdjust="spacingAndGlyphs" textLength="73" x="131.75" y="496.1387">«Singleton»</text><text fill="#000000" font-family="sans-serif" font-size="12" lengthAdjust="spacingAndGlyphs" textLength="77" x="129.75" y="510.1074">LogManager</text><line style="stroke: #A80036; stroke-width: 1.5;" x1="101.75" x2="208.75" y1="517.9375" y2="517.9375"/><text fill="#000000" font-family="sans-serif" font-size="11" lengthAdjust="spacingAndGlyphs" textLength="56" x="106.75" y="532.1479">Log[] logs</text><line style="stroke: #A80036; stroke-width: 1.5;" x1="101.75" x2="208.75" y1="538.7422" y2="538.7422"/><text fill="#000000" font-family="sans-serif" font-size="11" lengthAdjust="spacingAndGlyphs" textLength="52" x="106.75" y="552.9526">void init()</text><text fill="#000000" font-family="sans-serif" font-size="11" lengthAdjust="spacingAndGlyphs" textLength="78" x="106.75" y="565.7573">void destroy()</text><rect fill="#FEFECE" filter="url(#f1)" height="112.0234" style="stroke: #A80036; stroke-width: 1.5;" width="100" x="455" y="280"/><ellipse cx="473.15" cy="296" fill="#ADD1B2" rx="11" ry="11" style="stroke: #A80036; stroke-width: 1.0;"/><path d="M476.1188,301.6406 Q475.5406,301.9375 474.9,302.0859 Q474.2594,302.2344 473.5563,302.2344 Q471.0563,302.2344 469.7359,300.5859 Q468.4156,298.9375 468.4156,295.8125 Q468.4156,292.6875 469.7359,291.0313 Q471.0563,289.375 473.5563,289.375 Q474.2594,289.375 474.9078,289.5313 Q475.5563,289.6875 476.1188,289.9844 L476.1188,292.7031 Q475.4938,292.125 474.9,291.8516 Q474.3063,291.5781 473.6813,291.5781 Q472.3375,291.5781 471.65,292.6484 Q470.9625,293.7188 470.9625,295.8125 Q470.9625,297.9063 471.65,298.9766 Q472.3375,300.0469 473.6813,300.0469 Q474.3063,300.0469 474.9,299.7734 Q475.4938,299.5 476.1188,298.9219 L476.1188,301.6406 Z "/><text fill="#000000" font-family="sans-serif" font-size="12" lengthAdjust="spacingAndGlyphs" textLength="61" x="487.85" y="300.1543">Exception</text><line style="stroke: #A80036; stroke-width: 1.5;" x1="456" x2="554" y1="312" y2="312"/><text fill="#000000" font-family="sans-serif" font-size="11" lengthAdjust="spacingAndGlyphs" textLength="88" x="461" y="326.2104">char* message</text><text fill="#000000" font-family="sans-serif" font-size="11" lengthAdjust="spacingAndGlyphs" textLength="52" x="461" y="339.0151">char* file</text><text fill="#000000" font-family="sans-serif" font-size="11" lengthAdjust="spacingAndGlyphs" textLength="80" x="461" y="351.8198">char* function</text><text fill="#000000" font-family="sans-serif" font-size="11" lengthAdjust="spacingAndGlyphs" textLength="46" x="461" y="364.6245">int   line</text><line style="stroke: #A80036; stroke-width: 1.5;" x1="456" x2="554" y1="371.2188" y2="371.2188"/><text fill="#000000" font-family="sans-serif" font-size="11" lengthAdjust="spacingAndGlyphs" textLength="70" x="461" y="385.4292">char* what()</text><rect fill="#FEFECE" filter="url(#f1)" height="32" style="stroke: #A80036; stroke-width: 1.5;" width="136" x="284" y="320"/><ellipse cx="299" cy="336" fill="#FF7700" rx="11" ry="11" style="stroke: #A80036; stroke-width: 1.0;"/><path d="M294.7188,329.6094 L297.6406,329.6094 L299.1094,335.0469 L300.5781,329.6094 L303.5156,329.6094 L303.5156,342 L301.4063,342 L301.4063,332.0781 L300.0938,337.5 L298.1563,337.5 L296.8281,332.0781 L296.8281,342 L294.7188,342 L294.7188,329.6094 Z "/><text fill="#000000" font-family="sans-serif" font-size="12" lengthAdjust="spacingAndGlyphs" textLength="104" x="313" y="340.1543">AssertionMaccro</text><rect fill="#FEFECE" filter="url(#f1)" height="48" style="stroke: #A80036; stroke-width: 1.5;" width="114" x="255" y="104"/><ellipse cx="270" cy="120" fill="#ADD1B2" rx="11" ry="11" style="stroke: #A80036; stroke-width: 1.0;"/><path d="M272.9688,125.6406 Q272.3906,125.9375 271.75,126.0859 Q271.1094,126.2344 270.4063,126.2344 Q267.9063,126.2344 266.5859,124.5859 Q265.2656,122.9375 265.2656,119.8125 Q265.2656,116.6875 266.5859,115.0313 Q267.9063,113.375 270.4063,113.375 Q271.1094,113.375 271.7578,113.5313 Q272.4063,113.6875 272.9688,113.9844 L272.9688,116.7031 Q272.3438,116.125 271.75,115.8516 Q271.1563,115.5781 270.5313,115.5781 Q269.1875,115.5781 268.5,116.6484 Q267.8125,117.7188 267.8125,119.8125 Q267.8125,121.9063 268.5,122.9766 Q269.1875,124.0469 270.5313,124.0469 Q271.1563,124.0469 271.75,123.7734 Q272.3438,123.5 272.9688,122.9219 L272.9688,125.6406 Z "/><text fill="#000000" font-family="sans-serif" font-size="12" lengthAdjust="spacingAndGlyphs" textLength="82" x="284" y="124.1543">LambdaClass</text><line style="stroke: #A80036; stroke-width: 1.5;" x1="256" x2="368" y1="136" y2="136"/><line style="stroke: #A80036; stroke-width: 1.5;" x1="256" x2="368" y1="144" y2="144"/><rect fill="#FEFECE" filter="url(#f1)" height="48" style="stroke: #A80036; stroke-width: 1.5;" width="100" x="455" y="104"/><ellipse cx="470" cy="120" fill="#ADD1B2" rx="11" ry="11" style="stroke: #A80036; stroke-width: 1.0;"/><path d="M472.9688,125.6406 Q472.3906,125.9375 471.75,126.0859 Q471.1094,126.2344 470.4063,126.2344 Q467.9063,126.2344 466.5859,124.5859 Q465.2656,122.9375 465.2656,119.8125 Q465.2656,116.6875 466.5859,115.0313 Q467.9063,113.375 470.4063,113.375 Q471.1094,113.375 471.7578,113.5313 Q472.4063,113.6875 472.9688,113.9844 L472.9688,116.7031 Q472.3438,116.125 471.75,115.8516 Q471.1563,115.5781 470.5313,115.5781 Q469.1875,115.5781 468.5,116.6484 Q467.8125,117.7188 467.8125,119.8125 Q467.8125,121.9063 468.5,122.9766 Q469.1875,124.0469 470.5313,124.0469 Q471.1563,124.0469 471.75,123.7734 Q472.3438,123.5 472.9688,122.9219 L472.9688,125.6406 Z "/><text fill="#000000" font-family="sans-serif" font-size="12" lengthAdjust="spacingAndGlyphs" textLength="68" x="484" y="124.1543">XException</text><line style="stroke: #A80036; stroke-width: 1.5;" x1="456" x2="554" y1="136" y2="136"/><line style="stroke: #A80036; stroke-width: 1.5;" x1="456" x2="554" y1="144" y2="144"/><path d="M155,417.547 C155,434.042 155,451.102 155,466.638 " fill="none" style="stroke: #A80036; stroke-width: 1.0;"/><polygon fill="#A80036" points="155,479.845,159,473.845,155,467.845,151,473.845,155,479.845" style="stroke: #A80036; stroke-width: 1.0;"/><path d="M369.123,128 C394.547,128 424.373,128 449.594,128 " fill="none" style="stroke: #A80036; stroke-width: 1.0;"/><polygon fill="#A80036" points="454.903,128,445.903,124,449.903,128,445.903,132,454.903,128" style="stroke: #A80036; stroke-width: 1.0;"/><text fill="#000000" font-family="sans-serif" font-size="13" lengthAdjust="spacingAndGlyphs" textLength="35" x="387.5" y="120.0669">throw</text><polygon fill="#000000" points="425.5,114.0664,431.5,117.0664,425.5,120.0664,425.5,114.0664" style="stroke: #000000; stroke-width: 1.0;"/><path d="M294.295,152.23 C276.186,175.992 246.954,214.347 219.933,249.801 " fill="none" style="stroke: #A80036; stroke-width: 1.0;"/><polygon fill="#A80036" points="216.65,254.109,225.287,249.376,219.681,250.1324,218.9245,244.5264,216.65,254.109" style="stroke: #A80036; stroke-width: 1.0;"/><text fill="#000000" font-family="sans-serif" font-size="13" lengthAdjust="spacingAndGlyphs" textLength="23" x="271" y="197.0669">use</text><path d="M316.511,152.23 C324.398,192.848 340.565,276.109 348.044,314.625 " fill="none" style="stroke: #A80036; stroke-width: 1.0;"/><polygon fill="#A80036" points="349.082,319.973,351.2936,310.3757,348.1292,315.0646,343.4402,311.9002,349.082,319.973" style="stroke: #A80036; stroke-width: 1.0;"/><text fill="#000000" font-family="sans-serif" font-size="13" lengthAdjust="spacingAndGlyphs" textLength="128" x="327" y="197.0669">use on debug mode</text><path d="M505,152.23 C505,178.215 505,221.651 505,259.66 " fill="none" style="stroke: #A80036; stroke-width: 1.0;"/><polygon fill="none" points="512,259.783,505,279.783,498,259.783,512,259.783" style="stroke: #A80036; stroke-width: 1.0;"/></g></svg>