<?xml version="1.0" encoding="UTF-8" standalone="yes"?><svg xmlns="http://www.w3.org/2000/svg" xmlns:xlink="http://www.w3.org/1999/xlink" height="843px" style="width:592px;height:843px;" version="1.1" viewBox="0 0 592 843" width="592px"><defs><filter height="300%" id="f1" width="300%" x="-1" y="-1"><feGaussianBlur result="blurOut" stdDeviation="2.0"/><feColorMatrix in="blurOut" result="blurOut2" type="matrix" values="0 0 0 0 0 0 0 0 0 0 0 0 0 0 0 0 0 0 .4 0"/><feOffset dx="4.0" dy="4.0" in="blurOut2" result="blurOut3"/><feBlend in="SourceGraphic" in2="blurOut3" mode="normal"/></filter></defs><g><polygon fill="#FFFFFF" filter="url(#f1)" points="22,24,59,24,66,46.2969,565,46.2969,565,836,22,836,22,24" style="stroke: #000000; stroke-width: 2.0;"/><line style="stroke: #000000; stroke-width: 2.0;" x1="22" x2="66" y1="46.2969" y2="46.2969"/><text fill="#000000" font-family="sans-serif" font-size="14" font-weight="bold" lengthAdjust="spacingAndGlyphs" textLength="31" x="26" y="38.9951">slim</text><polygon fill="#FFFFFF" filter="url(#f1)" points="48,218,104,218,111,240.2969,528,240.2969,528,812,48,812,48,218" style="stroke: #000000; stroke-width: 2.0;"/><line style="stroke: #000000; stroke-width: 2.0;" x1="48" x2="111" y1="240.2969" y2="240.2969"/><text fill="#000000" font-family="sans-serif" font-size="14" font-weight="bold" lengthAdjust="spacingAndGlyphs" textLength="50" x="52" y="232.9951">debug</text><polygon fill="#FFFFFF" filter="url(#f1)" points="204,68,385,68,392,90.2969,530,90.2969,530,168,204,168,204,68" style="stroke: #000000; stroke-width: 2.0;"/><line style="stroke: #000000; stroke-width: 2.0;" x1="204" x2="392" y1="90.2969" y2="90.2969"/><text fill="#000000" font-family="sans-serif" font-size="14" font-weight="bold" lengthAdjust="spacingAndGlyphs" textLength="175" x="208" y="82.9951">any_other_namespace</text><rect fill="#FEFECE" filter="url(#f1)" height="196.8516" style="stroke: #A80036; stroke-width: 1.5;" width="187" x="153.75" y="254.5"/><ellipse cx="232" cy="270.5" fill="#ADD1B2" rx="11" ry="11" style="stroke: #A80036; stroke-width: 1.0;"/><path d="M234.9688,276.1406 Q234.3906,276.4375 233.75,276.5859 Q233.1094,276.7344 232.4063,276.7344 Q229.9063,276.7344 228.5859,275.0859 Q227.2656,273.4375 227.2656,270.3125 Q227.2656,267.1875 228.5859,265.5313 Q229.9063,263.875 232.4063,263.875 Q233.1094,263.875 233.7578,264.0313 Q234.4063,264.1875 234.9688,264.4844 L234.9688,267.2031 Q234.3438,266.625 233.75,266.3516 Q233.1563,266.0781 232.5313,266.0781 Q231.1875,266.0781 230.5,267.1484 Q229.8125,268.2188 229.8125,270.3125 Q229.8125,272.4063 230.5,273.4766 Q231.1875,274.5469 232.5313,274.5469 Q233.1563,274.5469 233.75,274.2734 Q234.3438,274 234.9688,273.4219 L234.9688,276.1406 Z "/><text fill="#000000" font-family="sans-serif" font-size="12" lengthAdjust="spacingAndGlyphs" textLength="22" x="252.5" y="274.6543">Log</text><line style="stroke: #A80036; stroke-width: 1.5;" x1="154.75" x2="339.75" y1="286.5" y2="286.5"/><text fill="#000000" font-family="sans-serif" font-size="11" lengthAdjust="spacingAndGlyphs" textLength="67" x="159.75" y="300.7104">char* name</text><text fill="#000000" font-family="sans-serif" font-size="11" lengthAdjust="spacingAndGlyphs" textLength="144" x="159.75" y="313.5151">char  consoleOutputLevel</text><text fill="#000000" font-family="sans-serif" font-size="11" lengthAdjust="spacingAndGlyphs" textLength="117" x="159.75" y="326.3198">char  fileOutputLevel</text><line style="stroke: #A80036; stroke-width: 1.0;" x1="154.75" x2="339.75" y1="332.9141" y2="332.9141"/><text fill="#000000" font-family="sans-serif" font-size="11" lengthAdjust="spacingAndGlyphs" textLength="52" x="159.75" y="347.1245">void init()</text><text fill="#000000" font-family="sans-serif" font-size="11" lengthAdjust="spacingAndGlyphs" textLength="78" x="159.75" y="359.9292">void destroy()</text><line style="stroke: #A80036; stroke-width: 1.0;" x1="154.75" x2="339.75" y1="366.5234" y2="366.5234"/><text fill="#000000" font-family="sans-serif" font-size="11" lengthAdjust="spacingAndGlyphs" textLength="175" x="159.75" y="380.7339">void setOutputLevel(char level)</text><text fill="#000000" font-family="sans-serif" font-size="11" lengthAdjust="spacingAndGlyphs" textLength="156" x="159.75" y="393.5386">void setFileLevel(char level)</text><text fill="#000000" font-family="sans-serif" font-size="11" lengthAdjust="spacingAndGlyphs" textLength="133" x="159.75" y="406.3433">void writeLog(template)</text><text fill="#000000" font-family="sans-serif" font-size="11" lengthAdjust="spacingAndGlyphs" textLength="134" x="159.75" y="419.1479">void writeInfo(template)</text><text fill="#000000" font-family="sans-serif" font-size="11" lengthAdjust="spacingAndGlyphs" textLength="158" x="159.75" y="431.9526">void writeWarning(template)</text><text fill="#000000" font-family="sans-serif" font-size="11" lengthAdjust="spacingAndGlyphs" textLength="142" x="159.75" y="444.7573">void writeError(template)</text><rect fill="#FEFECE" filter="url(#f1)" height="92.3516" style="stroke: #A80036; stroke-width: 1.5;" width="109" x="234.75" y="530"/><ellipse cx="249.75" cy="548.9688" fill="#ADD1B2" rx="11" ry="11" style="stroke: #A80036; stroke-width: 1.0;"/><path d="M252.7188,554.6094 Q252.1406,554.9063 251.5,555.0547 Q250.8594,555.2031 250.1563,555.2031 Q247.6563,555.2031 246.3359,553.5547 Q245.0156,551.9063 245.0156,548.7813 Q245.0156,545.6563 246.3359,544 Q247.6563,542.3438 250.1563,542.3438 Q250.8594,542.3438 251.5078,542.5 Q252.1563,542.6563 252.7188,542.9531 L252.7188,545.6719 Q252.0938,545.0938 251.5,544.8203 Q250.9063,544.5469 250.2813,544.5469 Q248.9375,544.5469 248.25,545.6172 Q247.5625,546.6875 247.5625,548.7813 Q247.5625,550.875 248.25,551.9453 Q248.9375,553.0156 250.2813,553.0156 Q250.9063,553.0156 251.5,552.7422 Q252.0938,552.4688 252.7188,551.8906 L252.7188,554.6094 Z "/><text fill="#000000" font-family="sans-serif" font-size="12" font-style="italic" lengthAdjust="spacingAndGlyphs" textLength="73" x="265.75" y="546.1387">«Singleton»</text><text fill="#000000" font-family="sans-serif" font-size="12" lengthAdjust="spacingAndGlyphs" textLength="77" x="263.75" y="560.1074">LogManager</text><line style="stroke: #A80036; stroke-width: 1.5;" x1="235.75" x2="342.75" y1="567.9375" y2="567.9375"/><text fill="#000000" font-family="sans-serif" font-size="11" lengthAdjust="spacingAndGlyphs" textLength="56" x="240.75" y="582.1479">Log[] logs</text><line style="stroke: #A80036; stroke-width: 1.5;" x1="235.75" x2="342.75" y1="588.7422" y2="588.7422"/><text fill="#000000" font-family="sans-serif" font-size="11" lengthAdjust="spacingAndGlyphs" textLength="52" x="240.75" y="602.9526">void init()</text><text fill="#000000" font-family="sans-serif" font-size="11" lengthAdjust="spacingAndGlyphs" textLength="78" x="240.75" y="615.7573">void destroy()</text><rect fill="#FEFECE" filter="url(#f1)" height="112.0234" style="stroke: #A80036; stroke-width: 1.5;" width="100" x="395" y="684"/><ellipse cx="413.15" cy="700" fill="#ADD1B2" rx="11" ry="11" style="stroke: #A80036; stroke-width: 1.0;"/><path d="M416.1188,705.6406 Q415.5406,705.9375 414.9,706.0859 Q414.2594,706.2344 413.5563,706.2344 Q411.0563,706.2344 409.7359,704.5859 Q408.4156,702.9375 408.4156,699.8125 Q408.4156,696.6875 409.7359,695.0313 Q411.0563,693.375 413.5563,693.375 Q414.2594,693.375 414.9078,693.5313 Q415.5563,693.6875 416.1188,693.9844 L416.1188,696.7031 Q415.4938,696.125 414.9,695.8516 Q414.3063,695.5781 413.6813,695.5781 Q412.3375,695.5781 411.65,696.6484 Q410.9625,697.7188 410.9625,699.8125 Q410.9625,701.9063 411.65,702.9766 Q412.3375,704.0469 413.6813,704.0469 Q414.3063,704.0469 414.9,703.7734 Q415.4938,703.5 416.1188,702.9219 L416.1188,705.6406 Z "/><text fill="#000000" font-family="sans-serif" font-size="12" lengthAdjust="spacingAndGlyphs" textLength="61" x="427.85" y="704.1543">Exception</text><line style="stroke: #A80036; stroke-width: 1.5;" x1="396" x2="494" y1="716" y2="716"/><text fill="#000000" font-family="sans-serif" font-size="11" lengthAdjust="spacingAndGlyphs" textLength="88" x="401" y="730.2104">char* message</text><text fill="#000000" font-family="sans-serif" font-size="11" lengthAdjust="spacingAndGlyphs" textLength="52" x="401" y="743.0151">char* file</text><text fill="#000000" font-family="sans-serif" font-size="11" lengthAdjust="spacingAndGlyphs" textLength="80" x="401" y="755.8198">char* function</text><text fill="#000000" font-family="sans-serif" font-size="11" lengthAdjust="spacingAndGlyphs" textLength="46" x="401" y="768.6245">int   line</text><line style="stroke: #A80036; stroke-width: 1.5;" x1="396" x2="494" y1="775.2188" y2="775.2188"/><text fill="#000000" font-family="sans-serif" font-size="11" lengthAdjust="spacingAndGlyphs" textLength="70" x="401" y="789.4292">char* what()</text><rect fill="#FEFECE" filter="url(#f1)" height="48" style="stroke: #A80036; stroke-width: 1.5;" width="135" x="64.75" y="552"/><ellipse cx="79.75" cy="568" fill="#ADD1B2" rx="11" ry="11" style="stroke: #A80036; stroke-width: 1.0;"/><path d="M82.7188,573.6406 Q82.1406,573.9375 81.5,574.0859 Q80.8594,574.2344 80.1563,574.2344 Q77.6563,574.2344 76.3359,572.5859 Q75.0156,570.9375 75.0156,567.8125 Q75.0156,564.6875 76.3359,563.0313 Q77.6563,561.375 80.1563,561.375 Q80.8594,561.375 81.5078,561.5313 Q82.1563,561.6875 82.7188,561.9844 L82.7188,564.7031 Q82.0938,564.125 81.5,563.8516 Q80.9063,563.5781 80.2813,563.5781 Q78.9375,563.5781 78.25,564.6484 Q77.5625,565.7188 77.5625,567.8125 Q77.5625,569.9063 78.25,570.9766 Q78.9375,572.0469 80.2813,572.0469 Q80.9063,572.0469 81.5,571.7734 Q82.0938,571.5 82.7188,570.9219 L82.7188,573.6406 Z "/><text fill="#000000" font-family="sans-serif" font-size="12" lengthAdjust="spacingAndGlyphs" textLength="103" x="93.75" y="572.1543">SyscallException</text><line style="stroke: #A80036; stroke-width: 1.5;" x1="65.75" x2="198.75" y1="584" y2="584"/><line style="stroke: #A80036; stroke-width: 1.5;" x1="65.75" x2="198.75" y1="592" y2="592"/><rect fill="#FEFECE" filter="url(#f1)" height="48" style="stroke: #A80036; stroke-width: 1.5;" width="133" x="378.75" y="552"/><ellipse cx="393.75" cy="568" fill="#ADD1B2" rx="11" ry="11" style="stroke: #A80036; stroke-width: 1.0;"/><path d="M396.7188,573.6406 Q396.1406,573.9375 395.5,574.0859 Q394.8594,574.2344 394.1563,574.2344 Q391.6563,574.2344 390.3359,572.5859 Q389.0156,570.9375 389.0156,567.8125 Q389.0156,564.6875 390.3359,563.0313 Q391.6563,561.375 394.1563,561.375 Q394.8594,561.375 395.5078,561.5313 Q396.1563,561.6875 396.7188,561.9844 L396.7188,564.7031 Q396.0938,564.125 395.5,563.8516 Q394.9063,563.5781 394.2813,563.5781 Q392.9375,563.5781 392.25,564.6484 Q391.5625,565.7188 391.5625,567.8125 Q391.5625,569.9063 392.25,570.9766 Q392.9375,572.0469 394.2813,572.0469 Q394.9063,572.0469 395.5,571.7734 Q396.0938,571.5 396.7188,570.9219 L396.7188,573.6406 Z "/><text fill="#000000" font-family="sans-serif" font-size="12" lengthAdjust="spacingAndGlyphs" textLength="101" x="407.75" y="572.1543">AssertException</text><line style="stroke: #A80036; stroke-width: 1.5;" x1="379.75" x2="510.75" y1="584" y2="584"/><line style="stroke: #A80036; stroke-width: 1.5;" x1="379.75" x2="510.75" y1="592" y2="592"/><rect fill="#FEFECE" filter="url(#f1)" height="32" style="stroke: #A80036; stroke-width: 1.5;" width="136" x="376" y="337"/><ellipse cx="391" cy="353" fill="#FF7700" rx="11" ry="11" style="stroke: #A80036; stroke-width: 1.0;"/><path d="M386.7188,346.6094 L389.6406,346.6094 L391.1094,352.0469 L392.5781,346.6094 L395.5156,346.6094 L395.5156,359 L393.4063,359 L393.4063,349.0781 L392.0938,354.5 L390.1563,354.5 L388.8281,349.0781 L388.8281,359 L386.7188,359 L386.7188,346.6094 Z "/><text fill="#000000" font-family="sans-serif" font-size="12" lengthAdjust="spacingAndGlyphs" textLength="104" x="405" y="357.1543">AssertionMaccro</text><rect fill="#FEFECE" filter="url(#f1)" height="48" style="stroke: #A80036; stroke-width: 1.5;" width="114" x="220" y="104"/><ellipse cx="235" cy="120" fill="#ADD1B2" rx="11" ry="11" style="stroke: #A80036; stroke-width: 1.0;"/><path d="M237.9688,125.6406 Q237.3906,125.9375 236.75,126.0859 Q236.1094,126.2344 235.4063,126.2344 Q232.9063,126.2344 231.5859,124.5859 Q230.2656,122.9375 230.2656,119.8125 Q230.2656,116.6875 231.5859,115.0313 Q232.9063,113.375 235.4063,113.375 Q236.1094,113.375 236.7578,113.5313 Q237.4063,113.6875 237.9688,113.9844 L237.9688,116.7031 Q237.3438,116.125 236.75,115.8516 Q236.1563,115.5781 235.5313,115.5781 Q234.1875,115.5781 233.5,116.6484 Q232.8125,117.7188 232.8125,119.8125 Q232.8125,121.9063 233.5,122.9766 Q234.1875,124.0469 235.5313,124.0469 Q236.1563,124.0469 236.75,123.7734 Q237.3438,123.5 237.9688,122.9219 L237.9688,125.6406 Z "/><text fill="#000000" font-family="sans-serif" font-size="12" lengthAdjust="spacingAndGlyphs" textLength="82" x="249" y="124.1543">LambdaClass</text><line style="stroke: #A80036; stroke-width: 1.5;" x1="221" x2="333" y1="136" y2="136"/><line style="stroke: #A80036; stroke-width: 1.5;" x1="221" x2="333" y1="144" y2="144"/><rect fill="#FEFECE" filter="url(#f1)" height="48" style="stroke: #A80036; stroke-width: 1.5;" width="100" x="414" y="104"/><ellipse cx="429" cy="120" fill="#ADD1B2" rx="11" ry="11" style="stroke: #A80036; stroke-width: 1.0;"/><path d="M431.9688,125.6406 Q431.3906,125.9375 430.75,126.0859 Q430.1094,126.2344 429.4063,126.2344 Q426.9063,126.2344 425.5859,124.5859 Q424.2656,122.9375 424.2656,119.8125 Q424.2656,116.6875 425.5859,115.0313 Q426.9063,113.375 429.4063,113.375 Q430.1094,113.375 430.7578,113.5313 Q431.4063,113.6875 431.9688,113.9844 L431.9688,116.7031 Q431.3438,116.125 430.75,115.8516 Q430.1563,115.5781 429.5313,115.5781 Q428.1875,115.5781 427.5,116.6484 Q426.8125,117.7188 426.8125,119.8125 Q426.8125,121.9063 427.5,122.9766 Q428.1875,124.0469 429.5313,124.0469 Q430.1563,124.0469 430.75,123.7734 Q431.3438,123.5 431.9688,122.9219 L431.9688,125.6406 Z "/><text fill="#000000" font-family="sans-serif" font-size="12" lengthAdjust="spacingAndGlyphs" textLength="68" x="443" y="124.1543">XException</text><line style="stroke: #A80036; stroke-width: 1.5;" x1="415" x2="513" y1="136" y2="136"/><line style="stroke: #A80036; stroke-width: 1.5;" x1="415" x2="513" y1="144" y2="144"/><path d="M265.544,451.577 C269.778,473.856 274.147,496.845 277.95,516.855 " fill="none" style="stroke: #A80036; stroke-width: 1.0;"/><polygon fill="#A80036" points="280.422,529.861,283.2314,523.2197,278.1816,518.072,275.3721,524.7133,280.422,529.861" style="stroke: #A80036; stroke-width: 1.0;"/><path d="M444.069,369.19 C444.234,405.812 444.658,499.429 444.872,546.734 " fill="none" style="stroke: #A80036; stroke-width: 1.0;"/><polygon fill="#A80036" points="444.896,551.991,448.8548,542.9728,444.8731,546.9911,440.8549,543.0094,444.896,551.991" style="stroke: #A80036; stroke-width: 1.0;"/><text fill="#000000" font-family="sans-serif" font-size="13" lengthAdjust="spacingAndGlyphs" textLength="42" x="445" y="495.0669">throws</text><path d="M445,600.211 C445,616.907 445,640.44 445,663.392 " fill="none" style="stroke: #A80036; stroke-width: 1.0;"/><polygon fill="none" points="452,663.659,445,683.659,438,663.659,452,663.659" style="stroke: #A80036; stroke-width: 1.0;"/><path d="M175.622,600.231 C188.891,607.26 203.526,614.977 217,622 C270.454,649.863 331.192,681.006 376.53,704.152 " fill="none" style="stroke: #A80036; stroke-width: 1.0;"/><polygon fill="none" points="380.008,698.068,394.643,713.392,373.646,710.539,380.008,698.068" style="stroke: #A80036; stroke-width: 1.0;"/><path d="M334.122,128 C357.788,128 385.138,128 408.618,128 " fill="none" style="stroke: #A80036; stroke-width: 1.0;"/><polygon fill="#A80036" points="413.876,128,404.876,124,408.876,128,404.876,132,413.876,128" style="stroke: #A80036; stroke-width: 1.0;"/><text fill="#000000" font-family="sans-serif" font-size="13" lengthAdjust="spacingAndGlyphs" textLength="42" x="352.5" y="120.0669">throws</text><path d="M273.902,152.025 C270.778,175.253 265.729,212.779 260.845,249.084 " fill="none" style="stroke: #A80036; stroke-width: 1.0;"/><polygon fill="#A80036" points="260.126,254.43,265.291,246.0441,260.7931,249.4747,257.3625,244.9768,260.126,254.43" style="stroke: #A80036; stroke-width: 1.0;"/><text fill="#000000" font-family="sans-serif" font-size="13" lengthAdjust="spacingAndGlyphs" textLength="30" x="270" y="197.0669">uses</text><path d="M303.078,152.021 C319.814,167.502 341.434,188.872 358,210 C389.774,250.522 419.086,303.647 433.896,332.047 " fill="none" style="stroke: #A80036; stroke-width: 1.0;"/><polygon fill="#A80036" points="436.318,336.72,435.7275,326.8889,434.017,332.2809,428.625,330.5704,436.318,336.72" style="stroke: #A80036; stroke-width: 1.0;"/><text fill="#000000" font-family="sans-serif" font-size="13" lengthAdjust="spacingAndGlyphs" textLength="135" x="351" y="197.0669">uses on debug mode</text><path d="M219.987,136.996 C176.493,146.414 119.375,166.694 91,210 C20.5244,317.559 86.5226,482.154 117.716,547.184 " fill="none" style="stroke: #A80036; stroke-width: 1.0;"/><polygon fill="#A80036" points="119.9,551.691,119.5785,541.8474,117.7213,547.1907,112.378,545.3334,119.9,551.691" style="stroke: #A80036; stroke-width: 1.0;"/><text fill="#000000" font-family="sans-serif" font-size="13" lengthAdjust="spacingAndGlyphs" textLength="42" x="92" y="357.0669">throws</text><path d="M490.142,152.063 C504.938,166.926 522.034,187.612 530,210 C591.385,382.516 585.605,447.857 529,622 C523.889,637.723 515.815,653.129 506.65,667.333 " fill="none" style="stroke: #A80036; stroke-width: 1.0;"/><polygon fill="none" points="512.221,671.581,495.054,684.002,500.729,663.586,512.221,671.581" style="stroke: #A80036; stroke-width: 1.0;"/></g></svg>