<?xml version="1.0" encoding="UTF-8" standalone="yes"?><svg xmlns="http://www.w3.org/2000/svg" xmlns:xlink="http://www.w3.org/1999/xlink" height="855px" style="width:811px;height:855px;" version="1.1" viewBox="0 0 811 855" width="811px"><defs><filter height="300%" id="f1" width="300%" x="-1" y="-1"><feGaussianBlur result="blurOut" stdDeviation="2.0"/><feColorMatrix in="blurOut" result="blurOut2" type="matrix" values="0 0 0 0 0 0 0 0 0 0 0 0 0 0 0 0 0 0 .4 0"/><feOffset dx="4.0" dy="4.0" in="blurOut2" result="blurOut3"/><feBlend in="SourceGraphic" in2="blurOut3" mode="normal"/></filter></defs><g><polygon fill="#FFFFFF" filter="url(#f1)" points="22,24,59,24,66,46.2969,788,46.2969,788,848,22,848,22,24" style="stroke: #000000; stroke-width: 2.0;"/><line style="stroke: #000000; stroke-width: 2.0;" x1="22" x2="66" y1="46.2969" y2="46.2969"/><text fill="#000000" font-family="sans-serif" font-size="14" font-weight="bold" lengthAdjust="spacingAndGlyphs" textLength="31" x="26" y="38.9951">slim</text><polygon fill="#FFFFFF" filter="url(#f1)" points="46,218,102,218,109,240.2969,751,240.2969,751,824,46,824,46,218" style="stroke: #000000; stroke-width: 2.0;"/><line style="stroke: #000000; stroke-width: 2.0;" x1="46" x2="109" y1="240.2969" y2="240.2969"/><text fill="#000000" font-family="sans-serif" font-size="14" font-weight="bold" lengthAdjust="spacingAndGlyphs" textLength="50" x="50" y="232.9951">debug</text><polygon fill="#FFFFFF" filter="url(#f1)" points="438,68,619,68,626,90.2969,764,90.2969,764,168,438,168,438,68" style="stroke: #000000; stroke-width: 2.0;"/><line style="stroke: #000000; stroke-width: 2.0;" x1="438" x2="626" y1="90.2969" y2="90.2969"/><text fill="#000000" font-family="sans-serif" font-size="14" font-weight="bold" lengthAdjust="spacingAndGlyphs" textLength="175" x="442" y="82.9951">any_other_namespace</text><rect fill="#FEFECE" filter="url(#f1)" height="209.6563" style="stroke: #A80036; stroke-width: 1.5;" width="187" x="61.75" y="254"/><ellipse cx="140" cy="270" fill="#ADD1B2" rx="11" ry="11" style="stroke: #A80036; stroke-width: 1.0;"/><path d="M142.9688,275.6406 Q142.3906,275.9375 141.75,276.0859 Q141.1094,276.2344 140.4063,276.2344 Q137.9063,276.2344 136.5859,274.5859 Q135.2656,272.9375 135.2656,269.8125 Q135.2656,266.6875 136.5859,265.0313 Q137.9063,263.375 140.4063,263.375 Q141.1094,263.375 141.7578,263.5313 Q142.4063,263.6875 142.9688,263.9844 L142.9688,266.7031 Q142.3438,266.125 141.75,265.8516 Q141.1563,265.5781 140.5313,265.5781 Q139.1875,265.5781 138.5,266.6484 Q137.8125,267.7188 137.8125,269.8125 Q137.8125,271.9063 138.5,272.9766 Q139.1875,274.0469 140.5313,274.0469 Q141.1563,274.0469 141.75,273.7734 Q142.3438,273.5 142.9688,272.9219 L142.9688,275.6406 Z "/><text fill="#000000" font-family="sans-serif" font-size="12" lengthAdjust="spacingAndGlyphs" textLength="22" x="160.5" y="274.1543">Log</text><line style="stroke: #A80036; stroke-width: 1.5;" x1="62.75" x2="247.75" y1="286" y2="286"/><text fill="#000000" font-family="sans-serif" font-size="11" lengthAdjust="spacingAndGlyphs" textLength="67" x="67.75" y="300.2104">char* name</text><text fill="#000000" font-family="sans-serif" font-size="11" lengthAdjust="spacingAndGlyphs" textLength="144" x="67.75" y="313.0151">char  consoleOutputLevel</text><text fill="#000000" font-family="sans-serif" font-size="11" lengthAdjust="spacingAndGlyphs" textLength="117" x="67.75" y="325.8198">char  fileOutputLevel</text><text fill="#000000" font-family="sans-serif" font-size="11" lengthAdjust="spacingAndGlyphs" textLength="93" x="67.75" y="338.6245">Dumper dumper</text><line style="stroke: #A80036; stroke-width: 1.0;" x1="62.75" x2="247.75" y1="345.2188" y2="345.2188"/><text fill="#000000" font-family="sans-serif" font-size="11" lengthAdjust="spacingAndGlyphs" textLength="52" x="67.75" y="359.4292">void init()</text><text fill="#000000" font-family="sans-serif" font-size="11" lengthAdjust="spacingAndGlyphs" textLength="78" x="67.75" y="372.2339">void destroy()</text><line style="stroke: #A80036; stroke-width: 1.0;" x1="62.75" x2="247.75" y1="378.8281" y2="378.8281"/><text fill="#000000" font-family="sans-serif" font-size="11" lengthAdjust="spacingAndGlyphs" textLength="175" x="67.75" y="393.0386">void setOutputLevel(char level)</text><text fill="#000000" font-family="sans-serif" font-size="11" lengthAdjust="spacingAndGlyphs" textLength="156" x="67.75" y="405.8433">void setFileLevel(char level)</text><text fill="#000000" font-family="sans-serif" font-size="11" lengthAdjust="spacingAndGlyphs" textLength="133" x="67.75" y="418.6479">void writeLog(template)</text><text fill="#000000" font-family="sans-serif" font-size="11" lengthAdjust="spacingAndGlyphs" textLength="134" x="67.75" y="431.4526">void writeInfo(template)</text><text fill="#000000" font-family="sans-serif" font-size="11" lengthAdjust="spacingAndGlyphs" textLength="158" x="67.75" y="444.2573">void writeWarning(template)</text><text fill="#000000" font-family="sans-serif" font-size="11" lengthAdjust="spacingAndGlyphs" textLength="142" x="67.75" y="457.062">void writeError(template)</text><rect fill="#FEFECE" filter="url(#f1)" height="60.8047" style="stroke: #A80036; stroke-width: 1.5;" width="246" x="318" y="328.5"/><ellipse cx="412.25" cy="344.5" fill="#ADD1B2" rx="11" ry="11" style="stroke: #A80036; stroke-width: 1.0;"/><path d="M415.2188,350.1406 Q414.6406,350.4375 414,350.5859 Q413.3594,350.7344 412.6563,350.7344 Q410.1563,350.7344 408.8359,349.0859 Q407.5156,347.4375 407.5156,344.3125 Q407.5156,341.1875 408.8359,339.5313 Q410.1563,337.875 412.6563,337.875 Q413.3594,337.875 414.0078,338.0313 Q414.6563,338.1875 415.2188,338.4844 L415.2188,341.2031 Q414.5938,340.625 414,340.3516 Q413.4063,340.0781 412.7813,340.0781 Q411.4375,340.0781 410.75,341.1484 Q410.0625,342.2188 410.0625,344.3125 Q410.0625,346.4063 410.75,347.4766 Q411.4375,348.5469 412.7813,348.5469 Q413.4063,348.5469 414,348.2734 Q414.5938,348 415.2188,347.4219 L415.2188,350.1406 Z "/><text fill="#000000" font-family="sans-serif" font-size="12" lengthAdjust="spacingAndGlyphs" textLength="49" x="432.75" y="348.6543">Dumper</text><line style="stroke: #A80036; stroke-width: 1.5;" x1="319" x2="563" y1="360.5" y2="360.5"/><line style="stroke: #A80036; stroke-width: 1.5;" x1="319" x2="563" y1="368.5" y2="368.5"/><text fill="#000000" font-family="sans-serif" font-size="11" lengthAdjust="spacingAndGlyphs" textLength="234" x="324" y="382.7104">void dump(const T&amp; object, char* buffer)</text><rect fill="#FEFECE" filter="url(#f1)" height="92.3516" style="stroke: #A80036; stroke-width: 1.5;" width="109" x="100.75" y="542"/><ellipse cx="115.75" cy="560.9688" fill="#ADD1B2" rx="11" ry="11" style="stroke: #A80036; stroke-width: 1.0;"/><path d="M118.7188,566.6094 Q118.1406,566.9063 117.5,567.0547 Q116.8594,567.2031 116.1563,567.2031 Q113.6563,567.2031 112.3359,565.5547 Q111.0156,563.9063 111.0156,560.7813 Q111.0156,557.6563 112.3359,556 Q113.6563,554.3438 116.1563,554.3438 Q116.8594,554.3438 117.5078,554.5 Q118.1563,554.6563 118.7188,554.9531 L118.7188,557.6719 Q118.0938,557.0938 117.5,556.8203 Q116.9063,556.5469 116.2813,556.5469 Q114.9375,556.5469 114.25,557.6172 Q113.5625,558.6875 113.5625,560.7813 Q113.5625,562.875 114.25,563.9453 Q114.9375,565.0156 116.2813,565.0156 Q116.9063,565.0156 117.5,564.7422 Q118.0938,564.4688 118.7188,563.8906 L118.7188,566.6094 Z "/><text fill="#000000" font-family="sans-serif" font-size="12" font-style="italic" lengthAdjust="spacingAndGlyphs" textLength="73" x="131.75" y="558.1387">«Singleton»</text><text fill="#000000" font-family="sans-serif" font-size="12" lengthAdjust="spacingAndGlyphs" textLength="77" x="129.75" y="572.1074">LogManager</text><line style="stroke: #A80036; stroke-width: 1.5;" x1="101.75" x2="208.75" y1="579.9375" y2="579.9375"/><text fill="#000000" font-family="sans-serif" font-size="11" lengthAdjust="spacingAndGlyphs" textLength="56" x="106.75" y="594.1479">Log[] logs</text><line style="stroke: #A80036; stroke-width: 1.5;" x1="101.75" x2="208.75" y1="600.7422" y2="600.7422"/><text fill="#000000" font-family="sans-serif" font-size="11" lengthAdjust="spacingAndGlyphs" textLength="52" x="106.75" y="614.9526">void init()</text><text fill="#000000" font-family="sans-serif" font-size="11" lengthAdjust="spacingAndGlyphs" textLength="78" x="106.75" y="627.7573">void destroy()</text><rect fill="#FEFECE" filter="url(#f1)" height="112.0234" style="stroke: #A80036; stroke-width: 1.5;" width="100" x="618" y="696"/><ellipse cx="636.15" cy="712" fill="#ADD1B2" rx="11" ry="11" style="stroke: #A80036; stroke-width: 1.0;"/><path d="M639.1188,717.6406 Q638.5406,717.9375 637.9,718.0859 Q637.2594,718.2344 636.5563,718.2344 Q634.0563,718.2344 632.7359,716.5859 Q631.4156,714.9375 631.4156,711.8125 Q631.4156,708.6875 632.7359,707.0313 Q634.0563,705.375 636.5563,705.375 Q637.2594,705.375 637.9078,705.5313 Q638.5563,705.6875 639.1188,705.9844 L639.1188,708.7031 Q638.4938,708.125 637.9,707.8516 Q637.3063,707.5781 636.6813,707.5781 Q635.3375,707.5781 634.65,708.6484 Q633.9625,709.7188 633.9625,711.8125 Q633.9625,713.9063 634.65,714.9766 Q635.3375,716.0469 636.6813,716.0469 Q637.3063,716.0469 637.9,715.7734 Q638.4938,715.5 639.1188,714.9219 L639.1188,717.6406 Z "/><text fill="#000000" font-family="sans-serif" font-size="12" lengthAdjust="spacingAndGlyphs" textLength="61" x="650.85" y="716.1543">Exception</text><line style="stroke: #A80036; stroke-width: 1.5;" x1="619" x2="717" y1="728" y2="728"/><text fill="#000000" font-family="sans-serif" font-size="11" lengthAdjust="spacingAndGlyphs" textLength="88" x="624" y="742.2104">char* message</text><text fill="#000000" font-family="sans-serif" font-size="11" lengthAdjust="spacingAndGlyphs" textLength="52" x="624" y="755.0151">char* file</text><text fill="#000000" font-family="sans-serif" font-size="11" lengthAdjust="spacingAndGlyphs" textLength="80" x="624" y="767.8198">char* function</text><text fill="#000000" font-family="sans-serif" font-size="11" lengthAdjust="spacingAndGlyphs" textLength="46" x="624" y="780.6245">int   line</text><line style="stroke: #A80036; stroke-width: 1.5;" x1="619" x2="717" y1="787.2188" y2="787.2188"/><text fill="#000000" font-family="sans-serif" font-size="11" lengthAdjust="spacingAndGlyphs" textLength="70" x="624" y="801.4292">char* what()</text><rect fill="#FEFECE" filter="url(#f1)" height="60.8047" style="stroke: #A80036; stroke-width: 1.5;" width="135" x="431.75" y="557.5"/><ellipse cx="446.75" cy="573.5" fill="#ADD1B2" rx="11" ry="11" style="stroke: #A80036; stroke-width: 1.0;"/><path d="M449.7188,579.1406 Q449.1406,579.4375 448.5,579.5859 Q447.8594,579.7344 447.1563,579.7344 Q444.6563,579.7344 443.3359,578.0859 Q442.0156,576.4375 442.0156,573.3125 Q442.0156,570.1875 443.3359,568.5313 Q444.6563,566.875 447.1563,566.875 Q447.8594,566.875 448.5078,567.0313 Q449.1563,567.1875 449.7188,567.4844 L449.7188,570.2031 Q449.0938,569.625 448.5,569.3516 Q447.9063,569.0781 447.2813,569.0781 Q445.9375,569.0781 445.25,570.1484 Q444.5625,571.2188 444.5625,573.3125 Q444.5625,575.4063 445.25,576.4766 Q445.9375,577.5469 447.2813,577.5469 Q447.9063,577.5469 448.5,577.2734 Q449.0938,577 449.7188,576.4219 L449.7188,579.1406 Z "/><text fill="#000000" font-family="sans-serif" font-size="12" lengthAdjust="spacingAndGlyphs" textLength="103" x="460.75" y="577.6543">SyscallException</text><line style="stroke: #A80036; stroke-width: 1.5;" x1="432.75" x2="565.75" y1="589.5" y2="589.5"/><text fill="#000000" font-family="sans-serif" font-size="11" lengthAdjust="spacingAndGlyphs" textLength="49" x="437.75" y="603.7104">int errno</text><line style="stroke: #A80036; stroke-width: 1.5;" x1="432.75" x2="565.75" y1="610.3047" y2="610.3047"/><rect fill="#FEFECE" filter="url(#f1)" height="48" style="stroke: #A80036; stroke-width: 1.5;" width="133" x="601.75" y="564"/><ellipse cx="616.75" cy="580" fill="#ADD1B2" rx="11" ry="11" style="stroke: #A80036; stroke-width: 1.0;"/><path d="M619.7188,585.6406 Q619.1406,585.9375 618.5,586.0859 Q617.8594,586.2344 617.1563,586.2344 Q614.6563,586.2344 613.3359,584.5859 Q612.0156,582.9375 612.0156,579.8125 Q612.0156,576.6875 613.3359,575.0313 Q614.6563,573.375 617.1563,573.375 Q617.8594,573.375 618.5078,573.5313 Q619.1563,573.6875 619.7188,573.9844 L619.7188,576.7031 Q619.0938,576.125 618.5,575.8516 Q617.9063,575.5781 617.2813,575.5781 Q615.9375,575.5781 615.25,576.6484 Q614.5625,577.7188 614.5625,579.8125 Q614.5625,581.9063 615.25,582.9766 Q615.9375,584.0469 617.2813,584.0469 Q617.9063,584.0469 618.5,583.7734 Q619.0938,583.5 619.7188,582.9219 L619.7188,585.6406 Z "/><text fill="#000000" font-family="sans-serif" font-size="12" lengthAdjust="spacingAndGlyphs" textLength="101" x="630.75" y="584.1543">AssertException</text><line style="stroke: #A80036; stroke-width: 1.5;" x1="602.75" x2="733.75" y1="596" y2="596"/><line style="stroke: #A80036; stroke-width: 1.5;" x1="602.75" x2="733.75" y1="604" y2="604"/><rect fill="#FEFECE" filter="url(#f1)" height="32" style="stroke: #A80036; stroke-width: 1.5;" width="136" x="599" y="343"/><ellipse cx="614" cy="359" fill="#FF7700" rx="11" ry="11" style="stroke: #A80036; stroke-width: 1.0;"/><path d="M609.7188,352.6094 L612.6406,352.6094 L614.1094,358.0469 L615.5781,352.6094 L618.5156,352.6094 L618.5156,365 L616.4063,365 L616.4063,355.0781 L615.0938,360.5 L613.1563,360.5 L611.8281,355.0781 L611.8281,365 L609.7188,365 L609.7188,352.6094 Z "/><text fill="#000000" font-family="sans-serif" font-size="12" lengthAdjust="spacingAndGlyphs" textLength="104" x="628" y="363.1543">AssertionMaccro</text><rect fill="#FEFECE" filter="url(#f1)" height="48" style="stroke: #A80036; stroke-width: 1.5;" width="114" x="454" y="104"/><ellipse cx="469" cy="120" fill="#ADD1B2" rx="11" ry="11" style="stroke: #A80036; stroke-width: 1.0;"/><path d="M471.9688,125.6406 Q471.3906,125.9375 470.75,126.0859 Q470.1094,126.2344 469.4063,126.2344 Q466.9063,126.2344 465.5859,124.5859 Q464.2656,122.9375 464.2656,119.8125 Q464.2656,116.6875 465.5859,115.0313 Q466.9063,113.375 469.4063,113.375 Q470.1094,113.375 470.7578,113.5313 Q471.4063,113.6875 471.9688,113.9844 L471.9688,116.7031 Q471.3438,116.125 470.75,115.8516 Q470.1563,115.5781 469.5313,115.5781 Q468.1875,115.5781 467.5,116.6484 Q466.8125,117.7188 466.8125,119.8125 Q466.8125,121.9063 467.5,122.9766 Q468.1875,124.0469 469.5313,124.0469 Q470.1563,124.0469 470.75,123.7734 Q471.3438,123.5 471.9688,122.9219 L471.9688,125.6406 Z "/><text fill="#000000" font-family="sans-serif" font-size="12" lengthAdjust="spacingAndGlyphs" textLength="82" x="483" y="124.1543">LambdaClass</text><line style="stroke: #A80036; stroke-width: 1.5;" x1="455" x2="567" y1="136" y2="136"/><line style="stroke: #A80036; stroke-width: 1.5;" x1="455" x2="567" y1="144" y2="144"/><rect fill="#FEFECE" filter="url(#f1)" height="48" style="stroke: #A80036; stroke-width: 1.5;" width="100" x="648" y="104"/><ellipse cx="663" cy="120" fill="#ADD1B2" rx="11" ry="11" style="stroke: #A80036; stroke-width: 1.0;"/><path d="M665.9688,125.6406 Q665.3906,125.9375 664.75,126.0859 Q664.1094,126.2344 663.4063,126.2344 Q660.9063,126.2344 659.5859,124.5859 Q658.2656,122.9375 658.2656,119.8125 Q658.2656,116.6875 659.5859,115.0313 Q660.9063,113.375 663.4063,113.375 Q664.1094,113.375 664.7578,113.5313 Q665.4063,113.6875 665.9688,113.9844 L665.9688,116.7031 Q665.3438,116.125 664.75,115.8516 Q664.1563,115.5781 663.5313,115.5781 Q662.1875,115.5781 661.5,116.6484 Q660.8125,117.7188 660.8125,119.8125 Q660.8125,121.9063 661.5,122.9766 Q662.1875,124.0469 663.5313,124.0469 Q664.1563,124.0469 664.75,123.7734 Q665.3438,123.5 665.9688,122.9219 L665.9688,125.6406 Z "/><text fill="#000000" font-family="sans-serif" font-size="12" lengthAdjust="spacingAndGlyphs" textLength="68" x="677" y="124.1543">XException</text><line style="stroke: #A80036; stroke-width: 1.5;" x1="649" x2="747" y1="136" y2="136"/><line style="stroke: #A80036; stroke-width: 1.5;" x1="649" x2="747" y1="144" y2="144"/><path d="M317.918,359 C299.059,359 280.2,359 261.341,359 " fill="none" style="stroke: #A80036; stroke-width: 1.0;"/><polygon fill="#A80036" points="248.285,359,254.285,363,260.285,359,254.285,355,248.285,359" style="stroke: #A80036; stroke-width: 1.0;"/><path d="M155,464.199 C155,486.358 155,508.994 155,528.696 " fill="none" style="stroke: #A80036; stroke-width: 1.0;"/><polygon fill="#A80036" points="155,541.826,159,535.826,155,529.826,151,535.826,155,541.826" style="stroke: #A80036; stroke-width: 1.0;"/><path d="M667.067,375.247 C667.233,412.844 667.663,510.446 667.876,558.884 " fill="none" style="stroke: #A80036; stroke-width: 1.0;"/><polygon fill="#A80036" points="667.899,563.978,671.8604,554.9609,667.8776,558.978,663.8605,554.9952,667.899,563.978" style="stroke: #A80036; stroke-width: 1.0;"/><text fill="#000000" font-family="sans-serif" font-size="13" lengthAdjust="spacingAndGlyphs" textLength="42" x="668" y="507.0669">throws</text><path d="M668,612.211 C668,628.907 668,652.44 668,675.392 " fill="none" style="stroke: #A80036; stroke-width: 1.0;"/><polygon fill="none" points="675,675.659,668,695.659,661,675.659,675,675.659" style="stroke: #A80036; stroke-width: 1.0;"/><path d="M529.997,618.713 C550.549,638.414 578.273,664.99 603.481,689.153 " fill="none" style="stroke: #A80036; stroke-width: 1.0;"/><polygon fill="none" points="608.365,684.138,617.959,703.032,598.677,694.245,608.365,684.138" style="stroke: #A80036; stroke-width: 1.0;"/><path d="M568.122,128 C591.788,128 619.138,128 642.618,128 " fill="none" style="stroke: #A80036; stroke-width: 1.0;"/><polygon fill="#A80036" points="647.876,128,638.876,124,642.876,128,638.876,132,647.876,128" style="stroke: #A80036; stroke-width: 1.0;"/><text fill="#000000" font-family="sans-serif" font-size="13" lengthAdjust="spacingAndGlyphs" textLength="42" x="586.5" y="120.0669">throws</text><path d="M453.978,143.826 C409.888,156.929 348.553,178.834 301,210 C283.468,221.491 266.376,235.385 250.428,250.001 " fill="none" style="stroke: #A80036; stroke-width: 1.0;"/><polygon fill="#A80036" points="246.398,253.731,255.7199,250.5527,250.0673,250.3345,250.2855,244.6819,246.398,253.731" style="stroke: #A80036; stroke-width: 1.0;"/><text fill="#000000" font-family="sans-serif" font-size="13" lengthAdjust="spacingAndGlyphs" textLength="30" x="344" y="197.0669">uses</text><path d="M533.429,152.069 C548.099,167.742 567.212,189.309 582,210 C612.945,253.298 642.308,308.692 657.077,337.896 " fill="none" style="stroke: #A80036; stroke-width: 1.0;"/><polygon fill="#A80036" points="659.491,342.694,659.0186,332.8565,657.2435,338.2276,651.8724,336.4525,659.491,342.694" style="stroke: #A80036; stroke-width: 1.0;"/><text fill="#000000" font-family="sans-serif" font-size="13" lengthAdjust="spacingAndGlyphs" textLength="135" x="576" y="197.0669">uses on debug mode</text><path d="M719.289,152.163 C731.771,167.372 746.357,188.391 753,210 C808.374,390.126 810.254,454.785 752,634 C746.889,649.723 738.815,665.129 729.65,679.333 " fill="none" style="stroke: #A80036; stroke-width: 1.0;"/><polygon fill="none" points="735.221,683.581,718.054,696.002,723.729,675.586,735.221,683.581" style="stroke: #A80036; stroke-width: 1.0;"/></g></svg>