<?xml version="1.0" encoding="UTF-8" standalone="yes"?><svg xmlns="http://www.w3.org/2000/svg" xmlns:xlink="http://www.w3.org/1999/xlink" height="765px" style="width:1088px;height:765px;" version="1.1" viewBox="0 0 1088 765" width="1088px"><defs><filter height="300%" id="f1" width="300%" x="-1" y="-1"><feGaussianBlur result="blurOut" stdDeviation="2.0"/><feColorMatrix in="blurOut" result="blurOut2" type="matrix" values="0 0 0 0 0 0 0 0 0 0 0 0 0 0 0 0 0 0 .4 0"/><feOffset dx="4.0" dy="4.0" in="blurOut2" result="blurOut3"/><feBlend in="SourceGraphic" in2="blurOut3" mode="normal"/></filter></defs><g><polygon fill="#FFFFFF" filter="url(#f1)" points="22,24,59,24,66,46.2969,1081,46.2969,1081,758,22,758,22,24" style="stroke: #000000; stroke-width: 2.0;"/><line style="stroke: #000000; stroke-width: 2.0;" x1="22" x2="66" y1="46.2969" y2="46.2969"/><text fill="#000000" font-family="sans-serif" font-size="14" font-weight="bold" lengthAdjust="spacingAndGlyphs" textLength="31" x="26" y="38.9951">slim</text><polygon fill="#FFFFFF" filter="url(#f1)" points="46,68,100,68,107,90.2969,909,90.2969,909,734,46,734,46,68" style="stroke: #000000; stroke-width: 2.0;"/><line style="stroke: #000000; stroke-width: 2.0;" x1="46" x2="107" y1="90.2969" y2="90.2969"/><text fill="#000000" font-family="sans-serif" font-size="14" font-weight="bold" lengthAdjust="spacingAndGlyphs" textLength="48" x="50" y="82.9951">maths</text><polygon fill="#FFFFFF" filter="url(#f1)" points="933,511,975,511,982,533.2969,1057,533.2969,1057,637,933,637,933,511" style="stroke: #000000; stroke-width: 2.0;"/><line style="stroke: #000000; stroke-width: 2.0;" x1="933" x2="982" y1="533.2969" y2="533.2969"/><text fill="#000000" font-family="sans-serif" font-size="14" font-weight="bold" lengthAdjust="spacingAndGlyphs" textLength="36" x="937" y="525.9951">core</text><rect fill="#FEFECE" filter="url(#f1)" height="99.2188" style="stroke: #A80036; stroke-width: 1.5;" width="172" x="714" y="534.5"/><ellipse cx="788.75" cy="550.5" fill="#ADD1B2" rx="11" ry="11" style="stroke: #A80036; stroke-width: 1.0;"/><path d="M791.7188,556.1406 Q791.1406,556.4375 790.5,556.5859 Q789.8594,556.7344 789.1563,556.7344 Q786.6563,556.7344 785.3359,555.0859 Q784.0156,553.4375 784.0156,550.3125 Q784.0156,547.1875 785.3359,545.5313 Q786.6563,543.875 789.1563,543.875 Q789.8594,543.875 790.5078,544.0313 Q791.1563,544.1875 791.7188,544.4844 L791.7188,547.2031 Q791.0938,546.625 790.5,546.3516 Q789.9063,546.0781 789.2813,546.0781 Q787.9375,546.0781 787.25,547.1484 Q786.5625,548.2188 786.5625,550.3125 Q786.5625,552.4063 787.25,553.4766 Q787.9375,554.5469 789.2813,554.5469 Q789.9063,554.5469 790.5,554.2734 Q791.0938,554 791.7188,553.4219 L791.7188,556.1406 Z "/><text fill="#000000" font-family="sans-serif" font-size="12" lengthAdjust="spacingAndGlyphs" textLength="14" x="809.25" y="554.6543">lib</text><line style="stroke: #A80036; stroke-width: 1.5;" x1="715" x2="885" y1="566.5" y2="566.5"/><line style="stroke: #A80036; stroke-width: 1.5;" x1="715" x2="885" y1="574.5" y2="574.5"/><text fill="#000000" font-family="sans-serif" font-size="11" lengthAdjust="spacingAndGlyphs" text-decoration="underline" textLength="139" x="720" y="588.7104">«template T» T sqrt(T n)</text><line style="stroke: #000000; stroke-width: 1.0;" x1="720" x2="859" y1="590.7104" y2="590.7104"/><text fill="#000000" font-family="sans-serif" font-size="11" lengthAdjust="spacingAndGlyphs" text-decoration="underline" textLength="160" x="720" y="601.5151">«template T» T cos(T angle)</text><line style="stroke: #000000; stroke-width: 1.0;" x1="720" x2="880" y1="603.5151" y2="603.5151"/><text fill="#000000" font-family="sans-serif" font-size="11" lengthAdjust="spacingAndGlyphs" text-decoration="underline" textLength="157" x="720" y="614.3198">«template T» T sin(T angle)</text><line style="stroke: #000000; stroke-width: 1.0;" x1="720" x2="877" y1="616.3198" y2="616.3198"/><text fill="#000000" font-family="sans-serif" font-size="11" lengthAdjust="spacingAndGlyphs" text-decoration="underline" textLength="158" x="720" y="627.1245">«template T» T tan(T angle)</text><line style="stroke: #000000; stroke-width: 1.0;" x1="720" x2="878" y1="629.1245" y2="629.1245"/><rect fill="#FEFECE" filter="url(#f1)" height="241.2031" style="stroke: #A80036; stroke-width: 1.5;" width="268" x="62" y="117.5"/><ellipse cx="150.25" cy="136.4688" fill="#ADD1B2" rx="11" ry="11" style="stroke: #A80036; stroke-width: 1.0;"/><path d="M153.2188,142.1094 Q152.6406,142.4063 152,142.5547 Q151.3594,142.7031 150.6563,142.7031 Q148.1563,142.7031 146.8359,141.0547 Q145.5156,139.4063 145.5156,136.2813 Q145.5156,133.1563 146.8359,131.5 Q148.1563,129.8438 150.6563,129.8438 Q151.3594,129.8438 152.0078,130 Q152.6563,130.1563 153.2188,130.4531 L153.2188,133.1719 Q152.5938,132.5938 152,132.3203 Q151.4063,132.0469 150.7813,132.0469 Q149.4375,132.0469 148.75,133.1172 Q148.0625,134.1875 148.0625,136.2813 Q148.0625,138.375 148.75,139.4453 Q149.4375,140.5156 150.7813,140.5156 Q151.4063,140.5156 152,140.2422 Q152.5938,139.9688 153.2188,139.3906 L153.2188,142.1094 Z "/><text fill="#000000" font-family="sans-serif" font-size="12" font-style="italic" lengthAdjust="spacingAndGlyphs" textLength="87" x="168.75" y="133.6387">«typename T»</text><text fill="#000000" font-family="sans-serif" font-size="12" lengthAdjust="spacingAndGlyphs" textLength="49" x="187.75" y="147.6074">Vector2</text><line style="stroke: #A80036; stroke-width: 1.5;" x1="63" x2="329" y1="155.4375" y2="155.4375"/><text fill="#000000" font-family="sans-serif" font-size="11" lengthAdjust="spacingAndGlyphs" textLength="17" x="68" y="169.6479">T x</text><text fill="#000000" font-family="sans-serif" font-size="11" lengthAdjust="spacingAndGlyphs" textLength="17" x="68" y="182.4526">T y</text><line style="stroke: #A80036; stroke-width: 1.0;" x1="63" x2="329" y1="189.0469" y2="189.0469"/><text fill="#000000" font-family="sans-serif" font-size="11" lengthAdjust="spacingAndGlyphs" textLength="103" x="68" y="203.2573">T getNorm() const</text><text fill="#000000" font-family="sans-serif" font-size="11" lengthAdjust="spacingAndGlyphs" textLength="151" x="68" y="216.062">T getSquaredNorm() const</text><text fill="#000000" font-family="sans-serif" font-size="11" lengthAdjust="spacingAndGlyphs" textLength="256" x="68" y="228.8667">T crossProduct(const Vector2&amp; vector) const</text><text fill="#000000" font-family="sans-serif" font-size="11" lengthAdjust="spacingAndGlyphs" textLength="236" x="68" y="241.6714">bool equals(const Vector2&amp; vector) const</text><text fill="#000000" font-family="sans-serif" font-size="11" lengthAdjust="spacingAndGlyphs" textLength="90" x="68" y="254.4761">void normalize()</text><text fill="#000000" font-family="sans-serif" font-size="11" lengthAdjust="spacingAndGlyphs" textLength="197" x="68" y="267.2808">void addTo(const Vector2&amp; vector)</text><text fill="#000000" font-family="sans-serif" font-size="11" lengthAdjust="spacingAndGlyphs" textLength="197" x="68" y="280.0854">void subTo(const Vector2&amp; vector)</text><text fill="#000000" font-family="sans-serif" font-size="11" lengthAdjust="spacingAndGlyphs" textLength="120" x="68" y="292.8901">void scaleTo(T scale)</text><text fill="#000000" font-family="sans-serif" font-size="11" lengthAdjust="spacingAndGlyphs" textLength="238" x="68" y="305.6948">Vector2 add(const Vector2&amp; vector) const</text><text fill="#000000" font-family="sans-serif" font-size="11" lengthAdjust="spacingAndGlyphs" textLength="238" x="68" y="318.4995">Vector2 sub(const Vector2&amp; vector) const</text><text fill="#000000" font-family="sans-serif" font-size="11" lengthAdjust="spacingAndGlyphs" textLength="161" x="68" y="331.3042">Vector2 scale(T scale) const</text><line style="stroke: #A80036; stroke-width: 1.0;" x1="63" x2="329" y1="337.8984" y2="337.8984"/><text fill="#000000" font-family="sans-serif" font-size="11" font-style="italic" lengthAdjust="spacingAndGlyphs" textLength="209" x="68" y="352.1089">many operators refering to methods</text><rect fill="#FEFECE" filter="url(#f1)" height="266.8125" style="stroke: #A80036; stroke-width: 1.5;" width="307" x="365.75" y="104.5"/><ellipse cx="473.5" cy="123.4688" fill="#ADD1B2" rx="11" ry="11" style="stroke: #A80036; stroke-width: 1.0;"/><path d="M476.4688,129.1094 Q475.8906,129.4063 475.25,129.5547 Q474.6094,129.7031 473.9063,129.7031 Q471.4063,129.7031 470.0859,128.0547 Q468.7656,126.4063 468.7656,123.2813 Q468.7656,120.1563 470.0859,118.5 Q471.4063,116.8438 473.9063,116.8438 Q474.6094,116.8438 475.2578,117 Q475.9063,117.1563 476.4688,117.4531 L476.4688,120.1719 Q475.8438,119.5938 475.25,119.3203 Q474.6563,119.0469 474.0313,119.0469 Q472.6875,119.0469 472,120.1172 Q471.3125,121.1875 471.3125,123.2813 Q471.3125,125.375 472,126.4453 Q472.6875,127.5156 474.0313,127.5156 Q474.6563,127.5156 475.25,127.2422 Q475.8438,126.9688 476.4688,126.3906 L476.4688,129.1094 Z "/><text fill="#000000" font-family="sans-serif" font-size="12" font-style="italic" lengthAdjust="spacingAndGlyphs" textLength="87" x="492" y="120.6387">«typename T»</text><text fill="#000000" font-family="sans-serif" font-size="12" lengthAdjust="spacingAndGlyphs" textLength="49" x="511" y="134.6074">Vector3</text><line style="stroke: #A80036; stroke-width: 1.5;" x1="366.75" x2="671.75" y1="142.4375" y2="142.4375"/><text fill="#000000" font-family="sans-serif" font-size="11" lengthAdjust="spacingAndGlyphs" textLength="17" x="371.75" y="156.6479">T x</text><text fill="#000000" font-family="sans-serif" font-size="11" lengthAdjust="spacingAndGlyphs" textLength="17" x="371.75" y="169.4526">T y</text><text fill="#000000" font-family="sans-serif" font-size="11" lengthAdjust="spacingAndGlyphs" textLength="16" x="371.75" y="182.2573">T z</text><line style="stroke: #A80036; stroke-width: 1.0;" x1="366.75" x2="671.75" y1="188.8516" y2="188.8516"/><text fill="#000000" font-family="sans-serif" font-size="11" lengthAdjust="spacingAndGlyphs" textLength="103" x="371.75" y="203.062">T getNorm() const</text><text fill="#000000" font-family="sans-serif" font-size="11" lengthAdjust="spacingAndGlyphs" textLength="151" x="371.75" y="215.8667">T getSquaredNorm() const</text><text fill="#000000" font-family="sans-serif" font-size="11" lengthAdjust="spacingAndGlyphs" textLength="256" x="371.75" y="228.6714">T crossProduct(const Vector3&amp; vector) const</text><text fill="#000000" font-family="sans-serif" font-size="11" lengthAdjust="spacingAndGlyphs" textLength="236" x="371.75" y="241.4761">bool equals(const Vector3&amp; vector) const</text><text fill="#000000" font-family="sans-serif" font-size="11" lengthAdjust="spacingAndGlyphs" textLength="90" x="371.75" y="254.2808">void normalize()</text><text fill="#000000" font-family="sans-serif" font-size="11" lengthAdjust="spacingAndGlyphs" textLength="197" x="371.75" y="267.0854">void addTo(const Vector3&amp; vector)</text><text fill="#000000" font-family="sans-serif" font-size="11" lengthAdjust="spacingAndGlyphs" textLength="197" x="371.75" y="279.8901">void subTo(const Vector3&amp; vector)</text><text fill="#000000" font-family="sans-serif" font-size="11" lengthAdjust="spacingAndGlyphs" textLength="120" x="371.75" y="292.6948">void scaleTo(T scale)</text><text fill="#000000" font-family="sans-serif" font-size="11" lengthAdjust="spacingAndGlyphs" textLength="238" x="371.75" y="305.4995">Vector3 add(const Vector3&amp; vector) const</text><text fill="#000000" font-family="sans-serif" font-size="11" lengthAdjust="spacingAndGlyphs" textLength="238" x="371.75" y="318.3042">Vector3 sub(const Vector3&amp; vector) const</text><text fill="#000000" font-family="sans-serif" font-size="11" lengthAdjust="spacingAndGlyphs" textLength="295" x="371.75" y="331.1089">Vector3 vectorProduct(const Vector3&amp; vector) const</text><text fill="#000000" font-family="sans-serif" font-size="11" lengthAdjust="spacingAndGlyphs" textLength="161" x="371.75" y="343.9136">Vector3 scale(T scale) const</text><line style="stroke: #A80036; stroke-width: 1.0;" x1="366.75" x2="671.75" y1="350.5078" y2="350.5078"/><text fill="#000000" font-family="sans-serif" font-size="11" font-style="italic" lengthAdjust="spacingAndGlyphs" textLength="209" x="371.75" y="364.7183">many operators refering to methods</text><rect fill="#FEFECE" filter="url(#f1)" height="266.8125" style="stroke: #A80036; stroke-width: 1.5;" width="268" x="62" y="450.5"/><ellipse cx="150.25" cy="469.4688" fill="#ADD1B2" rx="11" ry="11" style="stroke: #A80036; stroke-width: 1.0;"/><path d="M153.2188,475.1094 Q152.6406,475.4063 152,475.5547 Q151.3594,475.7031 150.6563,475.7031 Q148.1563,475.7031 146.8359,474.0547 Q145.5156,472.4063 145.5156,469.2813 Q145.5156,466.1563 146.8359,464.5 Q148.1563,462.8438 150.6563,462.8438 Q151.3594,462.8438 152.0078,463 Q152.6563,463.1563 153.2188,463.4531 L153.2188,466.1719 Q152.5938,465.5938 152,465.3203 Q151.4063,465.0469 150.7813,465.0469 Q149.4375,465.0469 148.75,466.1172 Q148.0625,467.1875 148.0625,469.2813 Q148.0625,471.375 148.75,472.4453 Q149.4375,473.5156 150.7813,473.5156 Q151.4063,473.5156 152,473.2422 Q152.5938,472.9688 153.2188,472.3906 L153.2188,475.1094 Z "/><text fill="#000000" font-family="sans-serif" font-size="12" font-style="italic" lengthAdjust="spacingAndGlyphs" textLength="87" x="168.75" y="466.6387">«typename T»</text><text fill="#000000" font-family="sans-serif" font-size="12" lengthAdjust="spacingAndGlyphs" textLength="49" x="187.75" y="480.6074">Vector4</text><line style="stroke: #A80036; stroke-width: 1.5;" x1="63" x2="329" y1="488.4375" y2="488.4375"/><text fill="#000000" font-family="sans-serif" font-size="11" lengthAdjust="spacingAndGlyphs" textLength="17" x="68" y="502.6479">T x</text><text fill="#000000" font-family="sans-serif" font-size="11" lengthAdjust="spacingAndGlyphs" textLength="17" x="68" y="515.4526">T y</text><text fill="#000000" font-family="sans-serif" font-size="11" lengthAdjust="spacingAndGlyphs" textLength="16" x="68" y="528.2573">T z</text><text fill="#000000" font-family="sans-serif" font-size="11" lengthAdjust="spacingAndGlyphs" textLength="20" x="68" y="541.062">T w</text><line style="stroke: #A80036; stroke-width: 1.0;" x1="63" x2="329" y1="547.6563" y2="547.6563"/><text fill="#000000" font-family="sans-serif" font-size="11" lengthAdjust="spacingAndGlyphs" textLength="103" x="68" y="561.8667">T getNorm() const</text><text fill="#000000" font-family="sans-serif" font-size="11" lengthAdjust="spacingAndGlyphs" textLength="151" x="68" y="574.6714">T getSquaredNorm() const</text><text fill="#000000" font-family="sans-serif" font-size="11" lengthAdjust="spacingAndGlyphs" textLength="256" x="68" y="587.4761">T crossProduct(const Vector4&amp; vector) const</text><text fill="#000000" font-family="sans-serif" font-size="11" lengthAdjust="spacingAndGlyphs" textLength="236" x="68" y="600.2808">bool equals(const Vector4&amp; vector) const</text><text fill="#000000" font-family="sans-serif" font-size="11" lengthAdjust="spacingAndGlyphs" textLength="90" x="68" y="613.0854">void normalize()</text><text fill="#000000" font-family="sans-serif" font-size="11" lengthAdjust="spacingAndGlyphs" textLength="197" x="68" y="625.8901">void addTo(const Vector4&amp; vector)</text><text fill="#000000" font-family="sans-serif" font-size="11" lengthAdjust="spacingAndGlyphs" textLength="197" x="68" y="638.6948">void subTo(const Vector4&amp; vector)</text><text fill="#000000" font-family="sans-serif" font-size="11" lengthAdjust="spacingAndGlyphs" textLength="120" x="68" y="651.4995">void scaleTo(T scale)</text><text fill="#000000" font-family="sans-serif" font-size="11" lengthAdjust="spacingAndGlyphs" textLength="238" x="68" y="664.3042">Vector4 add(const Vector4&amp; vector) const</text><text fill="#000000" font-family="sans-serif" font-size="11" lengthAdjust="spacingAndGlyphs" textLength="238" x="68" y="677.1089">Vector4 sub(const Vector4&amp; vector) const</text><text fill="#000000" font-family="sans-serif" font-size="11" lengthAdjust="spacingAndGlyphs" textLength="161" x="68" y="689.9136">Vector4 scale(T scale) const</text><line style="stroke: #A80036; stroke-width: 1.0;" x1="63" x2="329" y1="696.5078" y2="696.5078"/><text fill="#000000" font-family="sans-serif" font-size="11" font-style="italic" lengthAdjust="spacingAndGlyphs" textLength="209" x="68" y="710.7183">many operators refering to methods</text><rect fill="#FEFECE" filter="url(#f1)" height="53.9375" style="stroke: #A80036; stroke-width: 1.5;" width="115" x="464.75" y="557"/><ellipse cx="479.75" cy="575.9688" fill="#ADD1B2" rx="11" ry="11" style="stroke: #A80036; stroke-width: 1.0;"/><path d="M482.7188,581.6094 Q482.1406,581.9063 481.5,582.0547 Q480.8594,582.2031 480.1563,582.2031 Q477.6563,582.2031 476.3359,580.5547 Q475.0156,578.9063 475.0156,575.7813 Q475.0156,572.6563 476.3359,571 Q477.6563,569.3438 480.1563,569.3438 Q480.8594,569.3438 481.5078,569.5 Q482.1563,569.6563 482.7188,569.9531 L482.7188,572.6719 Q482.0938,572.0938 481.5,571.8203 Q480.9063,571.5469 480.2813,571.5469 Q478.9375,571.5469 478.25,572.6172 Q477.5625,573.6875 477.5625,575.7813 Q477.5625,577.875 478.25,578.9453 Q478.9375,580.0156 480.2813,580.0156 Q480.9063,580.0156 481.5,579.7422 Q482.0938,579.4688 482.7188,578.8906 L482.7188,581.6094 Z "/><text fill="#000000" font-family="sans-serif" font-size="12" font-style="italic" lengthAdjust="spacingAndGlyphs" textLength="87" x="491.75" y="573.1387">«typename T»</text><text fill="#000000" font-family="sans-serif" font-size="12" lengthAdjust="spacingAndGlyphs" textLength="59" x="505.75" y="587.1074">Matrix4x4</text><line style="stroke: #A80036; stroke-width: 1.5;" x1="465.75" x2="578.75" y1="594.9375" y2="594.9375"/><line style="stroke: #A80036; stroke-width: 1.5;" x1="465.75" x2="578.75" y1="602.9375" y2="602.9375"/><rect fill="#FEFECE" filter="url(#f1)" height="170.3438" style="stroke: #A80036; stroke-width: 1.5;" width="186" x="707.5" y="153"/><ellipse cx="754.75" cy="178.9531" fill="#ADD1B2" rx="11" ry="11" style="stroke: #A80036; stroke-width: 1.0;"/><path d="M757.7188,184.5938 Q757.1406,184.8906 756.5,185.0391 Q755.8594,185.1875 755.1563,185.1875 Q752.6563,185.1875 751.3359,183.5391 Q750.0156,181.8906 750.0156,178.7656 Q750.0156,175.6406 751.3359,173.9844 Q752.6563,172.3281 755.1563,172.3281 Q755.8594,172.3281 756.5078,172.4844 Q757.1563,172.6406 757.7188,172.9375 L757.7188,175.6563 Q757.0938,175.0781 756.5,174.8047 Q755.9063,174.5313 755.2813,174.5313 Q753.9375,174.5313 753.25,175.6016 Q752.5625,176.6719 752.5625,178.7656 Q752.5625,180.8594 753.25,181.9297 Q753.9375,183 755.2813,183 Q755.9063,183 756.5,182.7266 Q757.0938,182.4531 757.7188,181.875 L757.7188,184.5938 Z "/><text fill="#000000" font-family="sans-serif" font-size="12" font-style="italic" lengthAdjust="spacingAndGlyphs" textLength="72" x="780.75" y="169.1387">«singleton»</text><text fill="#000000" font-family="sans-serif" font-size="12" font-style="italic" lengthAdjust="spacingAndGlyphs" textLength="87" x="773.25" y="183.1074">«typename T»</text><text fill="#000000" font-family="sans-serif" font-size="12" lengthAdjust="spacingAndGlyphs" textLength="41" x="796.25" y="197.0762">Helper</text><line style="stroke: #A80036; stroke-width: 1.5;" x1="708.5" x2="892.5" y1="204.9063" y2="204.9063"/><text fill="#000000" font-family="sans-serif" font-size="11" lengthAdjust="spacingAndGlyphs" textLength="60" x="713.5" y="219.1167">T coses[X]</text><text fill="#000000" font-family="sans-serif" font-size="11" lengthAdjust="spacingAndGlyphs" textLength="57" x="713.5" y="231.9214">T sines[X]</text><text fill="#000000" font-family="sans-serif" font-size="11" lengthAdjust="spacingAndGlyphs" textLength="58" x="713.5" y="244.7261">T tanes[X]</text><line style="stroke: #A80036; stroke-width: 1.5;" x1="708.5" x2="892.5" y1="251.3203" y2="251.3203"/><text fill="#000000" font-family="sans-serif" font-size="11" lengthAdjust="spacingAndGlyphs" textLength="52" x="713.5" y="265.5308">void init()</text><text fill="#000000" font-family="sans-serif" font-size="11" lengthAdjust="spacingAndGlyphs" textLength="78" x="713.5" y="278.3354">void destroy()</text><text fill="#000000" font-family="sans-serif" font-size="11" lengthAdjust="spacingAndGlyphs" textLength="160" x="713.5" y="291.1401">T getCosinus(T angle) const</text><text fill="#000000" font-family="sans-serif" font-size="11" lengthAdjust="spacingAndGlyphs" textLength="146" x="713.5" y="303.9448">T getSinus(T angle) const</text><text fill="#000000" font-family="sans-serif" font-size="11" lengthAdjust="spacingAndGlyphs" textLength="174" x="713.5" y="316.7495">T getTangeante(T angle) const</text><rect fill="#FEFECE" filter="url(#f1)" height="73.6094" style="stroke: #A80036; stroke-width: 1.5;" width="91" x="949.75" y="547"/><ellipse cx="964.75" cy="563" fill="#ADD1B2" rx="11" ry="11" style="stroke: #A80036; stroke-width: 1.0;"/><path d="M967.7188,568.6406 Q967.1406,568.9375 966.5,569.0859 Q965.8594,569.2344 965.1563,569.2344 Q962.6563,569.2344 961.3359,567.5859 Q960.0156,565.9375 960.0156,562.8125 Q960.0156,559.6875 961.3359,558.0313 Q962.6563,556.375 965.1563,556.375 Q965.8594,556.375 966.5078,556.5313 Q967.1563,556.6875 967.7188,556.9844 L967.7188,559.7031 Q967.0938,559.125 966.5,558.8516 Q965.9063,558.5781 965.2813,558.5781 Q963.9375,558.5781 963.25,559.6484 Q962.5625,560.7188 962.5625,562.8125 Q962.5625,564.9063 963.25,565.9766 Q963.9375,567.0469 965.2813,567.0469 Q965.9063,567.0469 966.5,566.7734 Q967.0938,566.5 967.7188,565.9219 L967.7188,568.6406 Z "/><text fill="#000000" font-family="sans-serif" font-size="12" lengthAdjust="spacingAndGlyphs" textLength="59" x="978.75" y="567.1543">Singleton</text><line style="stroke: #A80036; stroke-width: 1.5;" x1="950.75" x2="1039.75" y1="579" y2="579"/><line style="stroke: #A80036; stroke-width: 1.5;" x1="950.75" x2="1039.75" y1="587" y2="587"/><text fill="#000000" font-family="sans-serif" font-size="11" font-style="italic" lengthAdjust="spacingAndGlyphs" textLength="52" x="955.75" y="601.2104">void init()</text><text fill="#000000" font-family="sans-serif" font-size="11" font-style="italic" lengthAdjust="spacingAndGlyphs" textLength="78" x="955.75" y="614.0151">void destroy()</text><path d="M800,323.152 C800,387.318 800,473.782 800,528.972 " fill="none" style="stroke: #A80036; stroke-width: 1.0;"/><polygon fill="#A80036" points="800,534.214,804,525.214,800,529.214,796,525.214,800,534.214" style="stroke: #A80036; stroke-width: 1.0;"/><text fill="#000000" font-family="sans-serif" font-size="13" lengthAdjust="spacingAndGlyphs" textLength="30" x="801" y="415.0669">uses</text><path d="M847.702,323.152 C884.171,387.486 933.345,474.234 964.619,529.405 " fill="none" style="stroke: #A80036; stroke-width: 1.0;"/><polygon fill="none" points="970.721,525.975,974.494,546.826,958.542,532.879,970.721,525.975" style="stroke: #A80036; stroke-width: 1.0;"/></g></svg>