<?xml version="1.0" encoding="UTF-8" standalone="yes"?><svg xmlns="http://www.w3.org/2000/svg" xmlns:xlink="http://www.w3.org/1999/xlink" height="721px" style="width:1392px;height:721px;" version="1.1" viewBox="0 0 1392 721" width="1392px"><defs><filter height="300%" id="f1" width="300%" x="-1" y="-1"><feGaussianBlur result="blurOut" stdDeviation="2.0"/><feColorMatrix in="blurOut" result="blurOut2" type="matrix" values="0 0 0 0 0 0 0 0 0 0 0 0 0 0 0 0 0 0 .4 0"/><feOffset dx="4.0" dy="4.0" in="blurOut2" result="blurOut3"/><feBlend in="SourceGraphic" in2="blurOut3" mode="normal"/></filter></defs><g><polygon fill="#FFFFFF" filter="url(#f1)" points="22,24,59,24,66,46.2969,1385,46.2969,1385,714,22,714,22,24" style="stroke: #000000; stroke-width: 2.0;"/><line style="stroke: #000000; stroke-width: 2.0;" x1="22" x2="66" y1="46.2969" y2="46.2969"/><text fill="#000000" font-family="sans-serif" font-size="14" font-weight="bold" lengthAdjust="spacingAndGlyphs" textLength="31" x="26" y="38.9951">slim</text><polygon fill="#FFFFFF" filter="url(#f1)" points="46,68,100,68,107,90.2969,1213,90.2969,1213,690,46,690,46,68" style="stroke: #000000; stroke-width: 2.0;"/><line style="stroke: #000000; stroke-width: 2.0;" x1="46" x2="107" y1="90.2969" y2="90.2969"/><text fill="#000000" font-family="sans-serif" font-size="14" font-weight="bold" lengthAdjust="spacingAndGlyphs" textLength="48" x="50" y="82.9951">maths</text><polygon fill="#FFFFFF" filter="url(#f1)" points="1237,489,1279,489,1286,511.2969,1361,511.2969,1361,615,1237,615,1237,489" style="stroke: #000000; stroke-width: 2.0;"/><line style="stroke: #000000; stroke-width: 2.0;" x1="1237" x2="1286" y1="511.2969" y2="511.2969"/><text fill="#000000" font-family="sans-serif" font-size="14" font-weight="bold" lengthAdjust="spacingAndGlyphs" textLength="36" x="1241" y="503.9951">core</text><rect fill="#FEFECE" filter="url(#f1)" height="99.2188" style="stroke: #A80036; stroke-width: 1.5;" width="172" x="1018" y="512.5"/><ellipse cx="1092.75" cy="528.5" fill="#ADD1B2" rx="11" ry="11" style="stroke: #A80036; stroke-width: 1.0;"/><path d="M1095.7188,534.1406 Q1095.1406,534.4375 1094.5,534.5859 Q1093.8594,534.7344 1093.1563,534.7344 Q1090.6563,534.7344 1089.3359,533.0859 Q1088.0156,531.4375 1088.0156,528.3125 Q1088.0156,525.1875 1089.3359,523.5313 Q1090.6563,521.875 1093.1563,521.875 Q1093.8594,521.875 1094.5078,522.0313 Q1095.1563,522.1875 1095.7188,522.4844 L1095.7188,525.2031 Q1095.0938,524.625 1094.5,524.3516 Q1093.9063,524.0781 1093.2813,524.0781 Q1091.9375,524.0781 1091.25,525.1484 Q1090.5625,526.2188 1090.5625,528.3125 Q1090.5625,530.4063 1091.25,531.4766 Q1091.9375,532.5469 1093.2813,532.5469 Q1093.9063,532.5469 1094.5,532.2734 Q1095.0938,532 1095.7188,531.4219 L1095.7188,534.1406 Z "/><text fill="#000000" font-family="sans-serif" font-size="12" lengthAdjust="spacingAndGlyphs" textLength="14" x="1113.25" y="532.6543">lib</text><line style="stroke: #A80036; stroke-width: 1.5;" x1="1019" x2="1189" y1="544.5" y2="544.5"/><line style="stroke: #A80036; stroke-width: 1.5;" x1="1019" x2="1189" y1="552.5" y2="552.5"/><text fill="#000000" font-family="sans-serif" font-size="11" lengthAdjust="spacingAndGlyphs" text-decoration="underline" textLength="139" x="1024" y="566.7104">«template T» T sqrt(T n)</text><line style="stroke: #000000; stroke-width: 1.0;" x1="1024" x2="1163" y1="568.7104" y2="568.7104"/><text fill="#000000" font-family="sans-serif" font-size="11" lengthAdjust="spacingAndGlyphs" text-decoration="underline" textLength="160" x="1024" y="579.5151">«template T» T cos(T angle)</text><line style="stroke: #000000; stroke-width: 1.0;" x1="1024" x2="1184" y1="581.5151" y2="581.5151"/><text fill="#000000" font-family="sans-serif" font-size="11" lengthAdjust="spacingAndGlyphs" text-decoration="underline" textLength="157" x="1024" y="592.3198">«template T» T sin(T angle)</text><line style="stroke: #000000; stroke-width: 1.0;" x1="1024" x2="1181" y1="594.3198" y2="594.3198"/><text fill="#000000" font-family="sans-serif" font-size="11" lengthAdjust="spacingAndGlyphs" text-decoration="underline" textLength="158" x="1024" y="605.1245">«template T» T tan(T angle)</text><line style="stroke: #000000; stroke-width: 1.0;" x1="1024" x2="1182" y1="607.1245" y2="607.1245"/><rect fill="#FEFECE" filter="url(#f1)" height="241.2031" style="stroke: #A80036; stroke-width: 1.5;" width="268" x="708" y="117.5"/><ellipse cx="796.25" cy="136.4688" fill="#ADD1B2" rx="11" ry="11" style="stroke: #A80036; stroke-width: 1.0;"/><path d="M799.2188,142.1094 Q798.6406,142.4063 798,142.5547 Q797.3594,142.7031 796.6563,142.7031 Q794.1563,142.7031 792.8359,141.0547 Q791.5156,139.4063 791.5156,136.2813 Q791.5156,133.1563 792.8359,131.5 Q794.1563,129.8438 796.6563,129.8438 Q797.3594,129.8438 798.0078,130 Q798.6563,130.1563 799.2188,130.4531 L799.2188,133.1719 Q798.5938,132.5938 798,132.3203 Q797.4063,132.0469 796.7813,132.0469 Q795.4375,132.0469 794.75,133.1172 Q794.0625,134.1875 794.0625,136.2813 Q794.0625,138.375 794.75,139.4453 Q795.4375,140.5156 796.7813,140.5156 Q797.4063,140.5156 798,140.2422 Q798.5938,139.9688 799.2188,139.3906 L799.2188,142.1094 Z "/><text fill="#000000" font-family="sans-serif" font-size="12" font-style="italic" lengthAdjust="spacingAndGlyphs" textLength="87" x="814.75" y="133.6387">«typename T»</text><text fill="#000000" font-family="sans-serif" font-size="12" lengthAdjust="spacingAndGlyphs" textLength="49" x="833.75" y="147.6074">Vector2</text><line style="stroke: #A80036; stroke-width: 1.5;" x1="709" x2="975" y1="155.4375" y2="155.4375"/><text fill="#000000" font-family="sans-serif" font-size="11" lengthAdjust="spacingAndGlyphs" textLength="17" x="714" y="169.6479">T x</text><text fill="#000000" font-family="sans-serif" font-size="11" lengthAdjust="spacingAndGlyphs" textLength="17" x="714" y="182.4526">T y</text><line style="stroke: #A80036; stroke-width: 1.0;" x1="709" x2="975" y1="189.0469" y2="189.0469"/><text fill="#000000" font-family="sans-serif" font-size="11" lengthAdjust="spacingAndGlyphs" textLength="103" x="714" y="203.2573">T getNorm() const</text><text fill="#000000" font-family="sans-serif" font-size="11" lengthAdjust="spacingAndGlyphs" textLength="151" x="714" y="216.062">T getSquaredNorm() const</text><text fill="#000000" font-family="sans-serif" font-size="11" lengthAdjust="spacingAndGlyphs" textLength="256" x="714" y="228.8667">T crossProduct(const Vector2&amp; vector) const</text><text fill="#000000" font-family="sans-serif" font-size="11" lengthAdjust="spacingAndGlyphs" textLength="236" x="714" y="241.6714">bool equals(const Vector2&amp; vector) const</text><text fill="#000000" font-family="sans-serif" font-size="11" lengthAdjust="spacingAndGlyphs" textLength="90" x="714" y="254.4761">void normalize()</text><text fill="#000000" font-family="sans-serif" font-size="11" lengthAdjust="spacingAndGlyphs" textLength="197" x="714" y="267.2808">void addTo(const Vector2&amp; vector)</text><text fill="#000000" font-family="sans-serif" font-size="11" lengthAdjust="spacingAndGlyphs" textLength="197" x="714" y="280.0854">void subTo(const Vector2&amp; vector)</text><text fill="#000000" font-family="sans-serif" font-size="11" lengthAdjust="spacingAndGlyphs" textLength="120" x="714" y="292.8901">void scaleTo(T scale)</text><text fill="#000000" font-family="sans-serif" font-size="11" lengthAdjust="spacingAndGlyphs" textLength="238" x="714" y="305.6948">Vector2 add(const Vector2&amp; vector) const</text><text fill="#000000" font-family="sans-serif" font-size="11" lengthAdjust="spacingAndGlyphs" textLength="238" x="714" y="318.4995">Vector2 sub(const Vector2&amp; vector) const</text><text fill="#000000" font-family="sans-serif" font-size="11" lengthAdjust="spacingAndGlyphs" textLength="161" x="714" y="331.3042">Vector2 scale(T scale) const</text><line style="stroke: #A80036; stroke-width: 1.0;" x1="709" x2="975" y1="337.8984" y2="337.8984"/><text fill="#000000" font-family="sans-serif" font-size="11" font-style="italic" lengthAdjust="spacingAndGlyphs" textLength="209" x="714" y="352.1089">many operators refering to methods</text><rect fill="#FEFECE" filter="url(#f1)" height="266.8125" style="stroke: #A80036; stroke-width: 1.5;" width="307" x="365.75" y="104.5"/><ellipse cx="473.5" cy="123.4688" fill="#ADD1B2" rx="11" ry="11" style="stroke: #A80036; stroke-width: 1.0;"/><path d="M476.4688,129.1094 Q475.8906,129.4063 475.25,129.5547 Q474.6094,129.7031 473.9063,129.7031 Q471.4063,129.7031 470.0859,128.0547 Q468.7656,126.4063 468.7656,123.2813 Q468.7656,120.1563 470.0859,118.5 Q471.4063,116.8438 473.9063,116.8438 Q474.6094,116.8438 475.2578,117 Q475.9063,117.1563 476.4688,117.4531 L476.4688,120.1719 Q475.8438,119.5938 475.25,119.3203 Q474.6563,119.0469 474.0313,119.0469 Q472.6875,119.0469 472,120.1172 Q471.3125,121.1875 471.3125,123.2813 Q471.3125,125.375 472,126.4453 Q472.6875,127.5156 474.0313,127.5156 Q474.6563,127.5156 475.25,127.2422 Q475.8438,126.9688 476.4688,126.3906 L476.4688,129.1094 Z "/><text fill="#000000" font-family="sans-serif" font-size="12" font-style="italic" lengthAdjust="spacingAndGlyphs" textLength="87" x="492" y="120.6387">«typename T»</text><text fill="#000000" font-family="sans-serif" font-size="12" lengthAdjust="spacingAndGlyphs" textLength="49" x="511" y="134.6074">Vector3</text><line style="stroke: #A80036; stroke-width: 1.5;" x1="366.75" x2="671.75" y1="142.4375" y2="142.4375"/><text fill="#000000" font-family="sans-serif" font-size="11" lengthAdjust="spacingAndGlyphs" textLength="17" x="371.75" y="156.6479">T x</text><text fill="#000000" font-family="sans-serif" font-size="11" lengthAdjust="spacingAndGlyphs" textLength="17" x="371.75" y="169.4526">T y</text><text fill="#000000" font-family="sans-serif" font-size="11" lengthAdjust="spacingAndGlyphs" textLength="16" x="371.75" y="182.2573">T z</text><line style="stroke: #A80036; stroke-width: 1.0;" x1="366.75" x2="671.75" y1="188.8516" y2="188.8516"/><text fill="#000000" font-family="sans-serif" font-size="11" lengthAdjust="spacingAndGlyphs" textLength="103" x="371.75" y="203.062">T getNorm() const</text><text fill="#000000" font-family="sans-serif" font-size="11" lengthAdjust="spacingAndGlyphs" textLength="151" x="371.75" y="215.8667">T getSquaredNorm() const</text><text fill="#000000" font-family="sans-serif" font-size="11" lengthAdjust="spacingAndGlyphs" textLength="256" x="371.75" y="228.6714">T crossProduct(const Vector3&amp; vector) const</text><text fill="#000000" font-family="sans-serif" font-size="11" lengthAdjust="spacingAndGlyphs" textLength="236" x="371.75" y="241.4761">bool equals(const Vector3&amp; vector) const</text><text fill="#000000" font-family="sans-serif" font-size="11" lengthAdjust="spacingAndGlyphs" textLength="90" x="371.75" y="254.2808">void normalize()</text><text fill="#000000" font-family="sans-serif" font-size="11" lengthAdjust="spacingAndGlyphs" textLength="197" x="371.75" y="267.0854">void addTo(const Vector3&amp; vector)</text><text fill="#000000" font-family="sans-serif" font-size="11" lengthAdjust="spacingAndGlyphs" textLength="197" x="371.75" y="279.8901">void subTo(const Vector3&amp; vector)</text><text fill="#000000" font-family="sans-serif" font-size="11" lengthAdjust="spacingAndGlyphs" textLength="120" x="371.75" y="292.6948">void scaleTo(T scale)</text><text fill="#000000" font-family="sans-serif" font-size="11" lengthAdjust="spacingAndGlyphs" textLength="238" x="371.75" y="305.4995">Vector3 add(const Vector3&amp; vector) const</text><text fill="#000000" font-family="sans-serif" font-size="11" lengthAdjust="spacingAndGlyphs" textLength="238" x="371.75" y="318.3042">Vector3 sub(const Vector3&amp; vector) const</text><text fill="#000000" font-family="sans-serif" font-size="11" lengthAdjust="spacingAndGlyphs" textLength="295" x="371.75" y="331.1089">Vector3 vectorProduct(const Vector3&amp; vector) const</text><text fill="#000000" font-family="sans-serif" font-size="11" lengthAdjust="spacingAndGlyphs" textLength="161" x="371.75" y="343.9136">Vector3 scale(T scale) const</text><line style="stroke: #A80036; stroke-width: 1.0;" x1="366.75" x2="671.75" y1="350.5078" y2="350.5078"/><text fill="#000000" font-family="sans-serif" font-size="11" font-style="italic" lengthAdjust="spacingAndGlyphs" textLength="209" x="371.75" y="364.7183">many operators refering to methods</text><rect fill="#FEFECE" filter="url(#f1)" height="266.8125" style="stroke: #A80036; stroke-width: 1.5;" width="268" x="62" y="104.5"/><ellipse cx="150.25" cy="123.4688" fill="#ADD1B2" rx="11" ry="11" style="stroke: #A80036; stroke-width: 1.0;"/><path d="M153.2188,129.1094 Q152.6406,129.4063 152,129.5547 Q151.3594,129.7031 150.6563,129.7031 Q148.1563,129.7031 146.8359,128.0547 Q145.5156,126.4063 145.5156,123.2813 Q145.5156,120.1563 146.8359,118.5 Q148.1563,116.8438 150.6563,116.8438 Q151.3594,116.8438 152.0078,117 Q152.6563,117.1563 153.2188,117.4531 L153.2188,120.1719 Q152.5938,119.5938 152,119.3203 Q151.4063,119.0469 150.7813,119.0469 Q149.4375,119.0469 148.75,120.1172 Q148.0625,121.1875 148.0625,123.2813 Q148.0625,125.375 148.75,126.4453 Q149.4375,127.5156 150.7813,127.5156 Q151.4063,127.5156 152,127.2422 Q152.5938,126.9688 153.2188,126.3906 L153.2188,129.1094 Z "/><text fill="#000000" font-family="sans-serif" font-size="12" font-style="italic" lengthAdjust="spacingAndGlyphs" textLength="87" x="168.75" y="120.6387">«typename T»</text><text fill="#000000" font-family="sans-serif" font-size="12" lengthAdjust="spacingAndGlyphs" textLength="49" x="187.75" y="134.6074">Vector4</text><line style="stroke: #A80036; stroke-width: 1.5;" x1="63" x2="329" y1="142.4375" y2="142.4375"/><text fill="#000000" font-family="sans-serif" font-size="11" lengthAdjust="spacingAndGlyphs" textLength="17" x="68" y="156.6479">T x</text><text fill="#000000" font-family="sans-serif" font-size="11" lengthAdjust="spacingAndGlyphs" textLength="17" x="68" y="169.4526">T y</text><text fill="#000000" font-family="sans-serif" font-size="11" lengthAdjust="spacingAndGlyphs" textLength="16" x="68" y="182.2573">T z</text><text fill="#000000" font-family="sans-serif" font-size="11" lengthAdjust="spacingAndGlyphs" textLength="20" x="68" y="195.062">T w</text><line style="stroke: #A80036; stroke-width: 1.0;" x1="63" x2="329" y1="201.6563" y2="201.6563"/><text fill="#000000" font-family="sans-serif" font-size="11" lengthAdjust="spacingAndGlyphs" textLength="103" x="68" y="215.8667">T getNorm() const</text><text fill="#000000" font-family="sans-serif" font-size="11" lengthAdjust="spacingAndGlyphs" textLength="151" x="68" y="228.6714">T getSquaredNorm() const</text><text fill="#000000" font-family="sans-serif" font-size="11" lengthAdjust="spacingAndGlyphs" textLength="256" x="68" y="241.4761">T crossProduct(const Vector4&amp; vector) const</text><text fill="#000000" font-family="sans-serif" font-size="11" lengthAdjust="spacingAndGlyphs" textLength="236" x="68" y="254.2808">bool equals(const Vector4&amp; vector) const</text><text fill="#000000" font-family="sans-serif" font-size="11" lengthAdjust="spacingAndGlyphs" textLength="90" x="68" y="267.0854">void normalize()</text><text fill="#000000" font-family="sans-serif" font-size="11" lengthAdjust="spacingAndGlyphs" textLength="197" x="68" y="279.8901">void addTo(const Vector4&amp; vector)</text><text fill="#000000" font-family="sans-serif" font-size="11" lengthAdjust="spacingAndGlyphs" textLength="197" x="68" y="292.6948">void subTo(const Vector4&amp; vector)</text><text fill="#000000" font-family="sans-serif" font-size="11" lengthAdjust="spacingAndGlyphs" textLength="120" x="68" y="305.4995">void scaleTo(T scale)</text><text fill="#000000" font-family="sans-serif" font-size="11" lengthAdjust="spacingAndGlyphs" textLength="238" x="68" y="318.3042">Vector4 add(const Vector4&amp; vector) const</text><text fill="#000000" font-family="sans-serif" font-size="11" lengthAdjust="spacingAndGlyphs" textLength="238" x="68" y="331.1089">Vector4 sub(const Vector4&amp; vector) const</text><text fill="#000000" font-family="sans-serif" font-size="11" lengthAdjust="spacingAndGlyphs" textLength="161" x="68" y="343.9136">Vector4 scale(T scale) const</text><line style="stroke: #A80036; stroke-width: 1.0;" x1="63" x2="329" y1="350.5078" y2="350.5078"/><text fill="#000000" font-family="sans-serif" font-size="11" font-style="italic" lengthAdjust="spacingAndGlyphs" textLength="209" x="68" y="364.7183">many operators refering to methods</text><rect fill="#FEFECE" filter="url(#f1)" height="194.7891" style="stroke: #A80036; stroke-width: 1.5;" width="470" x="62" y="464.5"/><ellipse cx="251.25" cy="483.4688" fill="#ADD1B2" rx="11" ry="11" style="stroke: #A80036; stroke-width: 1.0;"/><path d="M254.2188,489.1094 Q253.6406,489.4063 253,489.5547 Q252.3594,489.7031 251.6563,489.7031 Q249.1563,489.7031 247.8359,488.0547 Q246.5156,486.4063 246.5156,483.2813 Q246.5156,480.1563 247.8359,478.5 Q249.1563,476.8438 251.6563,476.8438 Q252.3594,476.8438 253.0078,477 Q253.6563,477.1563 254.2188,477.4531 L254.2188,480.1719 Q253.5938,479.5938 253,479.3203 Q252.4063,479.0469 251.7813,479.0469 Q250.4375,479.0469 249.75,480.1172 Q249.0625,481.1875 249.0625,483.2813 Q249.0625,485.375 249.75,486.4453 Q250.4375,487.5156 251.7813,487.5156 Q252.4063,487.5156 253,487.2422 Q253.5938,486.9688 254.2188,486.3906 L254.2188,489.1094 Z "/><text fill="#000000" font-family="sans-serif" font-size="12" font-style="italic" lengthAdjust="spacingAndGlyphs" textLength="87" x="269.75" y="480.6387">«typename T»</text><text fill="#000000" font-family="sans-serif" font-size="12" lengthAdjust="spacingAndGlyphs" textLength="59" x="283.75" y="494.6074">Matrix4x4</text><line style="stroke: #A80036; stroke-width: 1.5;" x1="63" x2="531" y1="502.4375" y2="502.4375"/><text fill="#000000" font-family="sans-serif" font-size="11" lengthAdjust="spacingAndGlyphs" textLength="90" x="68" y="516.6479">Vector4 rows[4]</text><line style="stroke: #A80036; stroke-width: 1.5;" x1="63" x2="531" y1="523.2422" y2="523.2422"/><text fill="#000000" font-family="sans-serif" font-size="11" lengthAdjust="spacingAndGlyphs" textLength="98" x="68" y="537.4526">void setIdentity();</text><text fill="#000000" font-family="sans-serif" font-size="11" lengthAdjust="spacingAndGlyphs" textLength="141" x="68" y="550.2573">void setAllElements(T n);</text><text fill="#000000" font-family="sans-serif" font-size="11" lengthAdjust="spacingAndGlyphs" textLength="97" x="68" y="563.062">void transpose();</text><text fill="#000000" font-family="sans-serif" font-size="11" lengthAdjust="spacingAndGlyphs" textLength="217" x="68" y="575.8667">void translate(const Vector3&amp; vector);</text><text fill="#000000" font-family="sans-serif" font-size="11" lengthAdjust="spacingAndGlyphs" textLength="122" x="68" y="588.6714">void rotateX(T angle);</text><text fill="#000000" font-family="sans-serif" font-size="11" lengthAdjust="spacingAndGlyphs" textLength="122" x="68" y="601.4761">void rotateY(T angle);</text><text fill="#000000" font-family="sans-serif" font-size="11" lengthAdjust="spacingAndGlyphs" textLength="124" x="68" y="614.2808">void rotateZ(T angle);</text><text fill="#000000" font-family="sans-serif" font-size="11" lengthAdjust="spacingAndGlyphs" textLength="196" x="68" y="627.0854">void scale(const Vector3&amp; vector);</text><text fill="#000000" font-family="sans-serif" font-size="11" lengthAdjust="spacingAndGlyphs" textLength="367" x="68" y="639.8901">void perspective(T angle, T aspectRatio, T minView, T maxView);</text><text fill="#000000" font-family="sans-serif" font-size="11" lengthAdjust="spacingAndGlyphs" textLength="458" x="68" y="652.6948">void lookAt(const Vector3&amp; position, const Vector3&amp; target, const Vector3&amp; up);</text><rect fill="#FEFECE" filter="url(#f1)" height="223.5938" style="stroke: #A80036; stroke-width: 1.5;" width="338" x="567.5" y="450"/><ellipse cx="690.75" cy="468.9688" fill="#ADD1B2" rx="11" ry="11" style="stroke: #A80036; stroke-width: 1.0;"/><path d="M693.7188,474.6094 Q693.1406,474.9063 692.5,475.0547 Q691.8594,475.2031 691.1563,475.2031 Q688.6563,475.2031 687.3359,473.5547 Q686.0156,471.9063 686.0156,468.7813 Q686.0156,465.6563 687.3359,464 Q688.6563,462.3438 691.1563,462.3438 Q691.8594,462.3438 692.5078,462.5 Q693.1563,462.6563 693.7188,462.9531 L693.7188,465.6719 Q693.0938,465.0938 692.5,464.8203 Q691.9063,464.5469 691.2813,464.5469 Q689.9375,464.5469 689.25,465.6172 Q688.5625,466.6875 688.5625,468.7813 Q688.5625,470.875 689.25,471.9453 Q689.9375,473.0156 691.2813,473.0156 Q691.9063,473.0156 692.5,472.7422 Q693.0938,472.4688 693.7188,471.8906 L693.7188,474.6094 Z "/><text fill="#000000" font-family="sans-serif" font-size="12" font-style="italic" lengthAdjust="spacingAndGlyphs" textLength="87" x="709.25" y="466.1387">«typename T»</text><text fill="#000000" font-family="sans-serif" font-size="12" lengthAdjust="spacingAndGlyphs" textLength="70" x="717.75" y="480.1074">Quaternion</text><line style="stroke: #A80036; stroke-width: 1.5;" x1="568.5" x2="904.5" y1="487.9375" y2="487.9375"/><text fill="#000000" font-family="sans-serif" font-size="11" lengthAdjust="spacingAndGlyphs" textLength="82" x="573.5" y="502.1479">Vector3 vector</text><text fill="#000000" font-family="sans-serif" font-size="11" lengthAdjust="spacingAndGlyphs" textLength="42" x="573.5" y="514.9526">T angle</text><line style="stroke: #A80036; stroke-width: 1.0;" x1="568.5" x2="904.5" y1="521.5469" y2="521.5469"/><text fill="#000000" font-family="sans-serif" font-size="11" lengthAdjust="spacingAndGlyphs" textLength="90" x="573.5" y="535.7573">void conjugate()</text><text fill="#000000" font-family="sans-serif" font-size="11" lengthAdjust="spacingAndGlyphs" textLength="67" x="573.5" y="548.562">void invert()</text><text fill="#000000" font-family="sans-serif" font-size="11" lengthAdjust="spacingAndGlyphs" textLength="315" x="573.5" y="561.3667">Quaternion&amp; productTo(const Quaternion&amp; quaternion)</text><text fill="#000000" font-family="sans-serif" font-size="11" lengthAdjust="spacingAndGlyphs" textLength="326" x="573.5" y="574.1714">Quaternion product(const Quaternion&amp; quaternion) const</text><text fill="#000000" font-family="sans-serif" font-size="11" lengthAdjust="spacingAndGlyphs" textLength="144" x="573.5" y="586.9761">bool isNormalized() const</text><text fill="#000000" font-family="sans-serif" font-size="11" lengthAdjust="spacingAndGlyphs" textLength="103" x="573.5" y="599.7808">T getNorm() const</text><text fill="#000000" font-family="sans-serif" font-size="11" lengthAdjust="spacingAndGlyphs" textLength="178" x="573.5" y="612.5854">const Vector&amp; asVector() const</text><text fill="#000000" font-family="sans-serif" font-size="11" lengthAdjust="spacingAndGlyphs" textLength="108" x="573.5" y="625.3901">Vector&amp; asVector()</text><line style="stroke: #A80036; stroke-width: 1.0;" x1="568.5" x2="904.5" y1="631.9844" y2="631.9844"/><text fill="#000000" font-family="sans-serif" font-size="11" lengthAdjust="spacingAndGlyphs" textLength="196" x="573.5" y="646.1948">void rotate(Vector3&amp; vector) const</text><line style="stroke: #A80036; stroke-width: 1.0;" x1="568.5" x2="904.5" y1="652.7891" y2="652.7891"/><text fill="#000000" font-family="sans-serif" font-size="11" font-style="italic" lengthAdjust="spacingAndGlyphs" textLength="209" x="573.5" y="666.9995">many operators refering to methods</text><rect fill="#FEFECE" filter="url(#f1)" height="170.3438" style="stroke: #A80036; stroke-width: 1.5;" width="186" x="1011.5" y="153"/><ellipse cx="1058.75" cy="178.9531" fill="#ADD1B2" rx="11" ry="11" style="stroke: #A80036; stroke-width: 1.0;"/><path d="M1061.7188,184.5938 Q1061.1406,184.8906 1060.5,185.0391 Q1059.8594,185.1875 1059.1563,185.1875 Q1056.6563,185.1875 1055.3359,183.5391 Q1054.0156,181.8906 1054.0156,178.7656 Q1054.0156,175.6406 1055.3359,173.9844 Q1056.6563,172.3281 1059.1563,172.3281 Q1059.8594,172.3281 1060.5078,172.4844 Q1061.1563,172.6406 1061.7188,172.9375 L1061.7188,175.6563 Q1061.0938,175.0781 1060.5,174.8047 Q1059.9063,174.5313 1059.2813,174.5313 Q1057.9375,174.5313 1057.25,175.6016 Q1056.5625,176.6719 1056.5625,178.7656 Q1056.5625,180.8594 1057.25,181.9297 Q1057.9375,183 1059.2813,183 Q1059.9063,183 1060.5,182.7266 Q1061.0938,182.4531 1061.7188,181.875 L1061.7188,184.5938 Z "/><text fill="#000000" font-family="sans-serif" font-size="12" font-style="italic" lengthAdjust="spacingAndGlyphs" textLength="72" x="1084.75" y="169.1387">«singleton»</text><text fill="#000000" font-family="sans-serif" font-size="12" font-style="italic" lengthAdjust="spacingAndGlyphs" textLength="87" x="1077.25" y="183.1074">«typename T»</text><text fill="#000000" font-family="sans-serif" font-size="12" lengthAdjust="spacingAndGlyphs" textLength="41" x="1100.25" y="197.0762">Helper</text><line style="stroke: #A80036; stroke-width: 1.5;" x1="1012.5" x2="1196.5" y1="204.9063" y2="204.9063"/><text fill="#000000" font-family="sans-serif" font-size="11" lengthAdjust="spacingAndGlyphs" textLength="60" x="1017.5" y="219.1167">T coses[X]</text><text fill="#000000" font-family="sans-serif" font-size="11" lengthAdjust="spacingAndGlyphs" textLength="57" x="1017.5" y="231.9214">T sines[X]</text><text fill="#000000" font-family="sans-serif" font-size="11" lengthAdjust="spacingAndGlyphs" textLength="58" x="1017.5" y="244.7261">T tanes[X]</text><line style="stroke: #A80036; stroke-width: 1.5;" x1="1012.5" x2="1196.5" y1="251.3203" y2="251.3203"/><text fill="#000000" font-family="sans-serif" font-size="11" lengthAdjust="spacingAndGlyphs" textLength="52" x="1017.5" y="265.5308">void init()</text><text fill="#000000" font-family="sans-serif" font-size="11" lengthAdjust="spacingAndGlyphs" textLength="78" x="1017.5" y="278.3354">void destroy()</text><text fill="#000000" font-family="sans-serif" font-size="11" lengthAdjust="spacingAndGlyphs" textLength="160" x="1017.5" y="291.1401">T getCosinus(T angle) const</text><text fill="#000000" font-family="sans-serif" font-size="11" lengthAdjust="spacingAndGlyphs" textLength="146" x="1017.5" y="303.9448">T getSinus(T angle) const</text><text fill="#000000" font-family="sans-serif" font-size="11" lengthAdjust="spacingAndGlyphs" textLength="174" x="1017.5" y="316.7495">T getTangeante(T angle) const</text><rect fill="#FEFECE" filter="url(#f1)" height="73.6094" style="stroke: #A80036; stroke-width: 1.5;" width="91" x="1253.75" y="525"/><ellipse cx="1268.75" cy="541" fill="#ADD1B2" rx="11" ry="11" style="stroke: #A80036; stroke-width: 1.0;"/><path d="M1271.7188,546.6406 Q1271.1406,546.9375 1270.5,547.0859 Q1269.8594,547.2344 1269.1563,547.2344 Q1266.6563,547.2344 1265.3359,545.5859 Q1264.0156,543.9375 1264.0156,540.8125 Q1264.0156,537.6875 1265.3359,536.0313 Q1266.6563,534.375 1269.1563,534.375 Q1269.8594,534.375 1270.5078,534.5313 Q1271.1563,534.6875 1271.7188,534.9844 L1271.7188,537.7031 Q1271.0938,537.125 1270.5,536.8516 Q1269.9063,536.5781 1269.2813,536.5781 Q1267.9375,536.5781 1267.25,537.6484 Q1266.5625,538.7188 1266.5625,540.8125 Q1266.5625,542.9063 1267.25,543.9766 Q1267.9375,545.0469 1269.2813,545.0469 Q1269.9063,545.0469 1270.5,544.7734 Q1271.0938,544.5 1271.7188,543.9219 L1271.7188,546.6406 Z "/><text fill="#000000" font-family="sans-serif" font-size="12" lengthAdjust="spacingAndGlyphs" textLength="59" x="1282.75" y="545.1543">Singleton</text><line style="stroke: #A80036; stroke-width: 1.5;" x1="1254.75" x2="1343.75" y1="557" y2="557"/><line style="stroke: #A80036; stroke-width: 1.5;" x1="1254.75" x2="1343.75" y1="565" y2="565"/><text fill="#000000" font-family="sans-serif" font-size="11" font-style="italic" lengthAdjust="spacingAndGlyphs" textLength="52" x="1259.75" y="579.2104">void init()</text><text fill="#000000" font-family="sans-serif" font-size="11" font-style="italic" lengthAdjust="spacingAndGlyphs" textLength="78" x="1259.75" y="592.0151">void destroy()</text><path d="M237.664,371.829 C246.023,398.478 254.715,426.19 262.786,451.92 " fill="none" style="stroke: #A80036; stroke-width: 1.0;"/><polygon fill="#A80036" points="266.693,464.379,268.7136,457.4568,263.101,452.9292,261.0804,459.8514,266.693,464.379" style="stroke: #A80036; stroke-width: 1.0;"/><path d="M608.515,371.829 C623.496,394.059 638.976,417.029 653.763,438.971 " fill="none" style="stroke: #A80036; stroke-width: 1.0;"/><polygon fill="#A80036" points="661.193,449.996,661.157,442.785,654.4868,440.0448,654.5228,447.2558,661.193,449.996" style="stroke: #A80036; stroke-width: 1.0;"/><path d="M1104,323.181 C1104,381.37 1104,457.046 1104,507.232 " fill="none" style="stroke: #A80036; stroke-width: 1.0;"/><polygon fill="#A80036" points="1104,512.31,1108,503.31,1104,507.31,1100,503.31,1104,512.31" style="stroke: #A80036; stroke-width: 1.0;"/><text fill="#000000" font-family="sans-serif" font-size="13" lengthAdjust="spacingAndGlyphs" textLength="30" x="1105" y="415.0669">uses</text><path d="M1154.98,323.181 C1190.26,381.433 1236.14,457.208 1266.54,507.393 " fill="none" style="stroke: #A80036; stroke-width: 1.0;"/><polygon fill="none" points="1272.61,503.91,1276.98,524.644,1260.64,511.162,1272.61,503.91" style="stroke: #A80036; stroke-width: 1.0;"/></g></svg>