<?xml version="1.0" encoding="UTF-8" standalone="yes"?><svg xmlns="http://www.w3.org/2000/svg" xmlns:xlink="http://www.w3.org/1999/xlink" height="289px" style="width:646px;height:289px;" version="1.1" viewBox="0 0 646 289" width="646px"><defs><filter height="300%" id="f1" width="300%" x="-1" y="-1"><feGaussianBlur result="blurOut" stdDeviation="2.0"/><feColorMatrix in="blurOut" result="blurOut2" type="matrix" values="0 0 0 0 0 0 0 0 0 0 0 0 0 0 0 0 0 0 .4 0"/><feOffset dx="4.0" dy="4.0" in="blurOut2" result="blurOut3"/><feBlend in="SourceGraphic" in2="blurOut3" mode="normal"/></filter></defs><g><polygon fill="#FFFFFF" filter="url(#f1)" points="22,24,59,24,66,46.2969,639,46.2969,639,282,22,282,22,24" style="stroke: #000000; stroke-width: 2.0;"/><line style="stroke: #000000; stroke-width: 2.0;" x1="22" x2="66" y1="46.2969" y2="46.2969"/><text fill="#000000" font-family="sans-serif" font-size="14" font-weight="bold" lengthAdjust="spacingAndGlyphs" textLength="31" x="26" y="38.9951">slim</text><polygon fill="#FFFFFF" filter="url(#f1)" points="46,68,86,68,93,90.2969,615,90.2969,615,258,46,258,46,68" style="stroke: #000000; stroke-width: 2.0;"/><line style="stroke: #000000; stroke-width: 2.0;" x1="46" x2="93" y1="90.2969" y2="90.2969"/><text fill="#000000" font-family="sans-serif" font-size="14" font-weight="bold" lengthAdjust="spacingAndGlyphs" textLength="34" x="50" y="82.9951">time</text><rect fill="#FEFECE" filter="url(#f1)" height="137.6328" style="stroke: #A80036; stroke-width: 1.5;" width="318" x="281.5" y="104"/><ellipse cx="421.25" cy="120" fill="#ADD1B2" rx="11" ry="11" style="stroke: #A80036; stroke-width: 1.0;"/><path d="M424.2188,125.6406 Q423.6406,125.9375 423,126.0859 Q422.3594,126.2344 421.6563,126.2344 Q419.1563,126.2344 417.8359,124.5859 Q416.5156,122.9375 416.5156,119.8125 Q416.5156,116.6875 417.8359,115.0313 Q419.1563,113.375 421.6563,113.375 Q422.3594,113.375 423.0078,113.5313 Q423.6563,113.6875 424.2188,113.9844 L424.2188,116.7031 Q423.5938,116.125 423,115.8516 Q422.4063,115.5781 421.7813,115.5781 Q420.4375,115.5781 419.75,116.6484 Q419.0625,117.7188 419.0625,119.8125 Q419.0625,121.9063 419.75,122.9766 Q420.4375,124.0469 421.7813,124.0469 Q422.4063,124.0469 423,123.7734 Q423.5938,123.5 424.2188,122.9219 L424.2188,125.6406 Z "/><text fill="#000000" font-family="sans-serif" font-size="12" lengthAdjust="spacingAndGlyphs" textLength="30" x="441.75" y="124.1543">Date</text><line style="stroke: #A80036; stroke-width: 1.5;" x1="282.5" x2="598.5" y1="136" y2="136"/><text fill="#000000" font-family="sans-serif" font-size="11" lengthAdjust="spacingAndGlyphs" textLength="54" x="287.5" y="150.2104">bool local</text><text fill="#000000" font-family="sans-serif" font-size="11" lengthAdjust="spacingAndGlyphs" textLength="87" x="287.5" y="163.0151">time_t seconds</text><text fill="#000000" font-family="sans-serif" font-size="11" lengthAdjust="spacingAndGlyphs" textLength="142" x="287.5" y="175.8198">struct tm* completeTime</text><line style="stroke: #A80036; stroke-width: 1.5;" x1="282.5" x2="598.5" y1="182.4141" y2="182.4141"/><text fill="#000000" font-family="sans-serif" font-size="11" lengthAdjust="spacingAndGlyphs" textLength="189" x="287.5" y="196.6245">void setSeconds(time_t seconds)</text><text fill="#000000" font-family="sans-serif" font-size="11" lengthAdjust="spacingAndGlyphs" textLength="110" x="287.5" y="209.4292">bool isLocal() const</text><text fill="#000000" font-family="sans-serif" font-size="11" lengthAdjust="spacingAndGlyphs" textLength="173" x="287.5" y="222.2339">time_t getUnixSeconds() const</text><text fill="#000000" font-family="sans-serif" font-size="11" lengthAdjust="spacingAndGlyphs" textLength="306" x="287.5" y="235.0386">void toFormat(char* buffer, const char* format) const</text><rect fill="#FEFECE" filter="url(#f1)" height="124.8281" style="stroke: #A80036; stroke-width: 1.5;" width="185" x="61.75" y="110.5"/><ellipse cx="133.5" cy="126.5" fill="#ADD1B2" rx="11" ry="11" style="stroke: #A80036; stroke-width: 1.0;"/><path d="M136.4688,132.1406 Q135.8906,132.4375 135.25,132.5859 Q134.6094,132.7344 133.9063,132.7344 Q131.4063,132.7344 130.0859,131.0859 Q128.7656,129.4375 128.7656,126.3125 Q128.7656,123.1875 130.0859,121.5313 Q131.4063,119.875 133.9063,119.875 Q134.6094,119.875 135.2578,120.0313 Q135.9063,120.1875 136.4688,120.4844 L136.4688,123.2031 Q135.8438,122.625 135.25,122.3516 Q134.6563,122.0781 134.0313,122.0781 Q132.6875,122.0781 132,123.1484 Q131.3125,124.2188 131.3125,126.3125 Q131.3125,128.4063 132,129.4766 Q132.6875,130.5469 134.0313,130.5469 Q134.6563,130.5469 135.25,130.2734 Q135.8438,130 136.4688,129.4219 L136.4688,132.1406 Z "/><text fill="#000000" font-family="sans-serif" font-size="12" lengthAdjust="spacingAndGlyphs" textLength="33" x="154" y="130.6543">Clock</text><line style="stroke: #A80036; stroke-width: 1.5;" x1="62.75" x2="245.75" y1="142.5" y2="142.5"/><text fill="#000000" font-family="sans-serif" font-size="11" lengthAdjust="spacingAndGlyphs" textLength="71" x="67.75" y="156.7104">bool running</text><text fill="#000000" font-family="sans-serif" font-size="11" lengthAdjust="spacingAndGlyphs" textLength="124" x="67.75" y="169.5151">time_t microSeconds;</text><line style="stroke: #A80036; stroke-width: 1.5;" x1="62.75" x2="245.75" y1="176.1094" y2="176.1094"/><text fill="#000000" font-family="sans-serif" font-size="11" lengthAdjust="spacingAndGlyphs" textLength="126" x="67.75" y="190.3198">bool isRunning() const</text><text fill="#000000" font-family="sans-serif" font-size="11" lengthAdjust="spacingAndGlyphs" textLength="173" x="67.75" y="203.1245">time_t getElapsedTime() const</text><text fill="#000000" font-family="sans-serif" font-size="11" lengthAdjust="spacingAndGlyphs" textLength="169" x="67.75" y="215.9292">void setRunning(bool running)</text><text fill="#000000" font-family="sans-serif" font-size="11" lengthAdjust="spacingAndGlyphs" textLength="77" x="67.75" y="228.7339">time_t reset()</text></g></svg>