<?xml version="1.0" encoding="UTF-8" standalone="yes"?><svg xmlns="http://www.w3.org/2000/svg" xmlns:xlink="http://www.w3.org/1999/xlink" height="767px" style="width:1127px;height:767px;" version="1.1" viewBox="0 0 1127 767" width="1127px"><defs><filter height="300%" id="f1" width="300%" x="-1" y="-1"><feGaussianBlur result="blurOut" stdDeviation="2.0"/><feColorMatrix in="blurOut" result="blurOut2" type="matrix" values="0 0 0 0 0 0 0 0 0 0 0 0 0 0 0 0 0 0 .4 0"/><feOffset dx="4.0" dy="4.0" in="blurOut2" result="blurOut3"/><feBlend in="SourceGraphic" in2="blurOut3" mode="normal"/></filter></defs><g><polygon fill="#FFFFFF" filter="url(#f1)" points="22,24,59,24,66,46.2969,1120,46.2969,1120,760,22,760,22,24" style="stroke: #000000; stroke-width: 2.0;"/><line style="stroke: #000000; stroke-width: 2.0;" x1="22" x2="66" y1="46.2969" y2="46.2969"/><text fill="#000000" font-family="sans-serif" font-size="14" font-weight="bold" lengthAdjust="spacingAndGlyphs" textLength="31" x="26" y="38.9951">slim</text><polygon fill="#FFFFFF" filter="url(#f1)" points="46,68,133,68,140,90.2969,1096,90.2969,1096,602,46,602,46,68" style="stroke: #000000; stroke-width: 2.0;"/><line style="stroke: #000000; stroke-width: 2.0;" x1="46" x2="140" y1="90.2969" y2="90.2969"/><text fill="#000000" font-family="sans-serif" font-size="14" font-weight="bold" lengthAdjust="spacingAndGlyphs" textLength="81" x="50" y="82.9951">resources</text><polygon fill="#FFFFFF" filter="url(#f1)" points="134,636,190,636,197,658.2969,464,658.2969,464,736,134,736,134,636" style="stroke: #000000; stroke-width: 2.0;"/><line style="stroke: #000000; stroke-width: 2.0;" x1="134" x2="197" y1="658.2969" y2="658.2969"/><text fill="#000000" font-family="sans-serif" font-size="14" font-weight="bold" lengthAdjust="spacingAndGlyphs" textLength="50" x="138" y="650.9951">debug</text><rect fill="#FEFECE" filter="url(#f1)" height="94.4141" style="stroke: #A80036; stroke-width: 1.5;" width="258" x="89" y="352"/><ellipse cx="203.25" cy="368" fill="#A9DCDF" rx="11" ry="11" style="stroke: #A80036; stroke-width: 1.0;"/><path d="M203.3594,363.3438 L202.2031,368.4219 L204.5313,368.4219 L203.3594,363.3438 Z M201.875,361.1094 L204.8594,361.1094 L208.2188,373.5 L205.7656,373.5 L205,370.4375 L201.7188,370.4375 L200.9688,373.5 L198.5313,373.5 L201.875,361.1094 Z "/><text fill="#000000" font-family="sans-serif" font-size="12" font-style="italic" lengthAdjust="spacingAndGlyphs" textLength="21" x="223.75" y="372.1543">File</text><line style="stroke: #A80036; stroke-width: 1.5;" x1="90" x2="346" y1="384" y2="384"/><text fill="#000000" font-family="sans-serif" font-size="11" lengthAdjust="spacingAndGlyphs" textLength="102" x="95" y="398.2104">const char* name</text><line style="stroke: #A80036; stroke-width: 1.0;" x1="90" x2="346" y1="404.8047" y2="404.8047"/><text fill="#000000" font-family="sans-serif" font-size="11" lengthAdjust="spacingAndGlyphs" textLength="246" x="95" y="419.0151">void onError(const char* description) const</text><line style="stroke: #A80036; stroke-width: 1.0;" x1="90" x2="346" y1="425.6094" y2="425.6094"/><text fill="#000000" font-family="sans-serif" font-size="11" lengthAdjust="spacingAndGlyphs" textLength="164" x="95" y="439.8198">const char* getName() const</text><rect fill="#FEFECE" filter="url(#f1)" height="60.8047" style="stroke: #A80036; stroke-width: 1.5;" width="106" x="837.5" y="228.5"/><ellipse cx="852.5" cy="244.5" fill="#A9DCDF" rx="11" ry="11" style="stroke: #A80036; stroke-width: 1.0;"/><path d="M852.6094,239.8438 L851.4531,244.9219 L853.7813,244.9219 L852.6094,239.8438 Z M851.125,237.6094 L854.1094,237.6094 L857.4688,250 L855.0156,250 L854.25,246.9375 L850.9688,246.9375 L850.2188,250 L847.7813,250 L851.125,237.6094 Z "/><text fill="#000000" font-family="sans-serif" font-size="12" font-style="italic" lengthAdjust="spacingAndGlyphs" textLength="74" x="866.5" y="248.6543">BufferedFile</text><line style="stroke: #A80036; stroke-width: 1.5;" x1="838.5" x2="942.5" y1="260.5" y2="260.5"/><text fill="#000000" font-family="sans-serif" font-size="11" lengthAdjust="spacingAndGlyphs" textLength="49" x="843.5" y="274.7104">FILE* file</text><line style="stroke: #A80036; stroke-width: 1.5;" x1="838.5" x2="942.5" y1="281.3047" y2="281.3047"/><rect fill="#FEFECE" filter="url(#f1)" height="60.8047" style="stroke: #A80036; stroke-width: 1.5;" width="123" x="150.75" y="228.5"/><ellipse cx="165.75" cy="244.5" fill="#A9DCDF" rx="11" ry="11" style="stroke: #A80036; stroke-width: 1.0;"/><path d="M165.8594,239.8438 L164.7031,244.9219 L167.0313,244.9219 L165.8594,239.8438 Z M164.375,237.6094 L167.3594,237.6094 L170.7188,250 L168.2656,250 L167.5,246.9375 L164.2188,246.9375 L163.4688,250 L161.0313,250 L164.375,237.6094 Z "/><text fill="#000000" font-family="sans-serif" font-size="12" font-style="italic" lengthAdjust="spacingAndGlyphs" textLength="91" x="179.75" y="248.6543">UnbufferedFile</text><line style="stroke: #A80036; stroke-width: 1.5;" x1="151.75" x2="272.75" y1="260.5" y2="260.5"/><text fill="#000000" font-family="sans-serif" font-size="11" lengthAdjust="spacingAndGlyphs" textLength="29" x="156.75" y="274.7104">int fd</text><line style="stroke: #A80036; stroke-width: 1.5;" x1="151.75" x2="272.75" y1="281.3047" y2="281.3047"/><rect fill="#FEFECE" filter="url(#f1)" height="60.8047" style="stroke: #A80036; stroke-width: 1.5;" width="243" x="308.75" y="228.5"/><ellipse cx="392.5" cy="244.5" fill="#B4A7E5" rx="11" ry="11" style="stroke: #A80036; stroke-width: 1.0;"/><path d="M388.4219,240.2656 L388.4219,238.1094 L395.8125,238.1094 L395.8125,240.2656 L393.3438,240.2656 L393.3438,248.3438 L395.8125,248.3438 L395.8125,250.5 L388.4219,250.5 L388.4219,248.3438 L390.8906,248.3438 L390.8906,240.2656 L388.4219,240.2656 Z "/><text fill="#000000" font-family="sans-serif" font-size="12" font-style="italic" lengthAdjust="spacingAndGlyphs" textLength="67" x="413" y="248.6543">IWritingFile</text><line style="stroke: #A80036; stroke-width: 1.5;" x1="309.75" x2="550.75" y1="260.5" y2="260.5"/><line style="stroke: #A80036; stroke-width: 1.5;" x1="309.75" x2="550.75" y1="268.5" y2="268.5"/><text fill="#000000" font-family="sans-serif" font-size="11" font-style="italic" lengthAdjust="spacingAndGlyphs" textLength="231" x="314.75" y="282.7104">size_t write(const void* data, size_t size)</text><rect fill="#FEFECE" filter="url(#f1)" height="60.8047" style="stroke: #A80036; stroke-width: 1.5;" width="215" x="586.75" y="228.5"/><ellipse cx="652.5" cy="244.5" fill="#B4A7E5" rx="11" ry="11" style="stroke: #A80036; stroke-width: 1.0;"/><path d="M648.4219,240.2656 L648.4219,238.1094 L655.8125,238.1094 L655.8125,240.2656 L653.3438,240.2656 L653.3438,248.3438 L655.8125,248.3438 L655.8125,250.5 L648.4219,250.5 L648.4219,248.3438 L650.8906,248.3438 L650.8906,240.2656 L648.4219,240.2656 Z "/><text fill="#000000" font-family="sans-serif" font-size="12" font-style="italic" lengthAdjust="spacingAndGlyphs" textLength="75" x="673" y="248.6543">IReadingFile</text><line style="stroke: #A80036; stroke-width: 1.5;" x1="587.75" x2="800.75" y1="260.5" y2="260.5"/><line style="stroke: #A80036; stroke-width: 1.5;" x1="587.75" x2="800.75" y1="268.5" y2="268.5"/><text fill="#000000" font-family="sans-serif" font-size="11" font-style="italic" lengthAdjust="spacingAndGlyphs" textLength="203" x="592.75" y="282.7104">size_t read(void* buffer, size_t size)</text><rect fill="#FEFECE" filter="url(#f1)" height="60.8047" style="stroke: #A80036; stroke-width: 1.5;" width="215" x="864.75" y="104.5"/><ellipse cx="905.85" cy="120.5" fill="#ADD1B2" rx="11" ry="11" style="stroke: #A80036; stroke-width: 1.0;"/><path d="M908.8188,126.1406 Q908.2406,126.4375 907.6,126.5859 Q906.9594,126.7344 906.2563,126.7344 Q903.7563,126.7344 902.4359,125.0859 Q901.1156,123.4375 901.1156,120.3125 Q901.1156,117.1875 902.4359,115.5313 Q903.7563,113.875 906.2563,113.875 Q906.9594,113.875 907.6078,114.0313 Q908.2563,114.1875 908.8188,114.4844 L908.8188,117.2031 Q908.1938,116.625 907.6,116.3516 Q907.0063,116.0781 906.3813,116.0781 Q905.0375,116.0781 904.35,117.1484 Q903.6625,118.2188 903.6625,120.3125 Q903.6625,122.4063 904.35,123.4766 Q905.0375,124.5469 906.3813,124.5469 Q907.0063,124.5469 907.6,124.2734 Q908.1938,124 908.8188,123.4219 L908.8188,126.1406 Z "/><text fill="#000000" font-family="sans-serif" font-size="12" lengthAdjust="spacingAndGlyphs" textLength="125" x="925.65" y="124.6543">BufferedReadingFile</text><line style="stroke: #A80036; stroke-width: 1.5;" x1="865.75" x2="1078.75" y1="136.5" y2="136.5"/><line style="stroke: #A80036; stroke-width: 1.5;" x1="865.75" x2="1078.75" y1="144.5" y2="144.5"/><text fill="#000000" font-family="sans-serif" font-size="11" lengthAdjust="spacingAndGlyphs" textLength="203" x="870.75" y="158.7104">size_t read(void* buffer, size_t size)</text><rect fill="#FEFECE" filter="url(#f1)" height="60.8047" style="stroke: #A80036; stroke-width: 1.5;" width="241" x="588.75" y="104.5"/><ellipse cx="646.5" cy="120.5" fill="#ADD1B2" rx="11" ry="11" style="stroke: #A80036; stroke-width: 1.0;"/><path d="M649.4688,126.1406 Q648.8906,126.4375 648.25,126.5859 Q647.6094,126.7344 646.9063,126.7344 Q644.4063,126.7344 643.0859,125.0859 Q641.7656,123.4375 641.7656,120.3125 Q641.7656,117.1875 643.0859,115.5313 Q644.4063,113.875 646.9063,113.875 Q647.6094,113.875 648.2578,114.0313 Q648.9063,114.1875 649.4688,114.4844 L649.4688,117.2031 Q648.8438,116.625 648.25,116.3516 Q647.6563,116.0781 647.0313,116.0781 Q645.6875,116.0781 645,117.1484 Q644.3125,118.2188 644.3125,120.3125 Q644.3125,122.4063 645,123.4766 Q645.6875,124.5469 647.0313,124.5469 Q647.6563,124.5469 648.25,124.2734 Q648.8438,124 649.4688,123.4219 L649.4688,126.1406 Z "/><text fill="#000000" font-family="sans-serif" font-size="12" lengthAdjust="spacingAndGlyphs" textLength="117" x="667" y="124.6543">BufferedWritingFile</text><line style="stroke: #A80036; stroke-width: 1.5;" x1="589.75" x2="828.75" y1="136.5" y2="136.5"/><line style="stroke: #A80036; stroke-width: 1.5;" x1="589.75" x2="828.75" y1="144.5" y2="144.5"/><text fill="#000000" font-family="sans-serif" font-size="11" lengthAdjust="spacingAndGlyphs" textLength="229" x="594.75" y="158.7104">size_t read(const void* data, size_t size)</text><rect fill="#FEFECE" filter="url(#f1)" height="60.8047" style="stroke: #A80036; stroke-width: 1.5;" width="215" x="338.75" y="104.5"/><ellipse cx="372.2" cy="120.5" fill="#ADD1B2" rx="11" ry="11" style="stroke: #A80036; stroke-width: 1.0;"/><path d="M375.1688,126.1406 Q374.5906,126.4375 373.95,126.5859 Q373.3094,126.7344 372.6063,126.7344 Q370.1063,126.7344 368.7859,125.0859 Q367.4656,123.4375 367.4656,120.3125 Q367.4656,117.1875 368.7859,115.5313 Q370.1063,113.875 372.6063,113.875 Q373.3094,113.875 373.9578,114.0313 Q374.6063,114.1875 375.1688,114.4844 L375.1688,117.2031 Q374.5438,116.625 373.95,116.3516 Q373.3563,116.0781 372.7313,116.0781 Q371.3875,116.0781 370.7,117.1484 Q370.0125,118.2188 370.0125,120.3125 Q370.0125,122.4063 370.7,123.4766 Q371.3875,124.5469 372.7313,124.5469 Q373.3563,124.5469 373.95,124.2734 Q374.5438,124 375.1688,123.4219 L375.1688,126.1406 Z "/><text fill="#000000" font-family="sans-serif" font-size="12" lengthAdjust="spacingAndGlyphs" textLength="142" x="390.3" y="124.6543">UnbufferedReadingFile</text><line style="stroke: #A80036; stroke-width: 1.5;" x1="339.75" x2="552.75" y1="136.5" y2="136.5"/><line style="stroke: #A80036; stroke-width: 1.5;" x1="339.75" x2="552.75" y1="144.5" y2="144.5"/><text fill="#000000" font-family="sans-serif" font-size="11" lengthAdjust="spacingAndGlyphs" textLength="203" x="344.75" y="158.7104">size_t read(void* buffer, size_t size)</text><rect fill="#FEFECE" filter="url(#f1)" height="60.8047" style="stroke: #A80036; stroke-width: 1.5;" width="241" x="62.75" y="104.5"/><ellipse cx="112" cy="120.5" fill="#ADD1B2" rx="11" ry="11" style="stroke: #A80036; stroke-width: 1.0;"/><path d="M114.9688,126.1406 Q114.3906,126.4375 113.75,126.5859 Q113.1094,126.7344 112.4063,126.7344 Q109.9063,126.7344 108.5859,125.0859 Q107.2656,123.4375 107.2656,120.3125 Q107.2656,117.1875 108.5859,115.5313 Q109.9063,113.875 112.4063,113.875 Q113.1094,113.875 113.7578,114.0313 Q114.4063,114.1875 114.9688,114.4844 L114.9688,117.2031 Q114.3438,116.625 113.75,116.3516 Q113.1563,116.0781 112.5313,116.0781 Q111.1875,116.0781 110.5,117.1484 Q109.8125,118.2188 109.8125,120.3125 Q109.8125,122.4063 110.5,123.4766 Q111.1875,124.5469 112.5313,124.5469 Q113.1563,124.5469 113.75,124.2734 Q114.3438,124 114.9688,123.4219 L114.9688,126.1406 Z "/><text fill="#000000" font-family="sans-serif" font-size="12" lengthAdjust="spacingAndGlyphs" textLength="134" x="132.5" y="124.6543">UnbufferedWritingFile</text><line style="stroke: #A80036; stroke-width: 1.5;" x1="63.75" x2="302.75" y1="136.5" y2="136.5"/><line style="stroke: #A80036; stroke-width: 1.5;" x1="63.75" x2="302.75" y1="144.5" y2="144.5"/><text fill="#000000" font-family="sans-serif" font-size="11" lengthAdjust="spacingAndGlyphs" textLength="229" x="68.75" y="158.7104">size_t read(const void* data, size_t size)</text><rect fill="#FEFECE" filter="url(#f1)" height="60.8047" style="stroke: #A80036; stroke-width: 1.5;" width="132" x="152" y="524.5"/><ellipse cx="175.1" cy="540.5" fill="#ADD1B2" rx="11" ry="11" style="stroke: #A80036; stroke-width: 1.0;"/><path d="M178.0688,546.1406 Q177.4906,546.4375 176.85,546.5859 Q176.2094,546.7344 175.5063,546.7344 Q173.0063,546.7344 171.6859,545.0859 Q170.3656,543.4375 170.3656,540.3125 Q170.3656,537.1875 171.6859,535.5313 Q173.0063,533.875 175.5063,533.875 Q176.2094,533.875 176.8578,534.0313 Q177.5063,534.1875 178.0688,534.4844 L178.0688,537.2031 Q177.4438,536.625 176.85,536.3516 Q176.2563,536.0781 175.6313,536.0781 Q174.2875,536.0781 173.6,537.1484 Q172.9125,538.2188 172.9125,540.3125 Q172.9125,542.4063 173.6,543.4766 Q174.2875,544.5469 175.6313,544.5469 Q176.2563,544.5469 176.85,544.2734 Q177.4438,544 178.0688,543.4219 L178.0688,546.1406 Z "/><text fill="#000000" font-family="sans-serif" font-size="12" lengthAdjust="spacingAndGlyphs" textLength="82" x="190.9" y="544.6543">FileException</text><line style="stroke: #A80036; stroke-width: 1.5;" x1="153" x2="283" y1="556.5" y2="556.5"/><text fill="#000000" font-family="sans-serif" font-size="11" lengthAdjust="spacingAndGlyphs" textLength="120" x="158" y="570.7104">const char* fileName</text><line style="stroke: #A80036; stroke-width: 1.5;" x1="153" x2="283" y1="577.3047" y2="577.3047"/><rect fill="#FEFECE" filter="url(#f1)" height="48" style="stroke: #A80036; stroke-width: 1.5;" width="93" x="355.75" y="672"/><ellipse cx="370.75" cy="688" fill="#ADD1B2" rx="11" ry="11" style="stroke: #A80036; stroke-width: 1.0;"/><path d="M373.7188,693.6406 Q373.1406,693.9375 372.5,694.0859 Q371.8594,694.2344 371.1563,694.2344 Q368.6563,694.2344 367.3359,692.5859 Q366.0156,690.9375 366.0156,687.8125 Q366.0156,684.6875 367.3359,683.0313 Q368.6563,681.375 371.1563,681.375 Q371.8594,681.375 372.5078,681.5313 Q373.1563,681.6875 373.7188,681.9844 L373.7188,684.7031 Q373.0938,684.125 372.5,683.8516 Q371.9063,683.5781 371.2813,683.5781 Q369.9375,683.5781 369.25,684.6484 Q368.5625,685.7188 368.5625,687.8125 Q368.5625,689.9063 369.25,690.9766 Q369.9375,692.0469 371.2813,692.0469 Q371.9063,692.0469 372.5,691.7734 Q373.0938,691.5 373.7188,690.9219 L373.7188,693.6406 Z "/><text fill="#000000" font-family="sans-serif" font-size="12" lengthAdjust="spacingAndGlyphs" textLength="61" x="384.75" y="692.1543">Exception</text><line style="stroke: #A80036; stroke-width: 1.5;" x1="356.75" x2="447.75" y1="704" y2="704"/><line style="stroke: #A80036; stroke-width: 1.5;" x1="356.75" x2="447.75" y1="712" y2="712"/><rect fill="#FEFECE" filter="url(#f1)" height="48" style="stroke: #A80036; stroke-width: 1.5;" width="135" x="150.75" y="672"/><ellipse cx="165.75" cy="688" fill="#ADD1B2" rx="11" ry="11" style="stroke: #A80036; stroke-width: 1.0;"/><path d="M168.7188,693.6406 Q168.1406,693.9375 167.5,694.0859 Q166.8594,694.2344 166.1563,694.2344 Q163.6563,694.2344 162.3359,692.5859 Q161.0156,690.9375 161.0156,687.8125 Q161.0156,684.6875 162.3359,683.0313 Q163.6563,681.375 166.1563,681.375 Q166.8594,681.375 167.5078,681.5313 Q168.1563,681.6875 168.7188,681.9844 L168.7188,684.7031 Q168.0938,684.125 167.5,683.8516 Q166.9063,683.5781 166.2813,683.5781 Q164.9375,683.5781 164.25,684.6484 Q163.5625,685.7188 163.5625,687.8125 Q163.5625,689.9063 164.25,690.9766 Q164.9375,692.0469 166.2813,692.0469 Q166.9063,692.0469 167.5,691.7734 Q168.0938,691.5 168.7188,690.9219 L168.7188,693.6406 Z "/><text fill="#000000" font-family="sans-serif" font-size="12" lengthAdjust="spacingAndGlyphs" textLength="103" x="179.75" y="692.1543">SyscallException</text><line style="stroke: #A80036; stroke-width: 1.5;" x1="151.75" x2="284.75" y1="704" y2="704"/><line style="stroke: #A80036; stroke-width: 1.5;" x1="151.75" x2="284.75" y1="712" y2="712"/><path d="M837.356,283.756 C831.237,286.064 825.029,288.209 819,290 C668.108,334.83 490.069,363.989 367.136,380.574 " fill="none" style="stroke: #A80036; stroke-width: 1.0;"/><polygon fill="none" points="367.878,387.537,347.132,383.227,366.037,373.658,367.878,387.537" style="stroke: #A80036; stroke-width: 1.0;"/><path d="M213.287,289.604 C213.826,302.002 214.476,316.952 215.119,331.734 " fill="none" style="stroke: #A80036; stroke-width: 1.0;"/><polygon fill="none" points="222.119,331.597,215.995,351.882,208.133,332.205,222.119,331.597" style="stroke: #A80036; stroke-width: 1.0;"/><path d="M952.15,165.533 C942.852,179.367 931.555,196.174 921.156,211.646 " fill="none" style="stroke: #A80036; stroke-width: 1.0;"/><polygon fill="none" points="926.918,215.622,909.951,228.316,915.298,207.812,926.918,215.622" style="stroke: #A80036; stroke-width: 1.0;"/><path d="M904.704,165.533 C867.249,181.97 820.228,202.605 780.114,220.209 " fill="none" style="stroke: #A80036; stroke-width: 1.0;"/><polygon fill="none" points="782.767,226.689,761.64,228.316,777.141,213.869,782.767,226.689" style="stroke: #A80036; stroke-width: 1.0;"/><path d="M752.815,165.533 C775.767,181.003 804.236,200.192 829.28,217.073 " fill="none" style="stroke: #A80036; stroke-width: 1.0;"/><polygon fill="none" points="833.289,211.333,845.961,228.316,825.464,222.942,833.289,211.333" style="stroke: #A80036; stroke-width: 1.0;"/><path d="M641.462,165.533 C603.872,181.97 556.682,202.605 516.423,220.209 " fill="none" style="stroke: #A80036; stroke-width: 1.0;"/><polygon fill="none" points="519.012,226.717,497.883,228.316,513.403,213.89,519.012,226.717" style="stroke: #A80036; stroke-width: 1.0;"/><path d="M506.034,165.533 C538.842,181.673 579.878,201.859 615.23,219.25 " fill="none" style="stroke: #A80036; stroke-width: 1.0;"/><polygon fill="none" points="618.803,213.207,633.659,228.316,612.623,225.769,618.803,213.207" style="stroke: #A80036; stroke-width: 1.0;"/><path d="M389.355,165.533 C358.541,181.598 320.036,201.673 286.785,219.01 " fill="none" style="stroke: #A80036; stroke-width: 1.0;"/><polygon fill="none" points="289.905,225.277,268.934,228.316,283.433,212.863,289.905,225.277" style="stroke: #A80036; stroke-width: 1.0;"/><path d="M242.792,165.533 C275.468,181.673 316.338,201.859 351.548,219.25 " fill="none" style="stroke: #A80036; stroke-width: 1.0;"/><polygon fill="none" points="355.071,213.183,369.903,228.316,348.871,225.735,355.071,213.183" style="stroke: #A80036; stroke-width: 1.0;"/><path d="M190.02,165.533 C193.096,178.474 196.791,194.018 200.266,208.636 " fill="none" style="stroke: #A80036; stroke-width: 1.0;"/><polygon fill="none" points="207.129,207.24,204.944,228.316,193.509,210.477,207.129,207.24" style="stroke: #A80036; stroke-width: 1.0;"/><path d="M285.562,696 C302.162,696 318.761,696 335.36,696 " fill="none" style="stroke: #A80036; stroke-width: 1.0;"/><polygon fill="none" points="335.607,688.9999,355.607,696,335.607,702.9999,335.607,688.9999" style="stroke: #A80036; stroke-width: 1.0;"/><path d="M218,585.819 C218,604.983 218,630.201 218,651.573 " fill="none" style="stroke: #A80036; stroke-width: 1.0;"/><polygon fill="none" points="225,651.665,218,671.665,211,651.665,225,651.665" style="stroke: #A80036; stroke-width: 1.0;"/><path d="M218,446.205 C218,469.663 218,497.687 218,519.281 " fill="none" style="stroke: #A80036; stroke-width: 1.0;"/><polygon fill="#A80036" points="218,524.344,222,515.344,218,519.344,214,515.344,218,524.344" style="stroke: #A80036; stroke-width: 1.0;"/><text fill="#000000" font-family="sans-serif" font-size="13" lengthAdjust="spacingAndGlyphs" textLength="42" x="219" y="489.0669">throws</text></g></svg>