<?xml version="1.0" encoding="UTF-8" standalone="yes"?><svg xmlns="http://www.w3.org/2000/svg" xmlns:xlink="http://www.w3.org/1999/xlink" height="393px" style="width:269px;height:393px;" version="1.1" viewBox="0 0 269 393" width="269px"><defs><filter height="300%" id="f1" width="300%" x="-1" y="-1"><feGaussianBlur result="blurOut" stdDeviation="2.0"/><feColorMatrix in="blurOut" result="blurOut2" type="matrix" values="0 0 0 0 0 0 0 0 0 0 0 0 0 0 0 0 0 0 .4 0"/><feOffset dx="4.0" dy="4.0" in="blurOut2" result="blurOut3"/><feBlend in="SourceGraphic" in2="blurOut3" mode="normal"/></filter></defs><g><polygon fill="#FFFFFF" filter="url(#f1)" points="22,24,59,24,66,46.2969,262,46.2969,262,386,22,386,22,24" style="stroke: #000000; stroke-width: 2.0;"/><line style="stroke: #000000; stroke-width: 2.0;" x1="22" x2="66" y1="46.2969" y2="46.2969"/><text fill="#000000" font-family="sans-serif" font-size="14" font-weight="bold" lengthAdjust="spacingAndGlyphs" textLength="31" x="26" y="38.9951">slim</text><polygon fill="#FFFFFF" filter="url(#f1)" points="67,224,109,224,116,246.2969,217,246.2969,217,362,67,362,67,224" style="stroke: #000000; stroke-width: 2.0;"/><line style="stroke: #000000; stroke-width: 2.0;" x1="67" x2="116" y1="246.2969" y2="246.2969"/><text fill="#000000" font-family="sans-serif" font-size="14" font-weight="bold" lengthAdjust="spacingAndGlyphs" textLength="36" x="71" y="238.9951">core</text><polygon fill="#FFFFFF" filter="url(#f1)" points="46,68,227,68,234,90.2969,238,90.2969,238,200,46,200,46,68" style="stroke: #000000; stroke-width: 2.0;"/><line style="stroke: #000000; stroke-width: 2.0;" x1="46" x2="234" y1="90.2969" y2="90.2969"/><text fill="#000000" font-family="sans-serif" font-size="14" font-weight="bold" lengthAdjust="spacingAndGlyphs" textLength="175" x="50" y="82.9951">any_other_namespace</text><rect fill="#FEFECE" filter="url(#f1)" height="86.4141" style="stroke: #A80036; stroke-width: 1.5;" width="117" x="83.75" y="260"/><ellipse cx="110.45" cy="276" fill="#ADD1B2" rx="11" ry="11" style="stroke: #A80036; stroke-width: 1.0;"/><path d="M113.4188,281.6406 Q112.8406,281.9375 112.2,282.0859 Q111.5594,282.2344 110.8563,282.2344 Q108.3563,282.2344 107.0359,280.5859 Q105.7156,278.9375 105.7156,275.8125 Q105.7156,272.6875 107.0359,271.0313 Q108.3563,269.375 110.8563,269.375 Q111.5594,269.375 112.2078,269.5313 Q112.8563,269.6875 113.4188,269.9844 L113.4188,272.7031 Q112.7938,272.125 112.2,271.8516 Q111.6063,271.5781 110.9813,271.5781 Q109.6375,271.5781 108.95,272.6484 Q108.2625,273.7188 108.2625,275.8125 Q108.2625,277.9063 108.95,278.9766 Q109.6375,280.0469 110.9813,280.0469 Q111.6063,280.0469 112.2,279.7734 Q112.7938,279.5 113.4188,278.9219 L113.4188,281.6406 Z "/><text fill="#000000" font-family="sans-serif" font-size="12" lengthAdjust="spacingAndGlyphs" textLength="59" x="127.05" y="280.1543">Singleton</text><line style="stroke: #A80036; stroke-width: 1.5;" x1="84.75" x2="199.75" y1="292" y2="292"/><text fill="#000000" font-family="sans-serif" font-size="11" lengthAdjust="spacingAndGlyphs" text-decoration="underline" textLength="105" x="89.75" y="306.2104">Singleton instance</text><line style="stroke: #000000; stroke-width: 1.0;" x1="89.75" x2="194.75" y1="308.2104" y2="308.2104"/><line style="stroke: #A80036; stroke-width: 1.5;" x1="84.75" x2="199.75" y1="312.8047" y2="312.8047"/><text fill="#000000" font-family="sans-serif" font-size="11" font-style="italic" lengthAdjust="spacingAndGlyphs" textLength="52" x="89.75" y="327.0151">void init()</text><text fill="#000000" font-family="sans-serif" font-size="11" font-style="italic" lengthAdjust="spacingAndGlyphs" textLength="78" x="89.75" y="339.8198">void destroy()</text><rect fill="#FEFECE" filter="url(#f1)" height="79.5469" style="stroke: #A80036; stroke-width: 1.5;" width="124" x="80.5" y="104"/><ellipse cx="95.5" cy="122.9688" fill="#ADD1B2" rx="11" ry="11" style="stroke: #A80036; stroke-width: 1.0;"/><path d="M98.4688,128.6094 Q97.8906,128.9063 97.25,129.0547 Q96.6094,129.2031 95.9063,129.2031 Q93.4063,129.2031 92.0859,127.5547 Q90.7656,125.9063 90.7656,122.7813 Q90.7656,119.6563 92.0859,118 Q93.4063,116.3438 95.9063,116.3438 Q96.6094,116.3438 97.2578,116.5 Q97.9063,116.6563 98.4688,116.9531 L98.4688,119.6719 Q97.8438,119.0938 97.25,118.8203 Q96.6563,118.5469 96.0313,118.5469 Q94.6875,118.5469 94,119.6172 Q93.3125,120.6875 93.3125,122.7813 Q93.3125,124.875 94,125.9453 Q94.6875,127.0156 96.0313,127.0156 Q96.6563,127.0156 97.25,126.7422 Q97.8438,126.4688 98.4688,125.8906 L98.4688,128.6094 Z "/><text fill="#000000" font-family="sans-serif" font-size="12" font-style="italic" lengthAdjust="spacingAndGlyphs" textLength="73" x="119" y="120.1387">«Singleton»</text><text fill="#000000" font-family="sans-serif" font-size="12" lengthAdjust="spacingAndGlyphs" textLength="92" x="109.5" y="134.1074">SingletonClass</text><line style="stroke: #A80036; stroke-width: 1.5;" x1="81.5" x2="203.5" y1="141.9375" y2="141.9375"/><line style="stroke: #A80036; stroke-width: 1.5;" x1="81.5" x2="203.5" y1="149.9375" y2="149.9375"/><text fill="#000000" font-family="sans-serif" font-size="11" lengthAdjust="spacingAndGlyphs" textLength="52" x="86.5" y="164.1479">void init()</text><text fill="#000000" font-family="sans-serif" font-size="11" lengthAdjust="spacingAndGlyphs" textLength="78" x="86.5" y="176.9526">void destroy()</text><path d="M142,184.213 C142,201.064 142,221.17 142,239.959 " fill="none" style="stroke: #A80036; stroke-width: 1.0;"/><polygon fill="none" points="149,239.99,142,259.99,135,239.99,149,239.99" style="stroke: #A80036; stroke-width: 1.0;"/></g></svg>