<?xml version="1.0" encoding="UTF-8" standalone="yes"?><svg xmlns="http://www.w3.org/2000/svg" xmlns:xlink="http://www.w3.org/1999/xlink" height="397px" style="width:475px;height:397px;" version="1.1" viewBox="0 0 475 397" width="475px"><defs><filter height="300%" id="f1" width="300%" x="-1" y="-1"><feGaussianBlur result="blurOut" stdDeviation="2.0"/><feColorMatrix in="blurOut" result="blurOut2" type="matrix" values="0 0 0 0 0 0 0 0 0 0 0 0 0 0 0 0 0 0 .4 0"/><feOffset dx="4.0" dy="4.0" in="blurOut2" result="blurOut3"/><feBlend in="SourceGraphic" in2="blurOut3" mode="normal"/></filter></defs><g><polygon fill="#FFFFFF" filter="url(#f1)" points="22,24,59,24,66,46.2969,468,46.2969,468,390,22,390,22,24" style="stroke: #000000; stroke-width: 2.0;"/><line style="stroke: #000000; stroke-width: 2.0;" x1="22" x2="66" y1="46.2969" y2="46.2969"/><text fill="#000000" font-family="sans-serif" font-size="14" font-weight="bold" lengthAdjust="spacingAndGlyphs" textLength="31" x="26" y="38.9951">slim</text><polygon fill="#FFFFFF" filter="url(#f1)" points="262,68,304,68,311,90.2969,444,90.2969,444,366,262,366,262,68" style="stroke: #000000; stroke-width: 2.0;"/><line style="stroke: #000000; stroke-width: 2.0;" x1="262" x2="311" y1="90.2969" y2="90.2969"/><text fill="#000000" font-family="sans-serif" font-size="14" font-weight="bold" lengthAdjust="spacingAndGlyphs" textLength="36" x="266" y="82.9951">core</text><polygon fill="#FFFFFF" filter="url(#f1)" points="46,78,227,78,234,100.2969,238,100.2969,238,210,46,210,46,78" style="stroke: #000000; stroke-width: 2.0;"/><line style="stroke: #000000; stroke-width: 2.0;" x1="46" x2="234" y1="100.2969" y2="100.2969"/><text fill="#000000" font-family="sans-serif" font-size="14" font-weight="bold" lengthAdjust="spacingAndGlyphs" textLength="175" x="50" y="92.9951">any_other_namespace</text><rect fill="#FEFECE" filter="url(#f1)" height="86.4141" style="stroke: #A80036; stroke-width: 1.5;" width="117" x="286.75" y="264"/><ellipse cx="313.45" cy="280" fill="#ADD1B2" rx="11" ry="11" style="stroke: #A80036; stroke-width: 1.0;"/><path d="M316.4188,285.6406 Q315.8406,285.9375 315.2,286.0859 Q314.5594,286.2344 313.8563,286.2344 Q311.3563,286.2344 310.0359,284.5859 Q308.7156,282.9375 308.7156,279.8125 Q308.7156,276.6875 310.0359,275.0313 Q311.3563,273.375 313.8563,273.375 Q314.5594,273.375 315.2078,273.5313 Q315.8563,273.6875 316.4188,273.9844 L316.4188,276.7031 Q315.7938,276.125 315.2,275.8516 Q314.6063,275.5781 313.9813,275.5781 Q312.6375,275.5781 311.95,276.6484 Q311.2625,277.7188 311.2625,279.8125 Q311.2625,281.9063 311.95,282.9766 Q312.6375,284.0469 313.9813,284.0469 Q314.6063,284.0469 315.2,283.7734 Q315.7938,283.5 316.4188,282.9219 L316.4188,285.6406 Z "/><text fill="#000000" font-family="sans-serif" font-size="12" lengthAdjust="spacingAndGlyphs" textLength="59" x="330.05" y="284.1543">Singleton</text><line style="stroke: #A80036; stroke-width: 1.5;" x1="287.75" x2="402.75" y1="296" y2="296"/><text fill="#000000" font-family="sans-serif" font-size="11" lengthAdjust="spacingAndGlyphs" text-decoration="underline" textLength="105" x="292.75" y="310.2104">Singleton instance</text><line style="stroke: #000000; stroke-width: 1.0;" x1="292.75" x2="397.75" y1="312.2104" y2="312.2104"/><line style="stroke: #A80036; stroke-width: 1.5;" x1="287.75" x2="402.75" y1="316.8047" y2="316.8047"/><text fill="#000000" font-family="sans-serif" font-size="11" font-style="italic" lengthAdjust="spacingAndGlyphs" textLength="52" x="292.75" y="331.0151">void init()</text><text fill="#000000" font-family="sans-serif" font-size="11" font-style="italic" lengthAdjust="spacingAndGlyphs" textLength="78" x="292.75" y="343.8198">void destroy()</text><rect fill="#FEFECE" filter="url(#f1)" height="99.2188" style="stroke: #A80036; stroke-width: 1.5;" width="150" x="278.5" y="104.5"/><ellipse cx="295.3" cy="120.5" fill="#ADD1B2" rx="11" ry="11" style="stroke: #A80036; stroke-width: 1.0;"/><path d="M298.2688,126.1406 Q297.6906,126.4375 297.05,126.5859 Q296.4094,126.7344 295.7063,126.7344 Q293.2063,126.7344 291.8859,125.0859 Q290.5656,123.4375 290.5656,120.3125 Q290.5656,117.1875 291.8859,115.5313 Q293.2063,113.875 295.7063,113.875 Q296.4094,113.875 297.0578,114.0313 Q297.7063,114.1875 298.2688,114.4844 L298.2688,117.2031 Q297.6438,116.625 297.05,116.3516 Q296.4563,116.0781 295.8313,116.0781 Q294.4875,116.0781 293.8,117.1484 Q293.1125,118.2188 293.1125,120.3125 Q293.1125,122.4063 293.8,123.4766 Q294.4875,124.5469 295.8313,124.5469 Q296.4563,124.5469 297.05,124.2734 Q297.6438,124 298.2688,123.4219 L298.2688,126.1406 Z "/><text fill="#000000" font-family="sans-serif" font-size="12" lengthAdjust="spacingAndGlyphs" textLength="114" x="309.7" y="124.6543">SingletonManager</text><line style="stroke: #A80036; stroke-width: 1.5;" x1="279.5" x2="427.5" y1="136.5" y2="136.5"/><text fill="#000000" font-family="sans-serif" font-size="11" lengthAdjust="spacingAndGlyphs" textLength="130" x="284.5" y="150.7104">Singleton* singletons[]</text><line style="stroke: #A80036; stroke-width: 1.5;" x1="279.5" x2="427.5" y1="157.3047" y2="157.3047"/><text fill="#000000" font-family="sans-serif" font-size="11" lengthAdjust="spacingAndGlyphs" textLength="112" x="284.5" y="171.5151">void listSingletons()</text><text fill="#000000" font-family="sans-serif" font-size="11" lengthAdjust="spacingAndGlyphs" textLength="112" x="284.5" y="184.3198">void initSingletons()</text><text fill="#000000" font-family="sans-serif" font-size="11" lengthAdjust="spacingAndGlyphs" textLength="138" x="284.5" y="197.1245">void destroySingletons()</text><rect fill="#FEFECE" filter="url(#f1)" height="79.5469" style="stroke: #A80036; stroke-width: 1.5;" width="124" x="98.5" y="114"/><ellipse cx="113.5" cy="132.9688" fill="#ADD1B2" rx="11" ry="11" style="stroke: #A80036; stroke-width: 1.0;"/><path d="M116.4688,138.6094 Q115.8906,138.9063 115.25,139.0547 Q114.6094,139.2031 113.9063,139.2031 Q111.4063,139.2031 110.0859,137.5547 Q108.7656,135.9063 108.7656,132.7813 Q108.7656,129.6563 110.0859,128 Q111.4063,126.3438 113.9063,126.3438 Q114.6094,126.3438 115.2578,126.5 Q115.9063,126.6563 116.4688,126.9531 L116.4688,129.6719 Q115.8438,129.0938 115.25,128.8203 Q114.6563,128.5469 114.0313,128.5469 Q112.6875,128.5469 112,129.6172 Q111.3125,130.6875 111.3125,132.7813 Q111.3125,134.875 112,135.9453 Q112.6875,137.0156 114.0313,137.0156 Q114.6563,137.0156 115.25,136.7422 Q115.8438,136.4688 116.4688,135.8906 L116.4688,138.6094 Z "/><text fill="#000000" font-family="sans-serif" font-size="12" font-style="italic" lengthAdjust="spacingAndGlyphs" textLength="73" x="137" y="130.1387">«Singleton»</text><text fill="#000000" font-family="sans-serif" font-size="12" lengthAdjust="spacingAndGlyphs" textLength="92" x="127.5" y="144.1074">SingletonClass</text><line style="stroke: #A80036; stroke-width: 1.5;" x1="99.5" x2="221.5" y1="151.9375" y2="151.9375"/><line style="stroke: #A80036; stroke-width: 1.5;" x1="99.5" x2="221.5" y1="159.9375" y2="159.9375"/><text fill="#000000" font-family="sans-serif" font-size="11" lengthAdjust="spacingAndGlyphs" textLength="52" x="104.5" y="174.1479">void init()</text><text fill="#000000" font-family="sans-serif" font-size="11" lengthAdjust="spacingAndGlyphs" textLength="78" x="104.5" y="186.9526">void destroy()</text><path d="M349.736,216.606 C348.9,232.39 348.019,249.014 347.247,263.587 " fill="none" style="stroke: #A80036; stroke-width: 1.0;"/><polygon fill="#A80036" points="350.425,203.609,346.1134,209.3892,349.7907,215.5922,354.1023,209.812,350.425,203.609" style="stroke: #A80036; stroke-width: 1.0;"/><path d="M208.124,194.279 C229.348,211.603 254.658,232.261 277.707,251.074 " fill="none" style="stroke: #A80036; stroke-width: 1.0;"/><polygon fill="none" points="282.157,245.671,293.225,263.74,273.305,256.517,282.157,245.671" style="stroke: #A80036; stroke-width: 1.0;"/></g></svg>